<svg width="65" height="67" viewBox="0 0 65 67" fill="none" xmlns="http://www.w3.org/2000/svg">
<g clip-path="url(#clip0_515_22)">
<path d="M31.9966 32.6464L21.6168 22.2667L22.2667 21.6168L32.6464 31.9966L33 32.3501L33.3536 31.9966L43.7333 21.6168L44.3832 22.2667L34.0034 32.6464L33.6499 33L34.0034 33.3536L44.3832 43.7333L43.7333 44.3832L33.3536 34.0034L33 33.6499L32.6464 34.0034L22.2667 44.3832L21.6168 43.7333L31.9966 33.3536L32.3501 33L31.9966 32.6464Z" stroke="#8A8A8A"/>
<path d="M64 33.5C64 51.478 49.8686 66 32.5 66C15.1314 66 1 51.478 1 33.5C1 15.522 15.1314 1 32.5 1C49.8686 1 64 15.522 64 33.5Z" stroke="#8A8A8A" stroke-width="2"/>
</g>
<defs>
<clipPath id="clip0_515_22">
<rect width="65" height="67" fill="white"/>
</clipPath>
</defs>
</svg>
