<svg width="379" height="275" viewBox="0 0 379 275" fill="none" xmlns="http://www.w3.org/2000/svg">
<g filter="url(#filter0_ddf_357_4)">
<rect x="4" y="4" width="371" height="263" rx="20" fill="white"/>
</g>
<path fill-rule="evenodd" clip-rule="evenodd" d="M189.5 41C137.332 41 95 83.3321 95 135.5C95 187.668 137.332 230 189.5 230C241.668 230 284 187.668 284 135.5C284 83.3321 241.668 41 189.5 41ZM189.5 44.9375C239.538 44.9375 280.062 85.4583 280.062 135.5C280.062 185.542 239.538 226.062 189.5 226.062C139.462 226.062 98.9375 185.542 98.9375 135.5C98.9375 85.4583 139.462 44.9375 189.5 44.9375ZM187.452 86.0214C175.557 86.0214 165.875 95.7431 165.875 107.678C165.875 119.608 175.557 129.334 187.452 129.334C199.352 129.334 209.03 119.608 209.03 107.678C209.034 95.7431 199.352 86.0214 187.452 86.0214ZM187.452 89.9589C197.217 89.9589 205.096 97.8614 205.092 107.678C205.092 117.49 197.217 125.396 187.452 125.396C185.13 125.395 182.83 124.935 180.686 124.043C178.541 123.151 176.593 121.845 174.955 120.198C173.316 118.552 172.018 116.599 171.136 114.451C170.253 112.302 169.804 110 169.812 107.678C169.812 97.8614 177.691 89.9589 187.452 89.9589ZM175.719 133.271C159.386 133.271 146.188 146.533 146.188 162.917V180.699C146.188 181.221 146.395 181.721 146.764 182.091C147.133 182.46 147.634 182.667 148.156 182.667H226.906C227.428 182.667 227.929 182.46 228.298 182.091C228.668 181.721 228.875 181.221 228.875 180.699V162.917C228.875 146.533 215.676 133.267 199.344 133.267L175.719 133.271ZM175.719 137.209H199.344C213.554 137.209 224.938 148.635 224.938 162.917V178.73H213.125V162.885C213.125 162.363 212.918 161.862 212.548 161.493C212.179 161.124 211.678 160.917 211.156 160.917C210.634 160.917 210.133 161.124 209.764 161.493C209.395 161.862 209.188 162.363 209.188 162.885V178.73H165.875V162.885C165.875 162.363 165.668 161.862 165.298 161.493C164.929 161.124 164.428 160.917 163.906 160.917C163.384 160.917 162.883 161.124 162.514 161.493C162.145 161.862 161.938 162.363 161.938 162.885V178.73H150.125V162.917C150.125 148.635 161.508 137.209 175.719 137.209Z" fill="#239987"/>
<defs>
<filter id="filter0_ddf_357_4" x="0" y="0" width="379" height="275" filterUnits="userSpaceOnUse" color-interpolation-filters="sRGB">
<feFlood flood-opacity="0" result="BackgroundImageFix"/>
<feColorMatrix in="SourceAlpha" type="matrix" values="0 0 0 0 0 0 0 0 0 0 0 0 0 0 0 0 0 0 127 0" result="hardAlpha"/>
<feOffset dy="4"/>
<feGaussianBlur stdDeviation="2"/>
<feComposite in2="hardAlpha" operator="out"/>
<feColorMatrix type="matrix" values="0 0 0 0 0 0 0 0 0 0 0 0 0 0 0 0 0 0 0.25 0"/>
<feBlend mode="normal" in2="BackgroundImageFix" result="effect1_dropShadow_357_4"/>
<feColorMatrix in="SourceAlpha" type="matrix" values="0 0 0 0 0 0 0 0 0 0 0 0 0 0 0 0 0 0 127 0" result="hardAlpha"/>
<feOffset dy="4"/>
<feGaussianBlur stdDeviation="2"/>
<feComposite in2="hardAlpha" operator="out"/>
<feColorMatrix type="matrix" values="0 0 0 0 0 0 0 0 0 0 0 0 0 0 0 0 0 0 0.25 0"/>
<feBlend mode="normal" in2="effect1_dropShadow_357_4" result="effect2_dropShadow_357_4"/>
<feBlend mode="normal" in="SourceGraphic" in2="effect2_dropShadow_357_4" result="shape"/>
<feGaussianBlur stdDeviation="2" result="effect3_foregroundBlur_357_4"/>
</filter>
</defs>
</svg>
