<svg width="364" height="248" viewBox="0 0 364 248" fill="none" xmlns="http://www.w3.org/2000/svg">
<path opacity="0.88" fill-rule="evenodd" clip-rule="evenodd" d="M-24.4254 245.588L-23.0698 -1.10688L334.229 0.85639C334.229 0.85639 408 -16 303.863 44.6852C201.152 99.645 287.614 161.466 241.349 193.035C195.084 224.605 20.6108 122.677 -12.5839 158.548C-45.7786 194.42 -24.4254 245.588 -24.4254 245.588Z" fill="#A7D6CF"/>
<path fill-rule="evenodd" clip-rule="evenodd" d="M-12.135 205.371L-10.9656 -7.4613L354.85 -7.41936C354.85 -7.41936 396.609 -22.5585 292.693 28.4287C188.776 79.4159 253.795 132.778 214.365 160.016C174.936 187.255 25.2261 100.439 -3.06505 131.389C-31.3562 162.338 -12.135 205.371 -12.135 205.371Z" fill="url(#paint0_linear_374_3)"/>
<path d="M132.369 107.529C147.116 110.902 164.366 109.605 178 91.4442C154.628 84.1799 144.612 89.3687 138.49 93.779C112.614 124.652 78.3912 97.93 77 90.1469C94.5289 85.996 114.005 91.4442 124.022 101.043C82.0083 104.935 79.1332 75.2726 77.8347 68.0948C75.3306 67.3165 101.763 69.1325 104.824 72.5052M125.97 96.8924C106.159 78.4204 102.041 59.2739 126.804 38C128.752 39.0378 147.116 55.1229 144.333 70.4297M96.4766 68.0948C96.4766 66.2787 94.8072 61.3494 96.4766 54.604C100.094 54.604 106.493 59.5333 110.202 62.1277M146.837 58.755C148.507 57.7173 149.898 55.4048 155.741 54.1076C158.245 59.5558 159.08 64.7446 157.41 69.9333M132.369 99.933C130.7 90.1469 140.438 67.3165 176.609 67.3165C173.826 99.933 139.603 105.194 132.369 99.933Z" stroke="#CCE0FF" stroke-width="2"/>
<defs>
<linearGradient id="paint0_linear_374_3" x1="-28.3879" y1="108.645" x2="339.543" y2="108.618" gradientUnits="userSpaceOnUse">
<stop offset="0.0885417" stop-color="#154087"/>
<stop offset="0.333333" stop-color="#2B5FB5"/>
<stop offset="0.666667" stop-color="#239987"/>
<stop offset="1" stop-color="#29B29D"/>
</linearGradient>
</defs>
</svg>
