<svg width="427" height="427" viewBox="0 0 427 427" fill="none" xmlns="http://www.w3.org/2000/svg">
<path d="M213.5 408.152C324.616 408.152 414.694 356.145 414.694 291.991C414.694 227.837 324.616 175.83 213.5 175.83C102.384 175.83 12.3061 227.837 12.3061 291.991C12.3061 356.145 102.384 408.152 213.5 408.152Z" fill="#CCE0FF"/>
<path d="M171.867 380.013C210.184 380.013 241.246 362.081 241.246 339.96C241.246 317.84 210.184 299.908 171.867 299.908C133.551 299.908 102.489 317.84 102.489 339.96C102.489 362.081 133.551 380.013 171.867 380.013Z" fill="#CCE0FF"/>
<path d="M257.191 264.518L253.954 262.648C253.415 262.298 252.966 261.825 252.644 261.268C252.322 260.712 252.136 260.087 252.101 259.445V124.923C252.136 124.282 252.321 123.658 252.642 123.102C252.962 122.546 253.409 122.073 253.945 121.721L343.914 69.7803C344.487 69.49 345.121 69.3387 345.763 69.3387C346.406 69.3387 347.039 69.49 347.612 69.7803L350.849 71.6506C351.388 72.0007 351.837 72.4733 352.159 73.0298C352.481 73.5863 352.667 74.2111 352.702 74.8531V209.375C352.667 210.016 352.481 210.64 352.161 211.196C351.841 211.752 351.394 212.226 350.857 212.578L260.888 264.526C260.315 264.818 259.681 264.968 259.039 264.967C258.396 264.966 257.762 264.812 257.191 264.518Z" fill="#2B5FB5"/>
<path d="M352.702 74.5542C352.574 73.5977 351.797 73.2476 350.866 73.7856L260.888 125.734C260.344 126.076 259.895 126.549 259.582 127.109L252.639 123.104C252.949 122.539 253.399 122.063 253.945 121.721L343.914 69.7803C344.487 69.49 345.121 69.3387 345.763 69.3387C346.406 69.3387 347.039 69.49 347.612 69.7803L350.849 71.6506C351.349 71.9724 351.773 72.3985 352.093 72.8997C352.413 73.4009 352.621 73.9653 352.702 74.5542Z" fill="#2B5FB5"/>
<path d="M260.572 264.672C260.026 264.893 259.438 264.995 258.849 264.97C258.259 264.945 257.682 264.794 257.156 264.527L253.911 262.648C253.375 262.296 252.928 261.822 252.608 261.266C252.287 260.71 252.102 260.086 252.067 259.445V124.923C252.089 124.281 252.274 123.655 252.605 123.104L259.548 127.109C259.21 127.661 259.022 128.291 259.001 128.937V263.459C259.035 264.518 259.701 265.005 260.572 264.672Z" fill="#263238"/>
<path d="M259.035 128.954V263.459C259.035 264.638 259.889 265.116 260.888 264.527L350.857 212.578C351.394 212.226 351.841 211.752 352.161 211.196C352.481 210.64 352.667 210.016 352.702 209.375V74.8531C352.702 73.6746 351.848 73.1963 350.857 73.7856L260.888 125.734C260.347 126.086 259.897 126.562 259.574 127.121C259.252 127.681 259.067 128.309 259.035 128.954Z" fill="#2B5FB5"/>
<path d="M238.027 180.194C236.865 179.502 231.477 176.436 231.195 176.274C230.975 176.143 230.788 175.964 230.647 175.751C230.505 175.538 230.414 175.296 230.378 175.043C230.343 174.79 230.365 174.532 230.443 174.288C230.521 174.044 230.652 173.821 230.828 173.635L252.101 150.816L259.035 154.796L237.771 177.632C237.604 177.81 237.477 178.021 237.398 178.252C237.32 178.483 237.292 178.729 237.316 178.971C237.34 179.214 237.416 179.449 237.539 179.66C237.662 179.871 237.828 180.053 238.027 180.194Z" fill="#2B5FB5"/>
<path d="M259.035 154.822L237.771 177.632C237.535 177.884 237.38 178.202 237.329 178.544C237.277 178.885 237.33 179.234 237.48 179.545C237.631 179.856 237.873 180.114 238.173 180.284C238.473 180.455 238.818 180.531 239.163 180.501L259.035 178.862V154.822Z" fill="#2B5FB5"/>
<path d="M305.869 113.753C316.356 107.698 324.853 112.608 324.853 124.718C324.853 136.828 316.356 151.542 305.869 157.597C295.381 163.652 286.884 158.742 286.884 146.64C286.884 134.539 295.381 119.808 305.869 113.753Z" fill="#2B5FB5"/>
<path d="M305.732 123.283C309.148 121.319 311.889 122.908 311.889 126.836C311.773 128.972 311.155 131.049 310.085 132.901C309.015 134.753 307.524 136.327 305.732 137.494C302.316 139.458 299.566 137.87 299.566 133.941C299.683 131.805 300.303 129.727 301.374 127.875C302.446 126.023 303.939 124.45 305.732 123.283Z" fill="#99C0FF"/>
<path d="M317.876 144.224C317.876 137.776 313.341 135.154 307.756 138.382L304.263 140.398C298.678 143.626 294.143 151.5 294.143 157.93V159.698C295.198 160.035 296.298 160.205 297.405 160.202C300.402 160.1 303.319 159.217 305.869 157.64C310.723 154.65 314.83 150.589 317.876 145.769V144.224Z" fill="#99C0FF"/>
<path d="M293.844 217.539L317.893 203.653C318.918 203.064 319.746 203.542 319.746 204.721V212.467C319.711 213.109 319.525 213.733 319.203 214.29C318.881 214.846 318.432 215.319 317.893 215.669L293.844 229.555C292.819 230.144 291.991 229.666 291.991 228.488V220.742C292.026 220.1 292.212 219.475 292.534 218.919C292.856 218.362 293.305 217.89 293.844 217.539Z" fill="#2B5FB5"/>
<path d="M282.068 200.237L329.644 172.756C330.865 172.047 331.864 172.619 331.864 174.037V176.915C331.823 177.685 331.6 178.434 331.214 179.102C330.828 179.77 330.29 180.337 329.644 180.758L282.042 208.239C280.821 208.948 279.83 208.376 279.83 206.958V204.106C279.869 203.33 280.092 202.574 280.481 201.901C280.871 201.229 281.414 200.658 282.068 200.237Z" fill="#CCE0FF"/>
<path d="M287.636 180.348C288.285 179.972 288.789 179.912 289.147 180.177C289.506 180.442 289.685 181.031 289.685 181.936C289.703 182.762 289.519 183.581 289.147 184.319C288.812 184.986 288.286 185.539 287.636 185.907L286.355 186.65V189.409C286.352 189.504 286.329 189.597 286.286 189.682C286.256 189.759 286.202 189.825 286.133 189.87L285.484 190.246C285.461 190.262 285.435 190.271 285.407 190.271C285.379 190.271 285.352 190.262 285.33 190.246C285.284 190.188 285.262 190.114 285.27 190.041V182.056C285.269 181.961 285.29 181.868 285.33 181.782C285.362 181.707 285.416 181.641 285.484 181.595L287.636 180.348ZM286.355 185.104L287.593 184.387C287.892 184.218 288.145 183.978 288.327 183.687C288.522 183.344 288.616 182.953 288.601 182.56C288.601 182.098 288.507 181.834 288.327 181.757C288.201 181.726 288.069 181.725 287.941 181.753C287.814 181.781 287.695 181.838 287.593 181.919L286.355 182.636V185.104Z" fill="#CCE0FF"/>
<path d="M293.264 177.094C293.349 177.043 293.417 177.043 293.46 177.094C293.515 177.171 293.553 177.258 293.571 177.35L295.544 184.028C295.544 184.028 295.544 184.08 295.544 184.105C295.542 184.2 295.519 184.294 295.475 184.379C295.445 184.456 295.391 184.522 295.322 184.566L294.741 184.9C294.639 184.959 294.562 184.968 294.519 184.9C294.478 184.857 294.448 184.804 294.434 184.746L294.083 183.576L291.521 185.045L291.18 186.616C291.156 186.701 291.124 186.784 291.086 186.864C291.043 186.968 290.965 187.053 290.864 187.103L290.283 187.436C290.262 187.454 290.234 187.464 290.206 187.464C290.178 187.464 290.151 187.454 290.129 187.436C290.085 187.381 290.063 187.31 290.07 187.239C290.065 187.208 290.065 187.177 290.07 187.146L292.034 178.196C292.057 178.064 292.095 177.935 292.145 177.811C292.187 177.722 292.255 177.647 292.341 177.598L293.264 177.094ZM293.708 182.269L292.854 179.255L292 183.285L293.708 182.269Z" fill="#CCE0FF"/>
<path d="M298.533 173.926C298.819 173.745 299.144 173.637 299.481 173.61C299.719 173.588 299.958 173.642 300.164 173.763C300.351 173.885 300.497 174.061 300.582 174.267C300.676 174.477 300.728 174.704 300.736 174.933C300.742 175.028 300.721 175.123 300.676 175.207C300.646 175.284 300.592 175.35 300.523 175.395L299.959 175.719C299.865 175.77 299.797 175.779 299.754 175.719C299.701 175.684 299.657 175.637 299.626 175.582C299.592 175.506 299.542 175.436 299.481 175.379C299.419 175.322 299.346 175.278 299.267 175.249C299.007 175.212 298.743 175.28 298.533 175.437C298.394 175.527 298.263 175.626 298.14 175.736C298.013 175.853 297.901 175.985 297.807 176.129C297.716 176.268 297.642 176.417 297.585 176.573C297.534 176.722 297.508 176.877 297.508 177.034C297.498 177.178 297.524 177.322 297.585 177.453C297.611 177.499 297.648 177.537 297.693 177.566C297.737 177.594 297.788 177.611 297.841 177.615C297.999 177.642 298.161 177.642 298.319 177.615L299.062 177.453C299.339 177.371 299.628 177.336 299.916 177.35C300.122 177.35 300.323 177.415 300.488 177.538C300.645 177.67 300.758 177.845 300.813 178.042C300.897 178.319 300.934 178.607 300.924 178.896C300.923 179.277 300.869 179.657 300.762 180.023C300.657 180.4 300.505 180.761 300.309 181.099C300.102 181.445 299.856 181.766 299.575 182.056C299.287 182.354 298.96 182.609 298.601 182.816C298.338 182.976 298.049 183.089 297.747 183.149C297.501 183.196 297.247 183.175 297.013 183.089C296.799 182.99 296.623 182.825 296.509 182.619C296.369 182.356 296.293 182.063 296.287 181.765C296.286 181.668 296.306 181.572 296.347 181.484C296.384 181.411 296.44 181.349 296.509 181.304L297.072 180.98C297.158 180.928 297.226 180.911 297.277 180.937C297.329 180.963 297.363 181.005 297.397 181.082C297.432 181.17 297.478 181.253 297.534 181.33C297.587 181.404 297.661 181.461 297.747 181.492C297.859 181.518 297.976 181.518 298.089 181.492C298.27 181.449 298.443 181.377 298.601 181.279C298.767 181.184 298.924 181.076 299.071 180.954C299.358 180.727 299.586 180.434 299.737 180.1C299.805 179.929 299.84 179.746 299.839 179.562C299.847 179.495 299.842 179.427 299.823 179.363C299.804 179.298 299.771 179.238 299.728 179.186C299.682 179.146 299.628 179.115 299.569 179.098C299.51 179.08 299.448 179.075 299.387 179.084C299.193 179.092 299.001 179.123 298.815 179.178C298.593 179.229 298.336 179.289 298.037 179.34C297.809 179.397 297.572 179.415 297.337 179.391C297.152 179.379 296.977 179.304 296.842 179.178C296.694 179.033 296.59 178.849 296.543 178.648C296.474 178.352 296.443 178.047 296.449 177.743C296.448 177.367 296.503 176.993 296.611 176.633C296.713 176.262 296.862 175.906 297.055 175.574C297.24 175.244 297.464 174.937 297.721 174.66C297.956 174.378 298.229 174.131 298.533 173.926Z" fill="#CCE0FF"/>
<path d="M304.144 170.698C304.427 170.512 304.753 170.4 305.091 170.373C305.33 170.353 305.568 170.406 305.775 170.527C305.957 170.652 306.099 170.827 306.185 171.031C306.278 171.241 306.33 171.467 306.338 171.697C306.348 171.792 306.327 171.888 306.279 171.97C306.248 172.047 306.195 172.113 306.125 172.158L305.561 172.482C305.476 172.534 305.407 172.551 305.356 172.482C305.302 172.448 305.26 172.397 305.237 172.337C305.159 172.187 305.028 172.072 304.869 172.013C304.742 171.994 304.612 172.001 304.487 172.033C304.363 172.065 304.246 172.122 304.144 172.201C304.001 172.288 303.867 172.388 303.742 172.499C303.618 172.616 303.509 172.748 303.418 172.892C303.323 173.029 303.249 173.179 303.196 173.336C303.142 173.484 303.114 173.64 303.11 173.798C303.1 173.941 303.127 174.085 303.187 174.216C303.213 174.262 303.25 174.301 303.295 174.329C303.34 174.357 303.391 174.374 303.443 174.378C303.601 174.406 303.763 174.406 303.921 174.378L304.664 174.216C304.942 174.139 305.23 174.104 305.518 174.114C305.725 174.112 305.926 174.178 306.091 174.301C306.247 174.435 306.362 174.609 306.424 174.805C306.499 175.083 306.534 175.371 306.526 175.659C306.526 176.041 306.471 176.42 306.364 176.787C306.26 177.163 306.108 177.525 305.911 177.863C305.706 178.212 305.459 178.536 305.177 178.828C304.889 179.118 304.564 179.371 304.212 179.579C303.949 179.739 303.66 179.851 303.358 179.912C303.115 179.959 302.864 179.938 302.632 179.852C302.414 179.756 302.234 179.591 302.12 179.383C301.979 179.12 301.906 178.827 301.906 178.529C301.896 178.434 301.917 178.338 301.966 178.255C301.996 178.178 302.05 178.112 302.12 178.068L302.683 177.743C302.769 177.692 302.845 177.675 302.888 177.7C302.918 177.714 302.944 177.734 302.965 177.759C302.986 177.784 303 177.814 303.008 177.845C303.046 177.932 303.092 178.015 303.144 178.093C303.201 178.168 303.278 178.225 303.366 178.255C303.479 178.281 303.596 178.281 303.708 178.255C303.889 178.213 304.062 178.141 304.22 178.042C304.382 177.945 304.536 177.837 304.682 177.717C304.831 177.6 304.964 177.462 305.074 177.307C305.185 177.16 305.277 176.999 305.348 176.829C305.416 176.658 305.451 176.475 305.45 176.291C305.458 176.224 305.452 176.156 305.433 176.092C305.414 176.027 305.382 175.967 305.339 175.915C305.293 175.875 305.238 175.845 305.18 175.827C305.121 175.809 305.059 175.804 304.998 175.813C304.807 175.825 304.618 175.856 304.434 175.907C304.212 175.958 303.947 176.018 303.657 176.069C303.425 176.126 303.185 176.144 302.948 176.12C302.763 176.111 302.587 176.035 302.453 175.907C302.308 175.761 302.207 175.578 302.162 175.377C302.086 175.085 302.052 174.783 302.06 174.481C302.063 174.102 302.117 173.726 302.222 173.362C302.328 172.993 302.477 172.637 302.666 172.303C302.851 171.971 303.078 171.664 303.341 171.389C303.571 171.118 303.842 170.885 304.144 170.698Z" fill="#CCE0FF"/>
<path d="M310.369 171.765L309.677 175.856C309.657 175.979 309.623 176.099 309.575 176.214C309.542 176.306 309.479 176.385 309.396 176.436L308.747 176.812C308.661 176.863 308.601 176.863 308.559 176.812C308.501 176.742 308.468 176.655 308.465 176.564L307.44 169.348C307.44 169.348 307.44 169.28 307.44 169.254C307.442 169.159 307.466 169.066 307.508 168.981C307.541 168.905 307.594 168.84 307.662 168.793L308.251 168.451C308.301 168.432 308.356 168.432 308.405 168.451C308.456 168.451 308.49 168.52 308.508 168.656L309.182 173.516L309.771 169.869C309.787 169.778 309.813 169.689 309.848 169.604C309.882 169.496 309.955 169.405 310.053 169.348L310.711 168.964C310.805 168.913 310.873 168.921 310.916 168.964C310.953 169.018 310.979 169.079 310.993 169.143L311.59 172.107L312.265 166.47C312.273 166.359 312.305 166.252 312.359 166.154C312.399 166.09 312.451 166.035 312.513 165.992L313.102 165.65C313.124 165.634 313.151 165.625 313.179 165.625C313.207 165.625 313.234 165.634 313.256 165.65C313.28 165.678 313.299 165.711 313.31 165.746C313.322 165.781 313.327 165.818 313.324 165.855C313.327 165.889 313.327 165.924 313.324 165.958L312.299 174.353C312.282 174.475 312.251 174.596 312.205 174.711C312.166 174.802 312.101 174.88 312.017 174.933L311.36 175.309C311.283 175.352 311.223 175.352 311.181 175.309C311.137 175.231 311.103 175.148 311.078 175.061L310.369 171.765Z" fill="#CCE0FF"/>
<path d="M314.366 168.144C314.385 167.671 314.442 167.199 314.537 166.735C314.634 166.281 314.783 165.84 314.981 165.42C315.169 165.011 315.41 164.629 315.698 164.284C315.99 163.941 316.34 163.652 316.732 163.43C317.032 163.226 317.384 163.11 317.748 163.097C318.019 163.1 318.279 163.207 318.474 163.396C318.681 163.628 318.83 163.906 318.909 164.207C319.019 164.599 319.08 165.004 319.089 165.411C319.089 165.565 319.089 165.736 319.089 165.924C319.089 166.112 319.089 166.308 319.089 166.513C319.089 166.718 319.089 166.914 319.089 167.102C319.089 167.29 319.089 167.469 319.089 167.632C319.07 168.102 319.013 168.571 318.918 169.032C318.819 169.485 318.673 169.925 318.482 170.347C318.288 170.755 318.044 171.136 317.756 171.483C317.464 171.823 317.118 172.111 316.732 172.337C316.424 172.54 316.066 172.655 315.698 172.67C315.565 172.673 315.433 172.649 315.31 172.599C315.186 172.549 315.074 172.474 314.981 172.38C314.758 172.141 314.605 171.846 314.537 171.526C314.435 171.132 314.378 170.728 314.366 170.322C314.366 170.168 314.366 169.997 314.366 169.809C314.366 169.621 314.366 169.425 314.366 169.22C314.366 169.015 314.366 168.827 314.366 168.631C314.366 168.434 314.357 168.298 314.366 168.144ZM318.004 166.103C318.023 165.894 317.999 165.683 317.935 165.484C317.87 165.284 317.766 165.1 317.628 164.942C317.406 164.745 317.099 164.754 316.732 164.942C316.333 165.176 316.017 165.528 315.826 165.949C315.584 166.447 315.456 166.993 315.451 167.546C315.451 167.862 315.451 168.212 315.451 168.597C315.451 168.981 315.451 169.323 315.451 169.63C315.432 169.839 315.455 170.05 315.52 170.249C315.584 170.449 315.689 170.633 315.826 170.791C316.048 170.979 316.356 170.962 316.732 170.749C317.124 170.513 317.436 170.165 317.628 169.75C317.87 169.255 317.999 168.712 318.004 168.161C318.004 167.837 318.004 167.486 318.004 167.102C318.004 166.718 318.013 166.41 318.004 166.103Z" fill="#CCE0FF"/>
<path d="M322.812 160.023C323.487 159.638 323.991 159.578 324.341 159.86C324.548 160.089 324.702 160.361 324.792 160.656C324.883 160.951 324.906 161.263 324.862 161.568C324.869 162.148 324.779 162.726 324.597 163.276C324.423 163.789 324.154 164.265 323.803 164.677L324.913 167.094C324.916 167.133 324.916 167.173 324.913 167.213C324.913 167.29 324.896 167.366 324.862 167.435C324.838 167.497 324.796 167.551 324.742 167.589L324.059 167.982C323.948 168.042 323.871 168.05 323.82 167.982C323.775 167.937 323.737 167.885 323.709 167.828L322.658 165.548L321.591 166.163V169.049C321.591 169.144 321.571 169.237 321.531 169.323C321.496 169.397 321.443 169.461 321.377 169.51L320.728 169.886C320.707 169.904 320.679 169.914 320.651 169.914C320.623 169.914 320.596 169.904 320.574 169.886C320.55 169.86 320.531 169.829 320.52 169.795C320.508 169.761 320.503 169.725 320.506 169.69V161.705C320.509 161.61 320.532 161.517 320.574 161.432C320.605 161.354 320.658 161.289 320.728 161.244L322.812 160.023ZM321.608 164.617L322.812 163.968C323.106 163.804 323.358 163.573 323.546 163.293C323.744 162.964 323.839 162.584 323.82 162.2C323.82 161.739 323.726 161.483 323.546 161.432C323.286 161.396 323.023 161.464 322.812 161.619L321.651 162.286L321.608 164.617Z" fill="#CCE0FF"/>
<path d="M328.534 156.735C328.844 156.532 329.199 156.409 329.567 156.376C329.834 156.366 330.095 156.461 330.293 156.641C330.519 156.879 330.676 157.174 330.746 157.495C330.86 157.918 330.924 158.354 330.934 158.793C330.934 159.391 330.934 160.005 330.934 160.629C330.916 161.137 330.853 161.643 330.746 162.14C330.648 162.603 330.499 163.052 330.302 163.481C330.111 163.875 329.87 164.243 329.584 164.574C329.299 164.914 328.958 165.203 328.576 165.428L326.553 166.53C326.531 166.548 326.504 166.558 326.476 166.558C326.448 166.558 326.42 166.548 326.399 166.53C326.374 166.504 326.355 166.473 326.343 166.439C326.331 166.405 326.327 166.369 326.33 166.334V158.349C326.333 158.254 326.356 158.16 326.399 158.075C326.429 157.998 326.483 157.932 326.553 157.888L328.534 156.735ZM329.849 159.391C329.845 159.159 329.811 158.93 329.746 158.707C329.707 158.539 329.621 158.385 329.499 158.263C329.445 158.21 329.381 158.168 329.311 158.14C329.24 158.112 329.165 158.099 329.089 158.101C328.875 158.115 328.669 158.186 328.491 158.306L327.415 158.921V164.489L328.534 163.848C328.75 163.722 328.944 163.561 329.106 163.37C329.265 163.183 329.4 162.976 329.507 162.755C329.614 162.52 329.694 162.274 329.746 162.021C329.806 161.757 329.84 161.488 329.849 161.218C329.875 160.595 329.875 159.988 329.849 159.391Z" fill="#CCE0FF"/>
<path d="M211.263 32.7851C212.737 33.1131 214.157 33.6478 215.481 34.3735C216.749 35.0552 217.886 35.9575 218.837 37.038C219.748 38.0773 220.424 39.3007 220.819 40.6248C221.222 42.0421 221.251 43.5396 220.904 44.9716C220.675 46.107 220.225 47.1864 219.58 48.1485C218.992 48.9712 218.29 49.7072 217.497 50.3348C216.717 50.9398 215.886 51.4743 215.012 51.9317L212.552 53.2384C211.811 53.6248 211.108 54.0794 210.451 54.5962C209.857 55.0519 209.402 55.664 209.136 56.364C209.006 56.6838 208.79 56.9615 208.513 57.1668C208.381 57.2688 208.228 57.3395 208.066 57.3736C207.903 57.4076 207.734 57.4041 207.573 57.3632L203.952 56.5604C203.778 56.5239 203.613 56.4529 203.466 56.3517C203.319 56.2506 203.194 56.1212 203.098 55.9712C202.996 55.8317 202.928 55.6701 202.9 55.4995C202.872 55.3289 202.884 55.154 202.936 54.9891C203.228 53.8677 203.742 52.8163 204.448 51.8976C205.092 51.0849 205.838 50.3587 206.668 49.737C207.477 49.1451 208.334 48.6223 209.23 48.1741C210.084 47.7386 210.938 47.3201 211.681 46.9017C212.372 46.5302 213.022 46.0865 213.62 45.578C214.144 45.139 214.507 44.5382 214.653 43.87C214.789 43.2898 214.782 42.6853 214.633 42.1082C214.485 41.5312 214.198 40.9987 213.799 40.5565C212.8 39.4662 211.465 38.7416 210.007 38.4983C207.308 37.9005 205.031 38.8086 203.175 41.2226C202.996 41.4861 202.77 41.7147 202.509 41.8972C202.214 42.0434 201.874 42.0679 201.561 41.9656L197.71 41.1116C197.435 41.0585 197.192 40.8988 197.035 40.6675C196.951 40.5439 196.894 40.4036 196.869 40.2563C196.844 40.1089 196.851 39.9579 196.89 39.8135C197.217 38.6268 197.826 37.5369 198.666 36.6366C199.613 35.5925 200.738 34.7251 201.988 34.0746C203.355 33.3593 204.829 32.8691 206.352 32.6228C207.984 32.3574 209.652 32.4125 211.263 32.7851ZM207.172 60.2668C207.511 60.3463 207.805 60.5553 207.992 60.8489C208.178 61.1426 208.243 61.4976 208.171 61.8381L207.249 66.0227C207.217 66.1979 207.15 66.3646 207.05 66.5118C206.949 66.6589 206.819 66.7833 206.668 66.8767C206.525 66.9753 206.363 67.0429 206.193 67.0753C206.022 67.1076 205.846 67.104 205.677 67.0646L201.544 66.1167C201.368 66.087 201.201 66.0198 201.054 65.9196C200.906 65.8194 200.782 65.6885 200.69 65.536C200.594 65.3917 200.529 65.2295 200.498 65.0591C200.467 64.8888 200.472 64.714 200.511 64.5453L201.442 60.3607C201.521 60.0215 201.73 59.7266 202.023 59.5385C202.316 59.3504 202.671 59.2839 203.013 59.353L207.172 60.2668Z" fill="#2B5FB5"/>
<path d="M215.823 72.8462C216.851 72.6813 217.898 72.6611 218.931 72.7864C219.919 72.9038 220.879 73.1928 221.767 73.6404C222.613 74.0792 223.357 74.6901 223.953 75.4338C224.489 76.1617 224.866 76.9938 225.06 77.8763C225.254 78.7589 225.261 79.6724 225.08 80.5578C224.918 81.2386 224.656 81.8918 224.303 82.4964C223.963 83.0845 223.569 83.6393 223.125 84.1532C222.689 84.6656 222.271 85.1524 221.886 85.6221C221.51 86.0596 221.176 86.5314 220.887 87.0312C220.617 87.4692 220.48 87.9768 220.494 88.4915C220.487 88.732 220.419 88.9669 220.298 89.1747C220.236 89.2705 220.155 89.352 220.059 89.4138C219.963 89.4757 219.855 89.5164 219.743 89.5334L217.181 89.9433C217.061 89.965 216.938 89.9626 216.819 89.9362C216.701 89.9098 216.588 89.86 216.489 89.7896C216.388 89.7262 216.304 89.6396 216.243 89.5372C216.182 89.4347 216.146 89.3193 216.139 89.2003C216.032 88.4056 216.09 87.5973 216.31 86.8262C216.51 86.1435 216.797 85.4892 217.164 84.8791C217.523 84.2935 217.934 83.7419 218.393 83.2309C218.846 82.7185 219.247 82.2402 219.64 81.7791C219.991 81.3672 220.295 80.9175 220.546 80.4383C220.768 80.0258 220.849 79.5518 220.776 79.089C220.712 78.6815 220.55 78.2957 220.305 77.9641C220.06 77.6325 219.738 77.3651 219.367 77.1845C218.449 76.741 217.41 76.6149 216.412 76.8259C215.509 76.9579 214.669 77.3661 214.007 77.9945C213.345 78.6229 212.893 79.4407 212.714 80.3358C212.664 80.5511 212.578 80.7562 212.458 80.9421C212.306 81.1042 212.099 81.2046 211.877 81.224L209.179 81.6595C208.989 81.6958 208.793 81.6559 208.632 81.5485C208.55 81.492 208.481 81.4185 208.429 81.3331C208.378 81.2477 208.345 81.1522 208.333 81.0532C208.253 80.2057 208.385 79.3516 208.718 78.568C209.055 77.6562 209.553 76.8118 210.186 76.0743C210.881 75.2668 211.7 74.575 212.612 74.0247C213.596 73.4279 214.686 73.0277 215.823 72.8462ZM220.23 91.5061C220.347 91.4875 220.467 91.4922 220.583 91.52C220.699 91.5479 220.808 91.5983 220.904 91.6684C221.005 91.7345 221.09 91.8213 221.155 91.9228C221.22 92.0244 221.262 92.1385 221.28 92.2576L221.758 95.1869C221.795 95.4245 221.737 95.6671 221.596 95.8621C221.456 96.0572 221.244 96.1889 221.007 96.2287L218.146 96.6984C217.908 96.7352 217.666 96.6769 217.471 96.5362C217.372 96.4691 217.288 96.3821 217.225 96.2805C217.162 96.179 217.12 96.0654 217.104 95.9469L216.626 93.0177C216.604 92.9001 216.607 92.7794 216.635 92.6631C216.663 92.5469 216.715 92.4379 216.788 92.343C216.855 92.244 216.942 92.1601 217.044 92.0968C217.145 92.0336 217.259 91.9923 217.377 91.9758L220.23 91.5061Z" fill="#2B5FB5"/>
<g opacity="0.2">
<path d="M215.823 72.8462C216.851 72.6813 217.898 72.6611 218.931 72.7864C219.919 72.9038 220.879 73.1928 221.767 73.6404C222.613 74.0792 223.357 74.6901 223.953 75.4338C224.489 76.1617 224.866 76.9938 225.06 77.8763C225.254 78.7589 225.261 79.6724 225.08 80.5578C224.918 81.2386 224.656 81.8918 224.303 82.4964C223.963 83.0845 223.569 83.6393 223.125 84.1532C222.689 84.6656 222.271 85.1524 221.886 85.6221C221.51 86.0596 221.176 86.5314 220.887 87.0312C220.617 87.4692 220.48 87.9768 220.494 88.4915C220.487 88.732 220.419 88.9669 220.298 89.1747C220.236 89.2705 220.155 89.352 220.059 89.4138C219.963 89.4757 219.855 89.5164 219.743 89.5334L217.181 89.9433C217.061 89.965 216.938 89.9626 216.819 89.9362C216.701 89.9098 216.588 89.86 216.489 89.7896C216.388 89.7262 216.304 89.6396 216.243 89.5372C216.182 89.4347 216.146 89.3193 216.139 89.2003C216.032 88.4056 216.09 87.5973 216.31 86.8262C216.51 86.1435 216.797 85.4892 217.164 84.8791C217.523 84.2935 217.934 83.7419 218.393 83.2309C218.846 82.7185 219.247 82.2402 219.64 81.7791C219.991 81.3672 220.295 80.9175 220.546 80.4383C220.768 80.0258 220.849 79.5518 220.776 79.089C220.712 78.6815 220.55 78.2957 220.305 77.9641C220.06 77.6325 219.738 77.3651 219.367 77.1845C218.449 76.741 217.41 76.6149 216.412 76.8259C215.509 76.9579 214.669 77.3661 214.007 77.9945C213.345 78.6229 212.893 79.4407 212.714 80.3358C212.664 80.5511 212.578 80.7562 212.458 80.9421C212.306 81.1042 212.099 81.2046 211.877 81.224L209.179 81.6595C208.989 81.6958 208.793 81.6559 208.632 81.5485C208.55 81.492 208.481 81.4185 208.429 81.3331C208.378 81.2477 208.345 81.1522 208.333 81.0532C208.253 80.2057 208.385 79.3516 208.718 78.568C209.055 77.6562 209.553 76.8118 210.186 76.0743C210.881 75.2668 211.7 74.575 212.612 74.0247C213.596 73.4279 214.686 73.0277 215.823 72.8462ZM220.23 91.5061C220.347 91.4875 220.467 91.4922 220.583 91.52C220.699 91.5479 220.808 91.5983 220.904 91.6684C221.005 91.7345 221.09 91.8213 221.155 91.9228C221.22 92.0244 221.262 92.1385 221.28 92.2576L221.758 95.1869C221.795 95.4245 221.737 95.6671 221.596 95.8621C221.456 96.0572 221.244 96.1889 221.007 96.2287L218.146 96.6984C217.908 96.7352 217.666 96.6769 217.471 96.5362C217.372 96.4691 217.288 96.3821 217.225 96.2805C217.162 96.179 217.12 96.0654 217.104 95.9469L216.626 93.0177C216.604 92.9001 216.607 92.7794 216.635 92.6631C216.663 92.5469 216.715 92.4379 216.788 92.343C216.855 92.244 216.942 92.1601 217.044 92.0968C217.145 92.0336 217.259 91.9923 217.377 91.9758L220.23 91.5061Z" fill="black"/>
</g>
<path d="M239.974 77.4493C240.09 77.5302 240.189 77.6341 240.264 77.7545C240.339 77.8749 240.388 78.0093 240.41 78.1495C240.437 78.2885 240.435 78.4315 240.404 78.5697C240.373 78.7079 240.314 78.8381 240.23 78.9523L238.198 81.8132C238.117 81.9296 238.013 82.0283 237.892 82.1032C237.772 82.1781 237.638 82.2276 237.497 82.2487C237.358 82.2759 237.215 82.274 237.077 82.2431C236.939 82.2123 236.809 82.1531 236.695 82.0694L233.894 80.0796C233.777 79.9997 233.678 79.896 233.605 79.7753C233.531 79.6545 233.484 79.5196 233.467 79.3793C233.439 79.2404 233.441 79.0973 233.472 78.9591C233.503 78.821 233.562 78.6907 233.646 78.5765L235.704 75.7156C235.87 75.4837 236.122 75.3268 236.403 75.2788C236.684 75.2309 236.973 75.2958 237.207 75.4594L239.974 77.4493ZM251.793 58.072C252.815 58.7878 253.724 59.6512 254.492 60.634C255.241 61.5482 255.819 62.5895 256.2 63.7084C256.554 64.7806 256.674 65.9165 256.55 67.039C256.405 68.236 255.952 69.3748 255.235 70.344C254.702 71.1276 254.017 71.7956 253.22 72.3082C252.518 72.748 251.755 73.0818 250.956 73.2988C250.178 73.5023 249.384 73.6394 248.582 73.7087L246.311 73.9137C245.63 73.9681 244.955 74.0853 244.295 74.2638C243.687 74.402 243.13 74.71 242.69 75.152C242.491 75.354 242.239 75.496 241.964 75.5619C241.833 75.5995 241.695 75.6052 241.561 75.5784C241.427 75.5517 241.302 75.4933 241.195 75.4082L238.719 73.649C238.482 73.4799 238.32 73.2259 238.266 72.9401C238.234 72.8016 238.235 72.6575 238.269 72.5196C238.303 72.3816 238.37 72.2536 238.462 72.1459C239.041 71.3952 239.764 70.768 240.589 70.3013C241.332 69.8957 242.124 69.5885 242.946 69.3875C243.739 69.195 244.548 69.0721 245.363 69.0203C246.166 68.969 246.917 68.9093 247.617 68.8409C248.258 68.7843 248.891 68.6583 249.505 68.4652C250.041 68.2864 250.504 67.9351 250.82 67.466C251.105 67.0699 251.291 66.6107 251.361 66.1274C251.431 65.6442 251.383 65.1513 251.221 64.6905C250.817 63.5523 250.045 62.5815 249.026 61.9321C247.182 60.6169 245.169 60.5742 242.989 61.804C242.769 61.9437 242.526 62.0421 242.271 62.0943C242.139 62.1036 242.005 62.0864 241.879 62.0439C241.753 62.0014 241.637 61.9344 241.537 61.8467L238.907 59.9764C238.811 59.9132 238.73 59.8315 238.667 59.7361C238.604 59.6408 238.56 59.5337 238.539 59.4213C238.519 59.3051 238.523 59.1859 238.551 59.0713C238.579 58.9566 238.63 58.849 238.702 58.7552C239.322 57.96 240.129 57.3295 241.05 56.9191C242.097 56.4449 243.218 56.1559 244.364 56.0651C245.624 55.9598 246.893 56.0607 248.121 56.364C249.447 56.6834 250.695 57.264 251.793 58.072Z" fill="#2B5FB5"/>
<g opacity="0.6">
<path d="M239.974 77.4493C240.09 77.5302 240.189 77.6341 240.264 77.7545C240.339 77.8749 240.388 78.0093 240.41 78.1495C240.437 78.2885 240.435 78.4315 240.404 78.5697C240.373 78.7079 240.314 78.8381 240.23 78.9523L238.198 81.8132C238.117 81.9296 238.013 82.0283 237.892 82.1032C237.772 82.1781 237.638 82.2276 237.497 82.2487C237.358 82.2759 237.215 82.274 237.077 82.2431C236.939 82.2123 236.809 82.1531 236.695 82.0694L233.894 80.0796C233.777 79.9997 233.678 79.896 233.605 79.7753C233.531 79.6545 233.484 79.5196 233.467 79.3793C233.439 79.2404 233.441 79.0973 233.472 78.9591C233.503 78.821 233.562 78.6907 233.646 78.5765L235.704 75.7156C235.87 75.4837 236.122 75.3268 236.403 75.2788C236.684 75.2309 236.973 75.2958 237.207 75.4594L239.974 77.4493ZM251.793 58.072C252.815 58.7878 253.724 59.6512 254.492 60.634C255.241 61.5482 255.819 62.5895 256.2 63.7084C256.554 64.7806 256.674 65.9165 256.55 67.039C256.405 68.236 255.952 69.3748 255.235 70.344C254.702 71.1276 254.017 71.7956 253.22 72.3082C252.518 72.748 251.755 73.0818 250.956 73.2988C250.178 73.5023 249.384 73.6394 248.582 73.7087L246.311 73.9137C245.63 73.9681 244.955 74.0853 244.295 74.2638C243.687 74.402 243.13 74.71 242.69 75.152C242.491 75.354 242.239 75.496 241.964 75.5619C241.833 75.5995 241.695 75.6052 241.561 75.5784C241.427 75.5517 241.302 75.4933 241.195 75.4082L238.719 73.649C238.482 73.4799 238.32 73.2259 238.266 72.9401C238.234 72.8016 238.235 72.6575 238.269 72.5196C238.303 72.3816 238.37 72.2536 238.462 72.1459C239.041 71.3952 239.764 70.768 240.589 70.3013C241.332 69.8957 242.124 69.5885 242.946 69.3875C243.739 69.195 244.548 69.0721 245.363 69.0203C246.166 68.969 246.917 68.9093 247.617 68.8409C248.258 68.7843 248.891 68.6583 249.505 68.4652C250.041 68.2864 250.504 67.9351 250.82 67.466C251.105 67.0699 251.291 66.6107 251.361 66.1274C251.431 65.6442 251.383 65.1513 251.221 64.6905C250.817 63.5523 250.045 62.5815 249.026 61.9321C247.182 60.6169 245.169 60.5742 242.989 61.804C242.769 61.9437 242.526 62.0421 242.271 62.0943C242.139 62.1036 242.005 62.0864 241.879 62.0439C241.753 62.0014 241.637 61.9344 241.537 61.8467L238.907 59.9764C238.811 59.9132 238.73 59.8315 238.667 59.7361C238.604 59.6408 238.56 59.5337 238.539 59.4213C238.519 59.3051 238.523 59.1859 238.551 59.0713C238.579 58.9566 238.63 58.849 238.702 58.7552C239.322 57.96 240.129 57.3295 241.05 56.9191C242.097 56.4449 243.218 56.1559 244.364 56.0651C245.624 55.9598 246.893 56.0607 248.121 56.364C249.447 56.6834 250.695 57.264 251.793 58.072Z" fill="#99C0FF"/>
</g>
<path d="M176.377 153.045H146.034V79.533C146.034 73.1481 148.57 67.0248 153.085 62.51C157.6 57.9952 163.723 55.4588 170.108 55.4588H172.909C179.294 55.4588 185.418 57.9952 189.932 62.51C194.447 67.0248 196.984 73.1481 196.984 79.533V132.481C196.972 137.939 194.796 143.169 190.933 147.025C187.07 150.88 181.835 153.045 176.377 153.045Z" fill="#263238"/>
<path d="M143.079 330.02C142.542 333.066 142.257 336.15 142.225 339.243C142.114 344.845 141.089 346.835 140.953 351.43C140.79 356.682 141.704 358.646 143.831 361.601C145.957 364.556 151.517 367.229 153.925 362.241C156.333 357.254 155.983 353.983 155.223 348.833C154.446 343.504 154.369 340.558 153.891 336.502C153.498 332.923 153.037 330.199 153.037 330.199L143.079 330.02Z" fill="#263238"/>
<path d="M158.981 292.811L140.534 292.478C140.807 304.793 142.763 318.465 143.096 330.054C143.165 332.232 143.045 346.955 143.865 351.404C145.103 358.133 153.079 357.22 153.506 353.197C153.933 349.175 152.994 331.984 153.02 330.208C152.943 322.795 156.436 310.284 158.238 296.979C158.314 296.338 158.895 293.451 158.981 292.811Z" fill="#FFA8A7"/>
<path d="M182.679 320.438C182.679 320.438 181.953 320.045 181.825 320.822C181.646 321.745 181.373 323.649 180.971 325.169C180.442 327.278 179.998 330.754 180.314 332.479C180.63 334.204 184.643 336.408 187.248 337.21C190.458 338.201 193.386 339.943 195.788 342.292C198.35 344.717 203.927 347.006 207.744 346.98C212.228 346.98 215.353 345.486 216.831 343.086C218.308 340.686 215.481 340.396 210.357 337.108L206.386 334.546C198.265 329.243 195.284 326.407 193.004 321.104L182.679 320.438Z" fill="#263238"/>
<path d="M193.072 317.15C192.936 313.341 195.566 280.966 195.566 280.966L178.05 288.951C181.8 311.343 182.602 316.629 182.662 320.293C182.585 320.6 182.554 320.916 182.568 321.232C182.568 325.579 187.496 327.927 191.322 330.831C194.574 333.379 198.04 335.642 201.681 337.595C204.465 338.987 210.118 339.115 210.818 337.33C206.156 333.769 199.375 328.44 195.668 324.375C193.858 322.462 193.209 320.967 193.072 317.15Z" fill="#FFA8A7"/>
<path d="M148.092 172.645C141.363 187.41 141.363 198.837 142.481 217.685C143.472 234.978 145.12 250.222 145.12 250.222C144.864 253.288 140.603 259.274 140.047 272.836C139.535 285.509 140.901 301.624 140.901 301.624C140.901 301.624 150.475 306.928 157.554 301.573C157.554 301.573 164.386 268.959 166.385 253.091C168.093 239.248 171.167 221.562 171.167 221.562L177.632 252.998C176.237 257.458 175.225 262.029 174.609 266.662C173.704 275.996 178.93 294.323 178.93 294.323C178.93 294.323 188.819 297.269 194.857 291.914C194.857 291.914 197.112 262.118 197.957 250.88C199.084 235.824 196.71 195.071 194.857 173.49L148.092 172.645Z" fill="#2B5FB5"/>
<path d="M171.184 221.536L173.84 197.846C173.84 197.846 185.745 196.258 191.142 191.185C189.597 193.602 187.54 195.649 185.115 197.181C182.69 198.713 179.957 199.692 177.111 200.05L173.268 222.091L177.632 252.998L171.184 221.536Z" fill="#263238"/>
<path d="M219.393 166.82C219.884 162.497 220.101 158.147 220.042 153.797C219.777 150.039 219.102 149.424 213.85 142.772C206.762 133.779 200.707 125.692 194.302 117.656C189.725 111.917 184.908 111.037 180.228 111.293C176.949 111.473 183.354 127.246 186.573 136.58L204.96 156.376C205.53 157.157 205.791 158.121 205.694 159.083L204.584 175.924L210.093 183.303C210.093 183.303 218.436 176.112 219.393 166.82Z" fill="#FFA8A7"/>
<path d="M162.499 111.806C158.938 112.053 152.465 112.66 152.465 112.66C148.733 114.743 147.785 116.46 147.093 121.413C146.794 123.531 148.519 129.159 149.997 137.161L152.798 151.995L152.49 159.356C151.038 163.848 147.751 169.425 144.847 177.649C159.109 185.608 171.065 185.907 181.911 184.481C190.177 183.414 194.558 181.415 196.019 179.434C195.711 171.312 195.165 166.291 194.994 157.802C194.934 154.241 195.148 150.637 195.293 146.538C200.835 141.978 200.903 134.394 197.855 129.458C190.826 118.074 183.986 110.909 179.46 111.276L162.499 111.806Z" fill="#2B5FB5"/>
<path opacity="0.6" d="M162.499 111.806C158.938 112.053 152.465 112.66 152.465 112.66C148.733 114.743 147.785 116.46 147.093 121.413C146.794 123.531 148.519 129.159 149.997 137.161L152.798 151.995L152.49 159.356C151.038 163.848 147.751 169.425 144.847 177.649C159.109 185.608 171.065 185.907 181.911 184.481C190.177 183.414 194.558 181.415 196.019 179.434C195.711 171.312 195.165 166.291 194.994 157.802C194.934 154.241 195.148 150.637 195.293 146.538C200.835 141.978 200.903 134.394 197.855 129.458C190.826 118.074 183.986 110.909 179.46 111.276L162.499 111.806Z" fill="#99C0FF"/>
<path opacity="0.1" d="M184.25 146.649C184.25 146.649 177.743 151.705 170.305 149.066C168.216 148.408 166.332 147.221 164.836 145.622C163.34 144.023 162.282 142.064 161.765 139.936C161.765 139.936 160.979 148.434 170.347 151.329C179.425 154.121 184.25 146.649 184.25 146.649Z" fill="black"/>
<path d="M193.081 88.483C192.799 100.815 188.811 103.855 186.795 104.709C184.78 105.563 180.92 105.051 177.162 104.427V111.874C177.162 111.874 181.501 116.417 181.176 119.808C180.852 123.198 174.344 123.582 169.493 120.26C166.817 118.422 164.396 116.236 162.294 113.761C161.891 113.284 161.67 112.679 161.671 112.053V94.6318C161.671 94.6318 159.613 96.8095 155.975 94.3158C155.19 93.8148 154.517 93.156 154.001 92.3812C153.484 91.6064 153.134 90.7326 152.974 89.8154C152.813 88.8981 152.845 87.9575 153.068 87.0533C153.29 86.149 153.699 85.301 154.267 84.5631C155.855 82.6928 159.886 82.5647 161.816 85.4171C162.909 87.5436 163.054 89.6871 164.275 88.8331C167.521 86.4931 165.778 81.1471 169.698 78.5851C170.985 77.9137 172.321 77.3427 173.695 76.8771C180.689 74.4603 186.753 72.4278 188.213 67.6454C190.963 69.2167 193.422 73.9393 193.081 88.483Z" fill="#FFA8A7"/>
<path d="M179.289 99.4995C180.185 99.4995 180.911 98.7731 180.911 97.8769C180.911 96.9808 180.185 96.2543 179.289 96.2543C178.393 96.2543 177.666 96.9808 177.666 97.8769C177.666 98.7731 178.393 99.4995 179.289 99.4995Z" fill="#B16668"/>
<path d="M178.213 86.6127C178.212 86.9468 178.114 87.2734 177.93 87.5521C177.746 87.8309 177.484 88.0495 177.177 88.1809C176.869 88.3123 176.53 88.3507 176.202 88.2915C175.873 88.2322 175.569 88.0778 175.327 87.8474C175.085 87.617 174.916 87.3207 174.841 86.9952C174.765 86.6697 174.787 86.3293 174.903 86.0161C175.02 85.7029 175.225 85.4307 175.495 85.2331C175.764 85.0356 176.086 84.9214 176.419 84.9047C176.651 84.8931 176.882 84.9287 177.099 85.0094C177.316 85.09 177.515 85.214 177.683 85.3737C177.85 85.5335 177.984 85.7257 178.075 85.9387C178.166 86.1517 178.213 86.381 178.213 86.6127Z" fill="#263238"/>
<path d="M191.151 86.7835C191.168 86.9924 191.144 87.2028 191.079 87.4022C191.015 87.6017 190.911 87.7863 190.774 87.9453C190.638 88.1043 190.471 88.2344 190.283 88.3282C190.095 88.422 189.891 88.4775 189.682 88.4915C189.471 88.511 189.258 88.4854 189.058 88.4163C188.857 88.3472 188.674 88.2363 188.519 88.091C188.365 87.9456 188.244 87.769 188.163 87.5731C188.082 87.3771 188.044 87.1662 188.051 86.9543C188.029 86.7438 188.05 86.531 188.113 86.329C188.176 86.127 188.28 85.94 188.418 85.7795C188.556 85.619 188.725 85.4883 188.915 85.3955C189.105 85.3027 189.312 85.2498 189.524 85.2399C189.735 85.23 189.947 85.2633 190.145 85.338C190.343 85.4126 190.523 85.5268 190.676 85.6738C190.828 85.8207 190.949 85.9972 191.03 86.1924C191.112 86.3876 191.153 86.5975 191.151 86.8091V86.7835Z" fill="#263238"/>
<path d="M176.018 91.0023C174.545 91.0023 173.132 90.4177 172.09 89.3769C171.047 88.3362 170.461 86.9243 170.458 85.4513C170.458 81.6766 174.353 81.6766 176.018 81.6766C177.683 81.6766 181.569 81.6766 181.569 85.4513C181.567 86.9228 180.981 88.3334 179.941 89.3739C178.9 90.4144 177.489 91 176.018 91.0023ZM176.018 82.5477C172.602 82.5477 171.338 83.4017 171.338 85.4513C171.338 86.697 171.833 87.8917 172.714 88.7725C173.595 89.6534 174.789 90.1483 176.035 90.1483C177.281 90.1483 178.475 89.6534 179.356 88.7725C180.237 87.8917 180.732 86.697 180.732 85.4513C180.698 83.359 179.383 82.5477 176.018 82.5477Z" fill="#2B5FB5"/>
<path d="M190.117 91.0023C188.644 91.0023 187.232 90.4177 186.189 89.3769C185.147 88.3362 184.56 86.9243 184.558 85.4513C184.558 81.6766 188.452 81.6766 190.117 81.6766C191.783 81.6766 195.668 81.6766 195.668 85.4513C195.666 86.9228 195.081 88.3334 194.04 89.3739C193 90.4144 191.589 91 190.117 91.0023ZM190.117 82.5477C186.753 82.5477 185.438 83.4017 185.438 85.4513C185.438 86.697 185.932 87.8917 186.813 88.7725C187.694 89.6534 188.889 90.1483 190.135 90.1483C191.38 90.1483 192.575 89.6534 193.456 88.7725C194.337 87.8917 194.832 86.697 194.832 85.4513C194.797 83.359 193.482 82.5477 190.117 82.5477Z" fill="#2B5FB5"/>
<path d="M182.431 83.6578L182.705 94.0339L188.162 92.343L182.431 83.6578Z" fill="#F28F8F"/>
<path d="M177.154 104.453C173.191 103.932 165.035 101.592 163.763 98.3637C164.275 99.9952 165.273 101.431 166.624 102.48C169.058 104.572 177.154 106.921 177.154 106.921V104.453Z" fill="#F28F8F"/>
<path d="M177.35 78.6193L173.729 80.8311C173.444 80.334 173.361 79.7461 173.498 79.1895C173.634 78.6329 173.98 78.1503 174.464 77.8421C174.703 77.6972 174.968 77.6021 175.245 77.5628C175.522 77.5235 175.803 77.5407 176.073 77.6133C176.343 77.6859 176.595 77.8125 176.815 77.9854C177.034 78.1583 177.216 78.374 177.35 78.6193Z" fill="#263238"/>
<path d="M192.082 81.0788L188.051 79.6697C188.129 79.4025 188.261 79.1542 188.438 78.9399C188.616 78.7255 188.835 78.5498 189.083 78.4234C189.331 78.297 189.602 78.2227 189.88 78.205C190.158 78.1873 190.436 78.2265 190.698 78.3204C191.239 78.5146 191.684 78.9094 191.942 79.4229C192.199 79.9364 192.249 80.5293 192.082 81.0788Z" fill="#263238"/>
<path d="M181.133 85.8953C181.075 85.8954 181.018 85.8838 180.965 85.8614C180.911 85.839 180.863 85.8061 180.822 85.7648C180.782 85.7234 180.75 85.6744 180.729 85.6206C180.707 85.5667 180.697 85.5092 180.698 85.4513C180.698 84.7424 182.098 84.2813 183.362 84.2813C184.626 84.2813 185.438 84.7424 185.438 85.4513C185.411 85.5441 185.355 85.6257 185.278 85.6838C185.201 85.7419 185.107 85.7734 185.011 85.7734C184.914 85.7734 184.82 85.7419 184.743 85.6838C184.666 85.6257 184.61 85.5441 184.584 85.4513C184.584 85.3659 184.148 85.1524 183.388 85.1524C182.776 85.1393 182.167 85.2437 181.595 85.4598C181.595 85.5192 181.583 85.578 181.559 85.6326C181.536 85.6872 181.501 85.7364 181.458 85.7772C181.415 85.818 181.364 85.8495 181.308 85.8698C181.252 85.8902 181.193 85.8988 181.133 85.8953Z" fill="#2B5FB5"/>
<path d="M170.911 85.5196H170.86L161.099 84.6656C160.642 84.2135 160.099 83.859 159.502 83.6237L170.962 84.6827C171.077 84.6976 171.182 84.7569 171.253 84.8478C171.325 84.9388 171.359 85.0542 171.347 85.1694C171.327 85.2696 171.272 85.3596 171.192 85.4236C171.113 85.4876 171.013 85.5215 170.911 85.5196Z" fill="#2B5FB5"/>
<path d="M130.833 95.6993C134.027 91.4293 136.204 88.2097 139.117 84.5973C140.773 82.522 141.832 81.0361 143.387 78.9096C144.48 77.4407 145.095 76.2024 146.341 75.7498C147.688 75.1978 148.902 74.3652 149.903 73.3074C150.517 72.6273 151.088 71.9084 151.611 71.1553C153.441 68.6916 155.615 66.503 158.067 64.6564C160.629 62.7263 163.49 61.2404 166.129 59.4043C167.7 58.3026 169.382 56.475 167.469 54.767C166.883 54.2729 166.181 53.9351 165.428 53.7849C160.774 52.7772 156.726 54.3742 152.174 55.5356C150.197 56.0291 148.263 56.6832 146.393 57.4913C145.472 57.8552 144.61 58.3499 143.831 58.9602C142.742 60.0582 141.849 61.3349 141.192 62.7349C139.202 66.2875 134.932 69.4644 131.943 72.274C128.45 75.5619 125.324 78.5766 121.336 82.1975C117.75 85.4683 114.24 88.4744 110.952 92.0441C108.227 94.9904 109.244 97.2962 109.602 98.099C111.823 102.659 114.308 104.299 117.288 107.126C122.412 112.019 140.133 126.102 146 130.756C147.26 131.746 148.25 133.039 148.878 134.514L150.005 137.118C156.7 138.348 161.167 128.296 155.624 116.195C154.707 114.238 153.304 112.548 151.551 111.285C144.548 106.186 130.833 95.6993 130.833 95.6993Z" fill="#FFA8A7"/>
<path d="M130.833 95.6992C128.702 98.3208 125.862 100.274 122.651 101.327C122.651 101.327 126.921 102.42 132.771 97.1681L130.833 95.6992Z" fill="#F28F8F"/>
<path d="M217.65 157.913L216.557 156.974C216.394 156.866 216.208 156.798 216.013 156.776C215.819 156.754 215.622 156.778 215.439 156.846L203.577 160.074C202.979 160.273 202.432 160.599 201.972 161.029C201.512 161.46 201.15 161.984 200.912 162.567L192.372 187.188C192.269 187.389 192.229 187.616 192.256 187.84C192.284 188.063 192.378 188.274 192.526 188.444L193.653 189.417C193.817 189.53 194.006 189.602 194.204 189.626C194.402 189.649 194.603 189.625 194.789 189.554L206.668 186.326C207.266 186.127 207.813 185.801 208.273 185.37C208.733 184.94 209.094 184.415 209.332 183.832C211.04 178.99 216.164 164.053 217.872 159.211C218.077 158.605 217.975 158.144 217.65 157.913Z" fill="#2B5FB5"/>
<path d="M193.491 188.136L202.031 163.515C202.268 162.933 202.629 162.409 203.089 161.98C203.55 161.55 204.097 161.227 204.695 161.03L216.549 157.802C217.65 157.503 218.257 158.135 217.864 159.211C216.156 164.053 211.032 178.99 209.324 183.832C209.086 184.415 208.724 184.94 208.264 185.37C207.804 185.801 207.257 186.127 206.659 186.326L194.806 189.588C193.713 189.844 193.124 189.212 193.491 188.136Z" fill="#2B5FB5"/>
<path d="M203.406 161.713C202.789 162.18 202.311 162.806 202.022 163.524L193.482 188.136C193.384 188.332 193.344 188.551 193.365 188.768C193.386 188.986 193.468 189.193 193.602 189.366L192.543 188.461C192.391 188.293 192.294 188.083 192.265 187.858C192.236 187.634 192.276 187.406 192.381 187.205L200.921 162.585C201.191 161.915 201.629 161.327 202.193 160.877L203.406 161.713Z" fill="#2B5FB5"/>
<path d="M214.397 169.135C213.543 171.637 210.579 173.311 205.677 174.472C200.775 175.634 198.068 180.835 198.845 182.414C199.622 183.994 207.548 185.472 210.716 185.019C213.884 184.566 217.061 179.989 218.026 178.571C218.991 177.154 220.101 167.264 219.085 165.907C218.069 164.549 215.925 164.762 215.925 164.762L214.397 169.135Z" fill="#F28F8F"/>
</svg>
