<svg width="566" height="378" viewBox="0 0 566 378" fill="none" xmlns="http://www.w3.org/2000/svg">
<path d="M165.938 92.4294L81.2642 149.171L164.668 274.072L249.342 217.331L165.938 92.4294Z" fill="#F5F5F5"/>
<path d="M205.586 211.423L204.628 217.38L162.533 211.302L163.491 205.345L205.586 211.423Z" fill="#E0E0E0"/>
<path d="M184.387 190.172L190.425 191.041L183.731 232.561L177.686 231.684L184.387 190.172Z" fill="#E0E0E0"/>
<path d="M145.651 137.403C145.711 137.486 137.229 143.285 126.701 150.331C116.173 157.376 107.593 163.031 107.533 162.941C107.472 162.85 115.955 157.059 126.482 150.005C137.01 142.952 145.553 137.312 145.651 137.403Z" fill="#E0E0E0"/>
<path d="M176.758 129.571C176.818 129.662 162.706 139.217 145.243 150.92C127.78 162.623 113.547 172.035 113.502 171.952C113.456 171.869 127.538 162.298 145.024 150.595C162.51 138.892 176.697 129.48 176.758 129.571Z" fill="#E0E0E0"/>
<path d="M182.999 138.915C183.059 139.006 168.947 148.569 151.484 160.272C134.021 171.975 119.788 181.387 119.743 181.296C119.698 181.206 133.795 171.65 151.265 159.939C168.736 148.229 182.939 138.824 182.999 138.915Z" fill="#E0E0E0"/>
<path d="M189.24 148.267C189.301 148.357 175.188 157.921 157.725 169.616C140.262 181.312 126.029 190.739 126.029 190.648C126.029 190.557 140.074 180.994 157.544 169.291C175.015 157.588 189.18 148.176 189.24 148.267Z" fill="#E0E0E0"/>
<path d="M195.459 157.618C195.519 157.709 181.407 167.265 163.944 178.968C146.481 190.671 132.248 200.083 132.21 199.992C132.172 199.902 146.277 190.346 163.763 178.643C181.248 166.94 195.459 157.528 195.459 157.618Z" fill="#E0E0E0"/>
<path d="M449.079 176.121L377.966 223.775L448.01 328.669L519.123 281.015L449.079 176.121Z" fill="#F5F5F5"/>
<path d="M482.383 276.076L481.575 281.081L446.219 275.978L447.034 270.973L482.383 276.076Z" fill="#E0E0E0"/>
<path d="M464.58 258.227L469.652 258.96L464.03 293.827L458.951 293.094L464.58 258.227Z" fill="#E0E0E0"/>
<path d="M432.016 213.948C432.077 214.039 424.96 218.915 416.116 224.834C407.271 230.754 400.056 235.486 399.996 235.418C399.936 235.35 407.06 230.459 415.897 224.532C424.734 218.605 431.956 213.819 432.016 213.948Z" fill="#E0E0E0"/>
<path d="M458.165 207.333C458.226 207.424 446.385 215.468 431.752 225.288C417.119 235.108 405.143 243.016 405.082 242.926C405.022 242.835 416.863 234.791 431.496 224.963C446.129 215.135 458.082 207.242 458.165 207.333Z" fill="#E0E0E0"/>
<path d="M463.411 215.18C463.471 215.271 451.63 223.315 436.997 233.143C422.364 242.971 410.388 250.864 410.327 250.773C410.267 250.682 422.07 242.676 436.741 232.848C451.411 223.02 463.365 215.097 463.411 215.18Z" fill="#E0E0E0"/>
<path d="M468.648 223.02C468.708 223.111 456.86 231.155 442.235 240.983C427.609 250.811 415.625 258.703 415.565 258.613C415.504 258.522 427.345 250.486 441.978 240.65C456.611 230.814 468.595 222.944 468.648 223.02Z" fill="#E0E0E0"/>
<path d="M473.931 230.89C473.991 230.981 462.15 239.017 447.517 248.845C432.884 258.673 420.908 266.566 420.847 266.482C420.787 266.399 432.628 258.348 447.261 248.52C461.894 238.692 473.833 230.799 473.931 230.89Z" fill="#E0E0E0"/>
<path d="M336.575 97.0246L258.982 55.4508L197.874 169.906L275.467 211.48L336.575 97.0246Z" fill="#F5F5F5"/>
<path d="M262.186 175.672L257.266 177.358L244.769 142.755L249.697 141.062L262.186 175.672Z" fill="#E0E0E0"/>
<path d="M269.733 150.845L271.529 155.812L237.222 167.583L235.426 162.616L269.733 150.845Z" fill="#E0E0E0"/>
<path d="M294.109 99.792C294.048 99.9054 286.185 95.8079 276.532 90.6444C266.88 85.481 259.115 81.1944 259.175 81.081C259.236 80.9676 267.107 85.0652 276.759 90.2286C286.411 95.3921 294.169 99.6711 294.109 99.792Z" fill="#E0E0E0"/>
<path d="M312.734 120.378C312.674 120.491 299.648 113.627 283.642 105.054C267.635 96.4808 254.715 89.4349 254.776 89.3215C254.836 89.2081 267.854 96.065 283.86 104.646C299.867 113.226 312.794 120.265 312.734 120.378Z" fill="#E0E0E0"/>
<path d="M308.161 128.943C308.1 129.057 295.075 122.2 279.068 113.619C263.062 105.039 250.142 98.0003 250.202 97.8869C250.263 97.7735 263.281 104.638 279.287 113.211C295.294 121.784 308.221 128.83 308.161 128.943Z" fill="#E0E0E0"/>
<path d="M303.587 137.509C303.527 137.622 290.501 130.765 274.495 122.192C258.488 113.619 245.568 106.596 245.629 106.46C245.689 106.324 258.707 113.203 274.713 121.776C290.72 130.349 303.647 137.395 303.587 137.509Z" fill="#E0E0E0"/>
<path d="M299.014 146.074C298.953 146.188 285.928 139.331 269.921 130.758C253.915 122.185 240.988 115.139 241.055 115.025C241.123 114.912 254.134 121.769 270.14 130.342C286.147 138.915 299.074 145.961 299.014 146.074Z" fill="#E0E0E0"/>
<path opacity="0.2" d="M299.414 0H297.467V33.2489H299.414V0Z" fill="#548CE8"/>
<path d="M252.987 73.4757H343.894C343.894 73.4757 335.502 33.264 297.754 33.264C264.179 33.264 252.987 73.4757 252.987 73.4757Z" fill="#2B5FB5"/>
<path d="M299.414 0H297.467V33.2489H299.414V0Z" fill="#2B5FB5"/>
<path d="M500.85 332.511C500.85 332.617 403.309 332.708 283.008 332.708C162.706 332.708 65.1504 332.64 65.1504 332.511C65.1504 332.383 162.676 332.315 283.008 332.315C403.339 332.315 500.85 332.398 500.85 332.511Z" fill="#263238"/>
<path d="M89.2695 285.163C90.5454 285.255 91.7897 285.604 92.9281 286.189C94.0665 286.773 95.0757 287.581 95.8954 288.565C97.5254 290.544 98.6795 292.872 99.2688 295.369C100.544 300.147 99.7593 305.794 98.4009 310.55C93.239 308.697 90.0468 303.179 88.5903 300.276C86.3263 295.694 84.9754 286.017 89.2468 285.156" fill="#2B5FB5"/>
<path d="M105.834 316.348C105.059 315.144 104.616 313.756 104.55 312.324C104.483 310.893 104.796 309.469 105.457 308.199C106.138 306.94 107.063 305.829 108.177 304.932C109.292 304.035 110.573 303.37 111.947 302.975C113.207 302.581 114.672 302.423 115.766 303.156C116.259 303.53 116.643 304.029 116.878 304.602C117.113 305.175 117.19 305.801 117.102 306.414C116.903 307.643 116.382 308.796 115.592 309.756C113.079 313.165 110.03 316 105.782 316.348" fill="#2B5FB5"/>
<path d="M106.408 332.322C106.296 332.001 106.218 331.669 106.174 331.332C106.038 330.621 105.857 329.707 105.638 328.611C104.961 325.609 104.772 322.517 105.08 319.455C105.436 316.378 106.605 313.453 108.468 310.981C109.037 310.241 109.694 309.574 110.423 308.992C110.621 308.835 110.827 308.689 111.042 308.554C111.11 308.497 111.186 308.451 111.268 308.418C110.313 309.235 109.441 310.144 108.664 311.132C106.9 313.606 105.789 316.488 105.434 319.508C104.951 323.031 105.548 326.259 105.895 328.58C106.076 329.737 106.227 330.674 106.31 331.325C106.369 331.654 106.402 331.988 106.408 332.322Z" fill="#263238"/>
<path d="M90.9297 292.443C91.0159 292.563 91.0868 292.692 91.141 292.829C91.2768 293.131 91.458 293.509 91.6693 293.986C92.1296 294.991 92.7711 296.45 93.5484 298.257C95.103 301.878 97.1859 306.913 99.3593 312.523C101.533 318.132 103.382 323.251 104.642 326.978C105.291 328.837 105.797 330.349 106.151 331.4C106.31 331.899 106.431 332.3 106.529 332.61C106.583 332.749 106.62 332.893 106.642 333.041C106.565 332.912 106.505 332.775 106.461 332.632C106.348 332.33 106.204 331.937 106.015 331.446L104.423 327.061C103.072 323.364 101.186 318.253 99.0197 312.651C96.8538 307.049 94.8011 301.999 93.3069 298.355C92.5522 296.564 91.9711 295.105 91.541 294.039C91.3448 293.555 91.1863 293.169 91.0655 292.859C91.0088 292.725 90.9634 292.586 90.9297 292.443Z" fill="#263238"/>
<path d="M100.273 321.754C98.7197 319.164 96.5738 316.981 94.0123 315.387C91.4507 313.792 88.5471 312.831 85.5414 312.583C84.0321 312.477 82.1756 312.734 81.4964 314.095C80.8172 315.456 81.7228 317.119 82.7643 318.223C84.977 320.542 87.8255 322.153 90.9507 322.852C94.0758 323.552 97.3378 323.309 100.325 322.154" fill="#2B5FB5"/>
<path d="M87.8658 316.681C88.1857 316.665 88.5065 316.678 88.8242 316.719C89.1962 316.739 89.5667 316.782 89.9335 316.847C90.3637 316.93 90.8693 316.976 91.3976 317.127C91.9881 317.252 92.5703 317.414 93.1409 317.611C93.8019 317.823 94.4496 318.076 95.0804 318.367C96.5312 319.018 97.9034 319.832 99.1707 320.793C100.423 321.778 101.558 322.904 102.552 324.15C102.981 324.692 103.376 325.26 103.736 325.851C104.062 326.361 104.359 326.889 104.627 327.431C104.854 327.873 105.055 328.327 105.231 328.792C105.382 329.136 105.511 329.489 105.616 329.85C105.727 330.152 105.811 330.463 105.865 330.78C105.782 330.78 105.419 329.48 104.4 327.545C104.123 327.025 103.818 326.52 103.487 326.033C103.12 325.46 102.722 324.907 102.295 324.377C100.321 321.933 97.8038 319.986 94.9445 318.692C94.288 318.405 93.6616 318.132 93.0503 317.936C92.4891 317.731 91.9173 317.557 91.3372 317.414C89.2242 316.832 87.8582 316.764 87.8658 316.681Z" fill="#263238"/>
<path d="M430.431 79.7429C428.213 80.2494 427.133 82.8122 426.922 85.0803C426.711 87.3483 426.998 89.7523 426.047 91.8238C424.975 94.1522 422.417 95.8759 422.334 98.4388C422.281 100.004 423.209 101.463 423.164 103.043C423.088 105.613 420.477 107.579 420.334 110.119C420.236 111.971 421.466 113.74 421.172 115.57C420.945 116.991 419.836 118.11 419.368 119.471C418.44 122.192 420.304 125.178 422.726 126.706C424.083 127.56 425.61 128.108 427.201 128.31C428.791 128.512 430.406 128.364 431.933 127.876C433.461 127.388 434.863 126.571 436.043 125.484C437.222 124.397 438.151 123.064 438.763 121.58C440.106 118.314 439.812 114.632 439.517 111.117C438.612 100.15 437.938 89.1677 437.495 78.1704" fill="#263238"/>
<path d="M423.987 118.435C424.443 118.151 424.8 117.73 425.006 117.233C425.223 116.641 425.311 116.009 425.262 115.381C425.18 114.547 424.995 113.727 424.711 112.939C424.35 111.948 424.216 110.889 424.319 109.839C424.508 108.66 425.353 107.692 426.115 106.74C426.525 106.273 426.868 105.752 427.134 105.19C427.4 104.622 427.443 103.974 427.255 103.375C426.862 102.143 425.655 101.236 425.104 99.8071C424.845 99.0998 424.803 98.331 424.983 97.5996C425.154 96.9138 425.408 96.2512 425.738 95.6264C426.375 94.5011 426.881 93.3064 427.247 92.0657C427.775 89.6691 427.526 87.3785 427.888 85.496C428.089 83.9884 428.757 82.5817 429.798 81.4741C430.092 81.1757 430.428 80.9212 430.794 80.7181C430.92 80.6522 431.055 80.6039 431.194 80.5745C430.721 80.8353 430.287 81.161 429.903 81.5421C428.939 82.6609 428.332 84.0433 428.16 85.5111C428.028 86.5138 427.957 87.5238 427.949 88.5351C427.946 89.7254 427.83 90.9127 427.602 92.0808C427.242 93.35 426.735 94.5729 426.092 95.7247C425.526 96.9116 425.006 98.3027 425.504 99.603C426.002 100.903 427.202 101.803 427.662 103.194C427.87 103.881 427.819 104.621 427.519 105.273C427.225 105.891 426.843 106.464 426.387 106.974C425.632 107.927 424.809 108.834 424.628 109.892C424.523 110.896 424.641 111.911 424.975 112.863C425.245 113.676 425.412 114.519 425.473 115.373C425.511 116.031 425.394 116.688 425.134 117.293C424.972 117.673 424.711 118.002 424.379 118.246C424.261 118.333 424.128 118.397 423.987 118.435Z" fill="#455A64"/>
<path d="M418.085 136.36L411.293 156.016L382.888 157.528L378.148 168.112L407.807 171.136C409.208 171.712 410.711 171.998 412.226 171.976C413.741 171.953 415.235 171.624 416.619 171.007C418.003 170.39 419.247 169.499 420.278 168.387C421.308 167.274 422.103 165.964 422.613 164.536L430.53 142.4L418.085 136.36Z" fill="#B78876"/>
<path d="M476.806 321.829C476.806 321.829 455.992 255.588 455.547 253.441C455.147 251.491 463.093 203.825 464.105 191.449L435.978 192.5V192.78L424.024 193.445L434.726 328.86H447.668L446.385 283.916C454.37 305.379 465.81 327.257 465.81 327.257L476.806 321.829Z" fill="#B78876"/>
<path d="M446.914 300.041C446.914 299.633 446.755 284.982 446.755 284.982C446.597 285.859 441.797 272.266 441.91 271.442C441.971 271.011 446.914 300.041 446.914 300.041Z" fill="#A36957"/>
<path d="M441.367 265.001C441.3 265.27 441.272 265.547 441.284 265.825C441.242 266.58 441.242 267.337 441.284 268.093C441.284 268.569 441.352 269.083 441.412 269.642C441.472 270.202 441.555 270.792 441.684 271.404C441.952 272.741 442.308 274.059 442.748 275.35C443.684 278.095 444.725 280.491 445.457 282.23C445.804 282.986 446.106 283.704 446.363 284.279C446.455 284.546 446.582 284.8 446.74 285.035C446.7 284.773 446.623 284.519 446.514 284.279C446.34 283.78 446.076 283.061 445.759 282.177C445.095 280.408 444.099 277.989 443.17 275.275C442.731 274.003 442.371 272.705 442.091 271.389C441.955 270.784 441.865 270.202 441.782 269.658C441.699 269.113 441.638 268.599 441.601 268.146C441.51 267.208 441.472 266.452 441.45 265.923C441.464 265.613 441.436 265.303 441.367 265.001Z" fill="#A36957"/>
<path d="M434.484 329.548V328.331L447.744 327.749L447.781 332.776L446.966 332.829C443.321 333.041 428.439 333.661 426.009 332.927C423.285 332.111 434.484 329.548 434.484 329.548Z" fill="#455A64"/>
<path d="M447.955 332.474C447.879 332.479 447.804 332.479 447.728 332.474L447.079 332.519L444.679 332.625C442.657 332.708 439.857 332.784 436.771 332.799C433.684 332.814 430.877 332.761 428.847 332.7L426.454 332.602H425.798H425.571C425.647 332.596 425.722 332.596 425.798 332.602H426.454L428.854 332.648C430.877 332.648 433.676 332.708 436.763 332.693C439.85 332.678 442.657 332.625 444.679 332.572L447.079 332.511H447.955V332.474Z" fill="#263238"/>
<path d="M430.16 332.897C430.05 332.502 429.898 332.119 429.707 331.755C429.468 331.42 429.192 331.114 428.884 330.841C429.296 330.988 429.638 331.285 429.843 331.672C430.092 332.029 430.205 332.464 430.16 332.897Z" fill="#263238"/>
<path d="M434.069 330.909C434.069 330.909 433.85 330.705 433.654 330.402C433.458 330.1 433.337 329.835 433.375 329.813C433.412 329.79 433.593 330.009 433.79 330.311C433.986 330.614 434.107 330.886 434.069 330.909Z" fill="#263238"/>
<path d="M435.141 330.372C435.141 330.41 434.899 330.266 434.673 330.062C434.447 329.858 434.28 329.669 434.311 329.639C434.341 329.608 434.552 329.744 434.779 329.949C435.005 330.153 435.171 330.304 435.141 330.372Z" fill="#263238"/>
<path d="M435.812 329.087C435.59 329.168 435.353 329.199 435.118 329.178C434.887 329.208 434.652 329.185 434.431 329.109C434.65 329.028 434.885 328.997 435.118 329.019C435.351 328.987 435.589 329.01 435.812 329.087Z" fill="#263238"/>
<path d="M436.039 328.21C435.814 328.356 435.552 328.435 435.284 328.437C435.027 328.471 434.767 328.434 434.529 328.331C434.779 328.289 435.031 328.268 435.284 328.27C435.533 328.226 435.786 328.205 436.039 328.21Z" fill="#263238"/>
<path d="M433.624 329.752C433.342 329.805 433.053 329.805 432.771 329.752C432.466 329.715 432.166 329.649 431.873 329.556C431.692 329.505 431.517 329.434 431.352 329.344C431.252 329.285 431.177 329.19 431.141 329.079C431.127 329.016 431.132 328.95 431.155 328.89C431.178 328.83 431.217 328.777 431.269 328.739C431.478 328.638 431.707 328.584 431.939 328.582C432.172 328.58 432.402 328.629 432.612 328.727C432.823 328.825 433.01 328.968 433.158 329.146C433.307 329.325 433.415 329.534 433.473 329.76C433.488 329.834 433.488 329.912 433.473 329.986C433.388 329.713 433.255 329.457 433.081 329.23C432.88 329.004 432.618 328.841 432.326 328.762C431.992 328.654 431.629 328.681 431.315 328.837C431.186 328.936 431.239 329.094 431.383 329.185C431.537 329.268 431.698 329.337 431.866 329.389C432.149 329.483 432.439 329.556 432.733 329.608C433.299 329.729 433.624 329.729 433.624 329.752Z" fill="#263238"/>
<path d="M433.405 329.797C433.295 329.622 433.257 329.411 433.299 329.208C433.327 328.985 433.407 328.773 433.533 328.588C433.604 328.462 433.705 328.355 433.828 328.278C433.951 328.202 434.091 328.157 434.235 328.149C434.32 328.169 434.395 328.221 434.444 328.294C434.493 328.367 434.513 328.456 434.499 328.542C434.48 328.678 434.431 328.807 434.356 328.92C434.241 329.108 434.107 329.283 433.956 329.442C433.824 329.593 433.659 329.71 433.473 329.782C433.473 329.782 433.639 329.631 433.873 329.359C434.008 329.203 434.127 329.033 434.227 328.852C434.341 328.671 434.424 328.346 434.227 328.308C434.031 328.27 433.805 328.505 433.676 328.671C433.556 328.835 433.474 329.023 433.435 329.223C433.404 329.413 433.394 329.605 433.405 329.797Z" fill="#263238"/>
<path d="M447.676 328.86C447.676 328.86 447.298 328.86 446.702 328.898C445.926 328.991 445.191 329.3 444.582 329.791C443.972 330.281 443.512 330.933 443.253 331.672C443.057 332.239 443.042 332.625 443.012 332.617C442.982 332.61 443.012 332.519 443.012 332.353C443.031 332.109 443.077 331.868 443.148 331.634C443.388 330.861 443.85 330.174 444.476 329.661C445.11 329.158 445.88 328.855 446.687 328.792C446.938 328.762 447.191 328.762 447.442 328.792C447.522 328.804 447.601 328.827 447.676 328.86Z" fill="#263238"/>
<path d="M441.329 331.415C440.696 331.563 440.047 331.626 439.397 331.604C438.751 331.637 438.104 331.581 437.473 331.438C437.473 331.393 438.333 331.438 439.397 331.438C440.461 331.438 441.321 331.37 441.329 331.415Z" fill="#263238"/>
<path d="M443.91 331.393C443.91 331.393 443.842 331.574 443.751 331.771C443.661 331.967 443.615 332.149 443.57 332.141C443.525 332.133 443.502 331.937 443.608 331.702C443.713 331.468 443.879 331.355 443.91 331.393Z" fill="#263238"/>
<path d="M444.883 330.175C444.883 330.175 444.83 330.342 444.695 330.478C444.559 330.614 444.423 330.705 444.385 330.674C444.347 330.644 444.438 330.508 444.574 330.364C444.71 330.221 444.845 330.138 444.883 330.175Z" fill="#263238"/>
<path d="M446.272 329.616C446.272 329.661 446.091 329.661 445.894 329.729C445.698 329.797 445.562 329.903 445.525 329.873C445.487 329.843 445.6 329.661 445.842 329.578C446.083 329.495 446.287 329.571 446.272 329.616Z" fill="#263238"/>
<path d="M447.261 329.344C447.261 329.389 447.208 329.457 447.095 329.495C446.981 329.533 446.883 329.54 446.868 329.495C446.853 329.45 446.928 329.382 447.034 329.344C447.14 329.306 447.245 329.306 447.261 329.344Z" fill="#263238"/>
<path d="M465.546 328.376L465.048 327.265L476.904 321.3L478.994 325.836L478.24 326.221C475.002 327.907 461.682 334.575 459.162 334.908C456.377 335.309 465.546 328.376 465.546 328.376Z" fill="#455A64"/>
<path d="M479.04 325.511L478.844 325.632L478.262 325.934L476.119 327.023C474.308 327.923 471.787 329.14 468.973 330.425C466.158 331.71 463.577 332.806 461.705 333.585L459.479 334.485L458.875 334.719C458.805 334.751 458.732 334.774 458.656 334.787L458.86 334.689L459.456 334.424L461.66 333.479C463.524 332.678 466.09 331.559 468.905 330.274C471.72 328.988 474.248 327.794 476.074 326.917L478.232 325.881L478.828 325.602L479.04 325.511Z" fill="#263238"/>
<path d="M463.003 333.199C462.741 332.88 462.445 332.591 462.12 332.338C461.766 332.128 461.389 331.96 460.996 331.839C461.429 331.833 461.854 331.96 462.213 332.203C462.571 332.447 462.847 332.794 463.003 333.199Z" fill="#263238"/>
<path d="M465.727 329.782C465.727 329.782 465.441 329.692 465.139 329.495C464.837 329.298 464.618 329.109 464.641 329.072C464.663 329.034 464.928 329.162 465.229 329.359C465.531 329.556 465.75 329.745 465.727 329.782Z" fill="#263238"/>
<path d="M466.467 328.86C466.467 328.898 466.21 328.86 465.916 328.769C465.622 328.679 465.403 328.565 465.41 328.52C465.601 328.502 465.793 328.533 465.969 328.611C466.256 328.679 466.482 328.784 466.467 328.86Z" fill="#263238"/>
<path d="M466.573 327.408C466.573 327.454 466.324 327.613 465.976 327.779C465.776 327.899 465.552 327.974 465.32 327.998C465.32 327.953 465.569 327.794 465.908 327.628C466.112 327.508 466.338 327.433 466.573 327.408Z" fill="#263238"/>
<path d="M466.422 326.516C466.422 326.516 466.203 326.819 465.81 327.038C465.588 327.189 465.324 327.268 465.056 327.265C465.272 327.119 465.502 326.995 465.742 326.894C466.112 326.69 466.384 326.479 466.422 326.516Z" fill="#263238"/>
<path d="M464.875 328.92C464.645 329.079 464.389 329.196 464.12 329.268C463.823 329.355 463.521 329.418 463.214 329.457C463.029 329.48 462.841 329.48 462.656 329.457C462.539 329.448 462.431 329.394 462.354 329.306C462.319 329.252 462.3 329.189 462.3 329.125C462.3 329.06 462.319 328.997 462.354 328.943C462.583 328.665 462.902 328.475 463.256 328.406C463.61 328.337 463.977 328.393 464.293 328.565C464.481 328.663 464.645 328.8 464.776 328.966C464.867 329.087 464.905 329.162 464.897 329.17C464.711 328.962 464.489 328.79 464.241 328.663C463.975 328.538 463.679 328.494 463.388 328.535C463.215 328.553 463.047 328.605 462.895 328.688C462.742 328.771 462.607 328.883 462.497 329.019C462.414 329.162 462.497 329.283 462.701 329.306C462.874 329.321 463.049 329.321 463.222 329.306C463.522 329.276 463.82 329.223 464.112 329.147C464.543 329.026 464.875 328.898 464.875 328.92Z" fill="#263238"/>
<path d="M464.663 329.049C464.495 328.929 464.377 328.752 464.331 328.55C464.265 328.337 464.249 328.112 464.286 327.892C464.299 327.747 464.349 327.608 464.431 327.487C464.512 327.367 464.624 327.27 464.754 327.204C464.943 327.144 465.38 327.529 465.41 327.673C465.441 327.817 465.192 327.741 465.176 327.862C465.152 328.077 465.101 328.287 465.026 328.49C464.971 328.684 464.867 328.861 464.724 329.004C464.724 329.004 464.814 328.8 464.92 328.459C464.974 328.259 465.012 328.054 465.033 327.847C465.033 327.635 465.033 327.31 464.792 327.363C464.55 327.416 464.482 327.711 464.429 327.923C464.383 328.119 464.383 328.323 464.429 328.52C464.492 328.703 464.57 328.88 464.663 329.049Z" fill="#263238"/>
<path d="M477.304 322.328C477.304 322.328 476.942 322.457 476.429 322.767C475.758 323.169 475.211 323.75 474.851 324.445C474.502 325.147 474.353 325.932 474.421 326.713C474.467 327.318 474.61 327.665 474.58 327.681C474.531 327.606 474.493 327.524 474.467 327.439C474.392 327.207 474.339 326.969 474.308 326.728C474.2 325.923 474.339 325.104 474.707 324.38C475.075 323.656 475.655 323.062 476.368 322.676C476.582 322.557 476.807 322.461 477.04 322.389C477.125 322.356 477.214 322.335 477.304 322.328Z" fill="#263238"/>
<path d="M472.557 327.272C471.493 328.014 470.304 328.557 469.048 328.875C469.048 328.83 469.84 328.527 470.806 328.119C471.772 327.711 472.534 327.235 472.557 327.272Z" fill="#263238"/>
<path d="M474.904 326.191C474.942 326.191 474.904 326.38 474.904 326.599C474.904 326.819 474.904 327 474.904 327.015C474.904 327.03 474.753 326.849 474.753 326.599C474.753 326.35 474.866 326.169 474.904 326.191Z" fill="#263238"/>
<path d="M475.289 324.679C475.326 324.679 475.289 324.853 475.243 325.035C475.198 325.216 475.085 325.352 475.047 325.337C475.009 325.322 475.047 325.163 475.092 324.982C475.138 324.8 475.243 324.664 475.289 324.679Z" fill="#263238"/>
<path d="M476.33 323.568C476.33 323.613 476.179 323.681 476.028 323.825C475.877 323.969 475.794 324.12 475.757 324.105C475.719 324.09 475.757 323.878 475.923 323.704C476.089 323.53 476.323 323.568 476.33 323.568Z" fill="#263238"/>
<path d="M477.123 322.948C477.123 322.948 477.123 323.069 477.032 323.152C476.941 323.235 476.858 323.281 476.828 323.25C476.798 323.22 476.828 323.129 476.919 323.046C477.009 322.963 477.092 322.918 477.123 322.948Z" fill="#263238"/>
<path d="M462.279 169.072L460.075 142.083L471.395 142.287C471.395 142.287 471.916 138.303 470.248 129.578C469.222 124.226 465.667 120.945 461.675 118.994V118.919L461.328 118.828C458.041 117.35 454.532 116.433 450.943 116.114L437.02 116.273C437.02 116.273 426.387 114.912 420.523 122.54C418.259 125.466 411.233 145.492 411.233 145.492L427.949 153.551L426.387 142.445C426.387 142.445 426.704 150.497 427.73 153.029C428.296 154.451 429.994 158.866 429.994 158.866L429.775 172.187L462.279 169.072Z" fill="#2B5FB5"/>
<path d="M454.603 138.166L452.536 146.981H472.029L470.746 132.194L454.603 138.166Z" fill="#2B5FB5"/>
<path d="M472.029 146.981C471.177 146.824 470.314 146.738 469.448 146.724C467.848 146.634 465.675 146.551 463.199 146.566C460.724 146.581 458.543 146.687 456.943 146.808C456.078 146.838 455.217 146.944 454.37 147.125C455.234 147.194 456.102 147.194 456.966 147.125C458.558 147.072 460.739 147.012 463.199 147.004C465.659 146.997 467.84 147.004 469.44 147.042C470.303 147.09 471.169 147.07 472.029 146.981Z" fill="#263238"/>
<path d="M453.758 132.126C453.666 132.878 453.645 133.638 453.698 134.394C453.698 135.778 453.758 137.683 453.841 139.792C453.924 141.901 454.023 143.814 454.113 145.19C454.117 145.952 454.198 146.712 454.355 147.458C454.447 146.705 454.468 145.946 454.415 145.19C454.415 143.806 454.355 141.894 454.272 139.784C454.189 137.675 454.091 135.77 454 134.387C453.997 133.627 453.916 132.869 453.758 132.126Z" fill="#263238"/>
<g opacity="0.3">
<path d="M436.023 139.762C436.023 139.762 440.355 171.945 452.536 171.09C452.536 171.09 458.022 171.03 459.78 167.378V165.942L436.023 139.762Z" fill="#548CE8"/>
</g>
<g opacity="0.3">
<path d="M453.758 134.024L451.426 149.801L452.936 152.568L455.426 147.155L454.369 147.125L453.758 134.024Z" fill="#548CE8"/>
</g>
<path d="M429.926 158.881C429.781 158.645 429.669 158.391 429.594 158.125C429.405 157.633 429.156 156.915 428.839 156.016C428.083 153.671 427.461 151.286 426.975 148.871C426.491 146.455 426.183 144.007 426.054 141.546C426.009 140.601 425.994 139.837 426.009 139.278C425.99 139.004 426.007 138.73 426.062 138.461C426.122 138.461 426.168 139.626 426.326 141.485C426.538 143.924 426.884 146.349 427.36 148.75C427.918 151.563 428.59 154.08 429.103 155.887C429.345 156.726 429.548 157.444 429.714 158.034C429.818 158.307 429.889 158.591 429.926 158.881Z" fill="#263238"/>
<path d="M434.846 168.127C434.741 168.127 434.439 167.469 434.175 166.615C433.947 166.091 433.847 165.522 433.88 164.952C434.213 165.414 434.443 165.942 434.552 166.501C434.769 167.015 434.869 167.57 434.846 168.127Z" fill="#263238"/>
<path d="M436.529 168.006C435.959 166.489 435.935 164.821 436.461 163.288C436.52 164.074 436.52 164.862 436.461 165.647C436.544 166.431 436.566 167.219 436.529 168.006Z" fill="#263238"/>
<path d="M428.288 153.922C428.235 154.012 424.349 152.168 419.602 149.794C414.855 147.42 411.044 145.409 411.089 145.311C411.135 145.212 415.029 147.065 419.775 149.438C424.522 151.812 428.333 153.823 428.288 153.922Z" fill="#263238"/>
<path d="M435.141 118.881C435.224 115.056 435.246 111.034 435.246 111.034C435.246 111.034 430.349 110.089 429.496 103.632C428.681 97.4787 430.96 83.0315 430.96 83.0315C438.114 80.325 445.548 82.782 450.445 88.5881L449.23 119.637C449.087 123.243 445.88 125.995 442.031 125.814C438.137 125.625 435.058 122.525 435.141 118.881Z" fill="#B78876"/>
<path d="M430.582 94.5756C430.576 94.7875 430.65 94.994 430.79 95.1528C430.931 95.3116 431.126 95.4107 431.337 95.4299C431.444 95.4402 431.552 95.4286 431.655 95.3958C431.757 95.3629 431.852 95.3095 431.933 95.2388C432.014 95.168 432.08 95.0815 432.127 94.9843C432.174 94.8872 432.2 94.7816 432.205 94.6739C432.212 94.4627 432.137 94.2572 431.996 94.0996C431.856 93.942 431.66 93.8445 431.45 93.8272C431.343 93.8108 431.233 93.8179 431.128 93.8481C431.024 93.8782 430.927 93.9306 430.845 94.0017C430.762 94.0727 430.696 94.1608 430.651 94.2599C430.606 94.359 430.582 94.4666 430.582 94.5756Z" fill="#263238"/>
<path d="M430.28 93.4945C430.378 93.6004 431.035 93.1543 431.903 93.1846C432.771 93.2148 433.412 93.6684 433.518 93.5626C433.624 93.4567 433.473 93.3206 433.193 93.1014C432.815 92.8272 432.362 92.6767 431.895 92.6705C431.436 92.6529 430.983 92.7856 430.605 93.0485C430.326 93.2526 430.227 93.4416 430.28 93.4945Z" fill="#263238"/>
<path d="M439.57 95.135C439.562 95.3475 439.636 95.555 439.776 95.7142C439.917 95.8734 440.114 95.9719 440.325 95.9893C440.433 96.0058 440.544 95.9985 440.649 95.9679C440.754 95.9374 440.851 95.8843 440.934 95.8124C441.016 95.7405 441.082 95.6514 441.127 95.5514C441.172 95.4515 441.194 95.3429 441.193 95.2333C441.201 95.0217 441.127 94.8151 440.987 94.6571C440.846 94.4991 440.649 94.4021 440.438 94.3866C440.331 94.3703 440.221 94.3774 440.117 94.4075C440.012 94.4376 439.915 94.49 439.833 94.5611C439.75 94.6322 439.684 94.7203 439.639 94.8193C439.594 94.9184 439.57 95.0261 439.57 95.135Z" fill="#263238"/>
<path d="M439.51 94.0539C439.608 94.1673 440.265 93.7213 441.133 93.7439C442 93.7666 442.642 94.2278 442.755 94.1219C442.868 94.0161 442.702 93.88 442.423 93.6683C442.051 93.3869 441.599 93.2331 441.133 93.2299C440.671 93.216 440.217 93.3483 439.835 93.6079C439.563 93.812 439.465 94.001 439.51 94.0539Z" fill="#263238"/>
<path d="M436.129 100.548C435.666 100.388 435.184 100.289 434.696 100.253C434.469 100.253 434.258 100.17 434.228 100.019C434.209 99.7825 434.268 99.5466 434.394 99.346L435.103 97.645C435.763 96.1993 436.306 94.7026 436.726 93.1694C435.953 94.5585 435.292 96.0071 434.748 97.5013C434.514 98.0986 434.28 98.6731 434.062 99.2174C433.915 99.4875 433.867 99.8003 433.926 100.102C433.955 100.184 434.003 100.258 434.066 100.318C434.129 100.379 434.205 100.424 434.288 100.45C434.413 100.486 434.543 100.506 434.673 100.51C435.155 100.585 435.644 100.597 436.129 100.548Z" fill="#263238"/>
<path d="M435.246 111.034C438.265 111.155 441.259 110.435 443.895 108.955C443.895 108.955 441.698 113.317 435.291 112.553L435.246 111.034Z" fill="#A36957"/>
<path d="M442.348 91.476C442.167 91.7557 441.487 91.6347 440.733 91.476C439.978 91.3172 439.314 91.1887 439.223 90.8636C439.133 90.5385 439.925 90.1076 440.936 90.3117C441.948 90.5159 442.529 91.2341 442.348 91.476Z" fill="#263238"/>
<path d="M433.541 90.1908C433.473 90.5159 432.749 90.6368 431.918 90.6746C431.088 90.7124 430.356 90.6746 430.258 90.342C430.16 90.0093 430.862 89.5406 431.866 89.4953C432.869 89.4499 433.609 89.8808 433.541 90.1908Z" fill="#263238"/>
<path d="M436.144 102.672C436.049 102.65 435.949 102.66 435.86 102.701C435.771 102.742 435.699 102.812 435.654 102.899C435.611 102.976 435.589 103.063 435.59 103.152C435.591 103.24 435.615 103.326 435.659 103.402C435.704 103.479 435.768 103.542 435.844 103.586C435.921 103.629 436.007 103.653 436.095 103.653C436.184 103.653 436.27 103.629 436.347 103.586C436.423 103.542 436.487 103.479 436.532 103.402C436.576 103.326 436.6 103.24 436.601 103.152C436.602 103.063 436.58 102.976 436.537 102.899C436.483 102.798 436.396 102.718 436.29 102.672C436.184 102.627 436.067 102.619 435.956 102.65" fill="#A36957"/>
<path d="M436.348 102.763C436.348 102.725 436.205 102.506 435.82 102.589C435.705 102.619 435.6 102.679 435.515 102.763C435.43 102.846 435.369 102.951 435.337 103.065C435.297 103.21 435.3 103.364 435.347 103.506C435.394 103.649 435.483 103.775 435.601 103.867C435.727 103.953 435.875 103.999 436.028 103.999C436.18 103.999 436.328 103.953 436.454 103.867C436.554 103.799 436.633 103.704 436.681 103.593C436.73 103.482 436.745 103.359 436.726 103.239C436.65 102.839 436.356 102.778 436.341 102.831C436.326 102.884 436.446 103.02 436.424 103.254C436.419 103.312 436.4 103.368 436.368 103.417C436.336 103.466 436.293 103.506 436.243 103.534C436.184 103.568 436.118 103.586 436.05 103.586C435.983 103.586 435.916 103.568 435.858 103.534C435.805 103.489 435.765 103.432 435.741 103.367C435.717 103.302 435.711 103.232 435.722 103.164C435.731 103.104 435.754 103.047 435.789 102.999C435.825 102.95 435.872 102.91 435.926 102.884C436.137 102.755 436.326 102.816 436.348 102.763Z" fill="#263238"/>
<path d="M447.517 96.1707C446.763 97.9398 444.891 99.3081 445.148 101.221C445.314 102.453 446.106 103.602 445.955 104.842C445.759 106.354 444.151 107.473 443.917 109.023C443.638 110.92 445.487 112.394 446.219 114.164C447.298 116.749 445.925 119.652 445.887 122.48C445.932 124.626 446.751 126.684 448.194 128.271C449.638 129.859 451.606 130.868 453.736 131.113C455.456 131.257 457.396 130.735 458.264 129.253C459.018 128.029 458.852 126.471 459.29 125.118C459.954 123.092 461.878 121.61 462.309 119.524C463.063 115.744 458.46 112.568 458.762 108.698C458.89 107.042 459.909 105.606 460.339 104.003C460.613 102.95 460.634 101.846 460.4 100.783C460.167 99.7203 459.686 98.7277 458.996 97.8869C457.856 96.5336 456.211 95.6189 455.222 94.1673C454.128 92.4966 454.09 90.3873 453.713 88.4142C453.206 86.0158 452.101 83.7854 450.5 81.9312C448.899 80.077 446.855 78.6597 444.559 77.8117C442.263 76.9637 439.79 76.7127 437.371 77.0821C434.952 77.4516 432.665 78.4294 430.726 79.9243C430.726 79.9243 429.632 84.9063 434.741 85.7455C439.85 86.5847 442.212 85.617 442.785 87.6657C442.65 88.5097 442.717 89.3738 442.979 90.1872C443.241 91.0006 443.692 91.7401 444.295 92.3454C446.378 94.5983 448.362 94.1144 447.517 96.1707Z" fill="#263238"/>
<path d="M455.63 130.727C455.472 130.733 455.315 130.718 455.162 130.682C454.719 130.604 454.285 130.485 453.864 130.327C452.305 129.728 450.939 128.717 449.909 127.401C449.188 126.493 448.621 125.471 448.234 124.377C447.793 123.131 447.561 121.821 447.547 120.499C447.532 119.042 447.714 117.59 448.091 116.182C448.296 115.439 448.548 114.709 448.845 113.997C449.157 113.289 449.431 112.565 449.668 111.827C449.875 111.101 449.875 110.331 449.668 109.605C449.447 108.89 449.162 108.197 448.815 107.533C448.465 106.876 448.17 106.191 447.932 105.485C447.7 104.786 447.645 104.04 447.774 103.315C448.076 101.894 448.936 100.835 449.449 99.7542C449.938 98.7534 450.171 97.6469 450.128 96.5336C450.06 94.9044 449.47 93.3406 448.445 92.0732C448.049 91.6293 447.622 91.2125 447.17 90.8258C447.699 91.1236 448.172 91.5126 448.566 91.9749C449.665 93.2404 450.313 94.8362 450.407 96.5109C450.47 97.6727 450.242 98.8317 449.743 99.8827C449.223 101.002 448.385 102.068 448.128 103.368C447.872 104.668 448.483 106.037 449.155 107.352C449.521 108.034 449.819 108.751 450.045 109.491C450.268 110.282 450.268 111.12 450.045 111.911C449.794 112.673 449.504 113.423 449.177 114.156C448.881 114.852 448.629 115.567 448.423 116.295C448.048 117.667 447.863 119.084 447.872 120.506C447.848 122.929 448.629 125.29 450.09 127.22C451.068 128.519 452.369 129.539 453.864 130.176C454.988 130.614 455.637 130.682 455.63 130.727Z" fill="#455A64"/>
<path d="M454.875 92.5797C454.507 92.6751 454.13 92.7308 453.751 92.746C452.715 92.857 451.669 92.829 450.641 92.6628C449.862 92.5472 449.114 92.2771 448.44 91.8682C447.766 91.4593 447.18 90.9198 446.717 90.2814C446.286 89.4738 445.941 88.6222 445.691 87.7413C445.369 86.8613 444.763 86.1139 443.97 85.6169C442.317 84.5661 440.378 84.4376 438.687 84.2334C437.128 84.1556 435.614 83.6821 434.288 82.8575C433.399 82.2678 432.757 81.372 432.484 80.34C432.418 80.0603 432.4 79.7715 432.431 79.4858C432.431 79.2892 432.477 79.1909 432.492 79.1909C432.5 79.5654 432.549 79.9378 432.635 80.3022C432.947 81.2672 433.588 82.0914 434.446 82.6307C435.748 83.3918 437.218 83.8178 438.725 83.8706C440.416 84.0671 442.423 84.1654 444.189 85.2843C445.053 85.8279 445.712 86.6446 446.06 87.6052C446.297 88.4638 446.623 89.295 447.034 90.0849C447.913 91.2928 449.23 92.1071 450.702 92.3529C451.697 92.5382 452.71 92.6067 453.72 92.557C454.105 92.5353 454.491 92.5429 454.875 92.5797Z" fill="#455A64"/>
<path d="M453.003 86.4259C452.719 86.5212 452.42 86.5647 452.12 86.5544C450.714 86.5639 449.359 86.0212 448.347 85.0424C447.885 84.5787 447.492 84.0518 447.177 83.4775C446.498 82.3284 445.842 80.9147 444.43 80.325C443.071 79.868 441.622 79.7411 440.204 79.9545C439.008 80.1229 437.794 80.1229 436.597 79.9545C435.764 79.8388 434.981 79.4933 434.333 78.9566C434.166 78.8105 434.018 78.6427 433.895 78.4577C433.805 78.3266 433.767 78.2586 433.782 78.2535C433.782 78.2535 433.993 78.4955 434.431 78.8357C435.076 79.2954 435.826 79.5865 436.612 79.6824C437.787 79.8151 438.974 79.7948 440.144 79.6219C441.624 79.3797 443.141 79.5096 444.559 79.9999C445.287 80.328 445.912 80.8512 446.362 81.5119C446.76 82.1013 447.125 82.712 447.457 83.3414C447.754 83.8909 448.122 84.3992 448.551 84.8534C448.93 85.2375 449.365 85.5613 449.841 85.8135C450.543 86.1807 451.315 86.3946 452.105 86.441C452.686 86.4335 452.996 86.3881 453.003 86.4259Z" fill="#455A64"/>
<path d="M457.879 129.095C457.841 129.095 458.082 128.596 458.362 127.658C458.74 126.342 458.908 124.975 458.86 123.606C458.805 121.58 458.253 119.599 457.252 117.838C456.701 116.847 455.864 115.963 455.177 114.874C454.814 114.32 454.558 113.702 454.422 113.052C454.303 112.369 454.36 111.666 454.588 111.011C455.011 109.703 455.766 108.607 455.932 107.405C456.098 106.203 455.524 105.137 454.951 104.131C454.655 103.642 454.385 103.137 454.143 102.619C453.922 102.117 453.777 101.585 453.713 101.039C453.642 100.079 453.672 99.1133 453.804 98.159C454.045 96.8101 453.92 95.421 453.441 94.1371C453.228 93.6874 452.925 93.2861 452.551 92.9578C452.551 92.9578 452.589 92.9578 452.641 93.0031C452.731 93.0476 452.812 93.1063 452.883 93.177C453.178 93.4233 453.417 93.7301 453.585 94.0766C454.13 95.3715 454.301 96.7944 454.075 98.1817C453.971 99.1182 453.959 100.063 454.037 101.002C454.224 102.058 454.641 103.06 455.26 103.935C455.582 104.446 455.857 104.985 456.083 105.545C456.32 106.15 456.398 106.806 456.309 107.45C456.128 108.773 455.351 109.892 454.958 111.124C454.752 111.719 454.698 112.356 454.8 112.977C454.931 113.577 455.172 114.149 455.509 114.663C456.151 115.713 457.018 116.613 457.569 117.649C458.58 119.47 459.12 121.515 459.139 123.598C459.163 124.993 458.949 126.381 458.505 127.704C458.384 128.061 458.238 128.41 458.067 128.747C458.021 128.871 457.958 128.988 457.879 129.095Z" fill="#455A64"/>
<path d="M427.141 269.96C427.141 269.96 422.055 221.697 421.761 203.863C421.466 186.029 429.768 168.429 429.768 168.429L462.279 167.076C462.279 167.076 468.708 185.167 468.822 192.78C469.048 207.552 464.905 222.135 465.38 233.853L466.467 269.99" fill="#263238"/>
<path d="M467.561 210.622C467.392 210.769 467.213 210.906 467.025 211.03L466.731 211.234L466.414 211.544C466.135 211.786 465.882 212.057 465.659 212.353C464.61 213.638 463.848 215.944 463.116 218.809C462.742 220.398 462.19 221.94 461.471 223.406C461.252 223.807 461 224.189 460.716 224.547C460.58 224.729 460.452 224.925 460.294 225.099L459.796 225.598C459.082 226.266 458.254 226.799 457.35 227.17C455.532 227.972 453.471 228.35 451.6 229.295C449.682 230.328 448.201 232.019 447.427 234.058C446.506 236.106 445.917 238.253 445.163 240.264C444.408 242.275 443.389 244.196 441.767 245.42C440.215 246.5 438.373 247.083 436.484 247.091C434.733 247.197 433.111 247.144 431.654 247.363C430.343 247.499 429.09 247.973 428.017 248.739C427.233 249.353 426.645 250.184 426.326 251.128C426.124 251.724 426.08 252.362 426.198 252.98C426.288 253.404 426.402 253.608 426.379 253.615C426.257 253.425 426.171 253.216 426.122 252.995C425.963 252.365 425.984 251.702 426.183 251.083C426.483 250.091 427.074 249.214 427.881 248.565C428.981 247.733 430.284 247.211 431.654 247.053C433.163 246.811 434.771 246.842 436.499 246.728C438.333 246.716 440.12 246.147 441.623 245.095C443.148 243.76 444.274 242.028 444.876 240.09C445.63 238.102 446.181 235.948 447.14 233.861C447.952 231.739 449.501 229.981 451.502 228.909C453.449 227.942 455.509 227.571 457.283 226.8C458.151 226.44 458.948 225.928 459.637 225.288L460.113 224.812C460.263 224.645 460.392 224.456 460.528 224.283C460.794 223.939 461.029 223.572 461.229 223.186C461.952 221.741 462.512 220.22 462.897 218.65C463.652 215.793 464.475 213.457 465.584 212.164C465.805 211.869 466.058 211.6 466.339 211.362C466.459 211.257 466.565 211.151 466.671 211.068L466.98 210.871C467.168 210.776 467.363 210.693 467.561 210.622Z" fill="#FAFAFA"/>
<path d="M467.757 188.289C467.792 188.502 467.807 188.717 467.802 188.932C467.8 189.556 467.724 190.178 467.576 190.784C466.926 192.996 465.649 194.971 463.901 196.469C462.747 197.532 461.482 198.467 460.128 199.259C458.671 200.121 457.064 200.945 455.411 201.882C453.675 202.815 452.058 203.954 450.596 205.277C449.096 206.767 447.861 208.503 446.943 210.41C446.018 212.342 444.962 214.209 443.781 215.997C443.182 216.83 442.488 217.591 441.714 218.265C440.95 218.915 440.112 219.471 439.216 219.92C437.594 220.718 435.905 221.369 434.167 221.863C432.552 222.362 431.043 222.808 429.73 223.375C428.538 223.85 427.404 224.459 426.349 225.19C425.555 225.741 424.841 226.4 424.228 227.148C423.715 227.796 423.286 228.507 422.953 229.265C423.006 229.055 423.077 228.85 423.164 228.652C423.411 228.081 423.728 227.543 424.107 227.049C424.709 226.27 425.421 225.583 426.22 225.008C427.28 224.251 428.422 223.617 429.624 223.118C431.078 222.525 432.561 222.007 434.069 221.568C435.782 221.062 437.448 220.41 439.05 219.618C439.899 219.174 440.697 218.636 441.427 218.015C442.172 217.351 442.84 216.605 443.419 215.793C444.583 214.014 445.629 212.16 446.551 210.244C447.498 208.295 448.775 206.525 450.324 205.012C451.812 203.67 453.46 202.517 455.23 201.58C456.89 200.65 458.497 199.841 459.954 198.987C461.304 198.222 462.569 197.314 463.727 196.28C465.461 194.826 466.749 192.91 467.44 190.754C467.634 189.946 467.74 189.12 467.757 188.289Z" fill="#FAFAFA"/>
<path d="M421.927 206.388C421.897 206.341 421.874 206.29 421.859 206.237C421.802 206.091 421.754 205.942 421.715 205.791C421.586 205.189 421.612 204.565 421.791 203.976C422.213 202.464 423.881 200.521 426.568 199.561C427.911 199.1 429.428 198.805 431.013 198.412C432.329 198.194 433.574 197.663 434.644 196.865C435.714 196.067 436.577 195.024 437.163 193.823C437.592 192.942 437.968 192.036 438.288 191.109C438.878 189.097 439.68 187.153 440.68 185.311C441.826 183.5 443.566 182.145 445.601 181.478C447.451 180.876 449.34 180.396 451.253 180.041C452.96 179.713 454.614 179.148 456.166 178.363C457.48 177.611 458.614 176.578 459.486 175.339C460.775 173.55 461.51 171.42 461.599 169.215C461.603 168.406 461.55 167.598 461.441 166.796C461.669 167.582 461.773 168.398 461.75 169.215C461.721 171.468 461.011 173.658 459.713 175.498C458.829 176.778 457.672 177.845 456.324 178.62C454.752 179.434 453.072 180.022 451.336 180.366C449.44 180.727 447.57 181.209 445.736 181.81C443.783 182.452 442.113 183.753 441.012 185.492C440.028 187.309 439.236 189.225 438.65 191.207C438.324 192.151 437.938 193.073 437.495 193.967C437.048 194.826 436.479 195.616 435.805 196.311C434.48 197.521 432.848 198.345 431.088 198.692C429.488 199.1 427.979 199.357 426.658 199.796C424.04 200.688 422.379 202.525 421.934 203.991C421.751 204.557 421.702 205.158 421.791 205.745C421.855 205.955 421.9 206.17 421.927 206.388Z" fill="#FAFAFA"/>
<path d="M464.965 247.212C464.996 247.369 465.014 247.528 465.018 247.688C465.033 248.146 464.984 248.604 464.875 249.049C464.401 250.688 463.397 252.124 462.022 253.131C461.104 253.864 460.088 254.465 459.003 254.916C457.849 255.407 456.573 255.8 455.23 256.216C453.836 256.624 452.471 257.129 451.147 257.728C449.772 258.386 448.539 259.308 447.517 260.442C446.416 261.591 445.465 262.854 444.408 263.972C443.398 265.056 442.224 265.975 440.929 266.694C438.726 267.898 436.262 268.542 433.752 268.569C432.072 268.587 430.401 268.308 428.817 267.745C428.387 267.596 427.968 267.417 427.564 267.208C427.417 267.147 427.277 267.068 427.149 266.974C427.301 267.016 427.45 267.069 427.594 267.133C428.009 267.31 428.432 267.467 428.862 267.601C430.443 268.098 432.096 268.33 433.752 268.289C436.206 268.226 438.609 267.569 440.756 266.377C442.01 265.665 443.147 264.765 444.129 263.708C445.163 262.604 446.106 261.349 447.231 260.17C448.312 258.994 449.615 258.043 451.064 257.373C452.408 256.771 453.793 256.266 455.207 255.861C456.536 255.452 457.803 255.105 458.981 254.606C460.034 254.174 461.024 253.602 461.924 252.905C463.276 251.948 464.285 250.58 464.799 249.004C464.911 248.413 464.966 247.813 464.965 247.212Z" fill="#FAFAFA"/>
<path d="M461.26 147.012L454.966 147.163C454.724 148.434 454.242 149.648 453.547 150.739C448.264 141.591 444.212 129.344 443.2 124.422C443.351 123.931 443.525 123.387 443.744 122.782C443.901 121.863 443.872 120.922 443.661 120.015C443.48 118.919 443.178 117.445 443.087 116.764C442.808 114.678 442.468 114.352 441.744 114.587C440.763 114.912 442.151 120.431 441.344 120.552C440.906 120.612 440.378 118.722 440.227 117.172C440.076 115.623 439.367 110.845 438.861 110.527C438.106 110.058 437.45 110.799 437.646 112.342C437.842 113.884 438.076 118.571 437.261 118.639C436.446 118.707 435.752 110.784 435.752 110.784C435.752 110.784 435.88 109.06 434.929 109.098C433.224 109.174 434.56 117.52 434.703 118.314C434.809 118.858 433.948 118.964 433.843 118.367C433.737 117.77 433.345 110.452 431.579 110.512C430.235 110.512 432.612 117.384 431.858 118.972C431.103 120.559 430.59 113.589 429.315 113.68C428.839 113.717 428.484 113.808 429.36 117.747C430.198 120.876 431.206 123.958 432.379 126.978C434.401 137.902 443.276 172.852 457.184 166.456C464.973 162.873 468.127 147.012 468.127 147.012H461.26Z" fill="#B78876"/>
<path d="M434.431 118.843C434.491 118.858 434.553 118.858 434.612 118.843C434.703 118.815 434.781 118.756 434.833 118.675C434.884 118.595 434.905 118.499 434.891 118.405C434.891 117.936 434.801 117.256 434.695 116.371C434.518 115.305 434.403 114.23 434.348 113.15C434.348 112.515 434.348 111.835 434.386 111.117C434.397 110.752 434.435 110.388 434.499 110.028C434.559 109.688 434.786 109.272 435.05 109.34H435.095C435.359 109.34 435.571 109.537 435.654 109.854C435.747 110.183 435.783 110.526 435.759 110.867C435.915 112.985 436.184 115.092 436.567 117.18C436.627 117.46 436.688 117.747 436.778 118.034C436.818 118.181 436.869 118.325 436.929 118.465C436.968 118.543 437.011 118.619 437.057 118.692C437.091 118.747 437.138 118.794 437.193 118.828C437.248 118.862 437.31 118.883 437.374 118.889C437.484 118.876 437.588 118.832 437.673 118.761C437.757 118.689 437.819 118.594 437.85 118.488C437.915 118.34 437.963 118.185 437.993 118.027C438.052 117.722 438.092 117.414 438.114 117.104C438.183 115.845 438.165 114.582 438.061 113.324C437.966 112.697 437.94 112.06 437.986 111.427C438.013 111.153 438.146 110.901 438.355 110.724C438.404 110.695 438.458 110.677 438.514 110.67C438.57 110.664 438.626 110.669 438.68 110.686C438.744 110.701 438.805 110.727 438.861 110.762C438.899 110.79 438.928 110.83 438.944 110.875C439.182 111.488 439.356 112.124 439.465 112.772C439.601 113.438 439.714 114.126 439.819 114.814C439.925 115.502 440.023 116.197 440.106 116.9C440.171 117.626 440.287 118.346 440.453 119.055C440.543 119.417 440.656 119.774 440.793 120.121C440.87 120.315 440.977 120.496 441.11 120.658C441.161 120.725 441.23 120.776 441.309 120.805C441.387 120.835 441.473 120.841 441.555 120.824C441.632 120.799 441.7 120.754 441.754 120.694C441.809 120.635 441.847 120.562 441.865 120.484C441.954 120.097 441.982 119.699 441.948 119.304C441.948 118.926 441.902 118.548 441.865 118.185C441.812 117.55 441.751 116.923 441.729 116.303C441.71 115.998 441.71 115.693 441.729 115.388C441.744 115.253 441.777 115.121 441.827 114.995C441.843 114.954 441.866 114.915 441.895 114.882H441.993C442.491 114.678 442.657 115.373 442.793 115.933C442.929 116.492 442.982 117.127 443.102 117.724C443.298 118.911 443.555 120.098 443.683 121.232C443.771 121.775 443.75 122.33 443.623 122.865C443.442 123.409 443.261 123.946 443.087 124.483V124.536V124.581C443.971 128.295 445.098 131.947 446.461 135.513C447.653 138.741 448.853 141.561 449.902 143.829C450.951 146.097 451.902 147.874 452.551 149.068L453.305 150.421C453.387 150.583 453.486 150.735 453.6 150.875C453.536 150.707 453.458 150.545 453.366 150.391L452.611 149.008C451.992 147.79 451.102 145.984 450.075 143.716C449.049 141.448 447.887 138.628 446.725 135.4C445.395 131.839 444.291 128.198 443.419 124.498V124.604C443.593 124.075 443.766 123.538 443.947 123.001C444.105 122.412 444.135 121.796 444.038 121.194C443.902 120.007 443.653 118.858 443.457 117.664C443.344 117.074 443.268 116.469 443.148 115.849C443.14 115.531 443.086 115.215 442.989 114.912C442.903 114.728 442.757 114.578 442.574 114.489C442.38 114.425 442.171 114.425 441.978 114.489H441.857C441.793 114.509 441.734 114.543 441.683 114.587C441.6 114.658 441.535 114.749 441.495 114.851C441.426 115.015 441.382 115.189 441.367 115.366C441.344 115.693 441.344 116.021 441.367 116.348C441.367 116.983 441.457 117.618 441.51 118.253C441.51 118.624 441.57 119.009 441.585 119.35C441.615 119.691 441.598 120.034 441.533 120.37C441.533 120.446 441.472 120.431 441.533 120.469L441.487 120.423C441.391 120.3 441.315 120.162 441.261 120.015C441.129 119.688 441.021 119.352 440.936 119.009C440.771 118.321 440.657 117.621 440.597 116.915C440.516 116.205 440.418 115.502 440.302 114.806C440.197 114.111 440.076 113.43 439.94 112.75C439.826 112.057 439.634 111.38 439.367 110.731C439.315 110.623 439.234 110.531 439.133 110.467C439.045 110.416 438.951 110.375 438.853 110.346C438.746 110.317 438.634 110.311 438.524 110.326C438.414 110.342 438.308 110.379 438.212 110.436C438.056 110.553 437.927 110.7 437.83 110.869C437.734 111.039 437.674 111.226 437.654 111.419C437.605 111.763 437.605 112.111 437.654 112.455C437.654 112.78 437.729 113.098 437.752 113.415C437.857 114.652 437.879 115.895 437.82 117.135C437.802 117.429 437.764 117.722 437.706 118.012C437.685 118.147 437.647 118.279 437.593 118.405C437.574 118.455 437.546 118.501 437.51 118.541C437.51 118.609 437.457 118.541 437.465 118.631C437.465 118.556 437.465 118.631 437.465 118.533C437.432 118.482 437.401 118.429 437.374 118.374C437.322 118.253 437.276 118.117 437.231 117.989C437.148 117.717 437.088 117.437 437.027 117.165C436.634 115.095 436.349 113.005 436.174 110.905C436.197 110.525 436.154 110.144 436.046 109.779C435.996 109.588 435.894 109.415 435.752 109.28C435.678 109.208 435.59 109.153 435.494 109.116C435.398 109.08 435.296 109.063 435.193 109.068H435.239C435.111 109.049 434.98 109.069 434.864 109.124C434.747 109.179 434.649 109.267 434.582 109.378C434.47 109.558 434.393 109.759 434.356 109.968C434.292 110.343 434.257 110.722 434.25 111.102C434.25 111.858 434.25 112.515 434.25 113.158C434.322 114.244 434.46 115.325 434.665 116.394C434.793 117.271 434.891 117.951 434.937 118.412C434.951 118.493 434.937 118.576 434.897 118.648C434.857 118.72 434.794 118.775 434.718 118.805C434.491 118.828 434.424 118.836 434.431 118.843Z" fill="#A36957"/>
<path d="M385.28 157.422C383.807 157.39 382.337 157.561 380.91 157.928C377.009 158.957 370.285 163.039 370.005 168.082H374.896C374.896 168.082 372.156 173.918 372.956 173.374C375.047 171.967 379.197 167.741 379.197 167.741L385.28 157.422Z" fill="#B78876"/>
<path d="M451.939 69.552C451.826 69.552 451.388 65.5149 450.951 60.48C450.513 55.445 450.241 51.408 450.347 51.408C450.453 51.408 450.898 55.445 451.336 60.48C451.773 65.5149 452.045 69.552 451.939 69.552Z" fill="#263238"/>
<path d="M473.38 51.7179C473.463 51.7783 470.165 56.5789 466.007 62.4379C461.848 68.2969 458.4 73.0219 458.309 72.9312C458.218 72.8405 461.524 68.0701 465.682 62.2111C469.84 56.3521 473.289 51.6574 473.38 51.7179Z" fill="#263238"/>
<path d="M482.285 73.4757C482.285 73.5815 478.451 74.466 473.681 75.4488C468.912 76.4316 465.018 77.1423 464.995 77.0364C464.973 76.9306 468.821 76.0461 473.598 75.0633C478.375 74.0805 482.232 73.3698 482.285 73.4757Z" fill="#263238"/>
<path d="M225.646 177.312L198.93 314.753L195.459 332.746L373.56 331.884C381.56 331.846 388.654 324.732 391.212 314.163L422.802 184.411C424.757 176.39 420.47 168.044 414.403 168.051L234.098 168.24C230.174 168.233 226.657 171.952 225.646 177.312Z" fill="#2B5FB5"/>
<g opacity="0.5">
<path d="M225.646 177.312L198.93 314.753L195.459 332.746L373.56 331.884C381.56 331.846 388.654 324.732 391.212 314.163L422.802 184.411C424.757 176.39 420.47 168.044 414.403 168.051L234.098 168.24C230.174 168.233 226.657 171.952 225.646 177.312Z" fill="#548CE8"/>
</g>
<path d="M356.497 305.424L337.631 153.158C336.876 146.921 331.903 142.264 326.039 142.287L284.683 142.415C283.146 142.433 281.629 142.763 280.224 143.387C278.819 144.011 277.555 144.915 276.51 146.044L256.889 166.963L141.878 167.582C134.852 167.62 129.448 174.288 130.376 181.773L147.892 322.502C148.647 328.731 153.62 333.381 159.469 333.373L359.946 332.973C382.269 333.434 384.405 326.834 384.405 326.834C358.776 332.511 356.497 305.462 356.497 305.424Z" fill="#2B5FB5"/>
<g opacity="0.5">
<path d="M270.05 274.972L263.288 282.245L211.216 235.312L217.978 228.04L270.05 274.972Z" fill="white"/>
<path d="M260.458 226.429L267.929 233.165L220.816 283.855L213.337 277.119L260.458 226.429Z" fill="white"/>
</g>
<path d="M385.122 78.4577C384.877 78.3545 384.667 78.1839 384.516 77.9657C384.365 77.7475 384.28 77.4907 384.269 77.2254L383.967 70.2097C383.956 69.9917 383.996 69.7742 384.084 69.5745C384.172 69.3747 384.305 69.1982 384.473 69.0588C384.64 68.9194 384.838 68.8211 385.05 68.7715C385.262 68.722 385.483 68.7226 385.695 68.7733C386.28 68.8996 386.883 68.9051 387.47 68.7894C388.057 68.6737 388.613 68.4393 389.106 68.1005C389.56 67.8127 389.95 67.4348 390.253 66.9901C390.555 66.5454 390.763 66.0434 390.865 65.515C390.933 64.9799 390.893 64.4365 390.748 63.9171C390.603 63.3976 390.355 62.9127 390.019 62.491C389.666 62.0111 389.221 61.6059 388.711 61.2984C388.201 60.991 387.635 60.7874 387.046 60.6992C385.859 60.6331 384.684 60.9703 383.711 61.6563C382.739 62.3423 382.026 63.3369 381.688 64.4792C381.575 64.8253 381.333 65.1145 381.013 65.2866C380.693 65.4587 380.319 65.5003 379.969 65.4029C379.618 65.3054 379.319 65.0764 379.133 64.7635C378.948 64.4506 378.889 64.078 378.971 63.7232C379.485 61.9265 380.6 60.3617 382.13 59.292C383.659 58.2222 385.51 57.7127 387.371 57.8491C388.339 57.9784 389.272 58.3013 390.113 58.7987C390.954 59.2961 391.687 59.9578 392.268 60.7446C392.834 61.4738 393.247 62.3091 393.484 63.2013C393.721 64.0934 393.778 65.0241 393.649 65.9383C393.478 66.8512 393.122 67.7193 392.602 68.489C392.083 69.2587 391.412 69.9138 390.631 70.4138C389.498 71.1774 388.176 71.6094 386.812 71.6612L387.046 77.0742C387.055 77.312 387.003 77.5482 386.897 77.7609C386.79 77.9735 386.632 78.1558 386.436 78.2907C386.24 78.4257 386.014 78.509 385.777 78.5329C385.541 78.5568 385.303 78.5205 385.084 78.4274L385.122 78.4577Z" fill="#2B5FB5"/>
<path d="M387.189 81.3305C387.205 81.5588 387.153 81.7867 387.04 81.9853C386.926 82.184 386.757 82.3445 386.552 82.4465C386.348 82.5484 386.117 82.5874 385.891 82.5583C385.664 82.5292 385.451 82.4335 385.279 82.2831C385.107 82.1328 384.983 81.9347 384.923 81.7138C384.863 81.4929 384.87 81.2592 384.943 81.0423C385.016 80.8254 385.151 80.635 385.332 80.4952C385.513 80.3554 385.731 80.2725 385.959 80.257C386.11 80.2457 386.263 80.2645 386.407 80.3125C386.551 80.3605 386.684 80.4366 386.798 80.5365C386.912 80.6363 387.006 80.7579 387.073 80.8942C387.14 81.0305 387.18 81.1788 387.189 81.3305Z" fill="#2B5FB5"/>
<path d="M360.874 68.5616C360.907 68.412 360.929 68.2605 360.942 68.108C360.942 67.7754 361.025 67.352 361.086 66.7548C361.16 66.0215 361.283 65.2941 361.455 64.5775C361.553 64.1541 361.606 63.6854 361.757 63.2091C361.908 62.7328 362.059 62.2188 362.225 61.6971C363.099 59.1126 364.372 56.6814 365.998 54.4924C368.13 51.6579 370.832 49.3038 373.93 47.5826C375.693 46.5867 377.571 45.8098 379.522 45.2692C381.628 44.7101 383.796 44.4255 385.974 44.4225C387.122 44.4041 388.269 44.4647 389.408 44.604C389.989 44.6644 390.563 44.8156 391.144 44.9139C391.732 45.0148 392.311 45.1562 392.88 45.3373C395.258 46.0032 397.521 47.0307 399.589 48.384C404.186 51.3711 407.688 55.7762 409.565 60.9336C410.576 63.6962 411.087 66.6172 411.075 69.5595C411.106 72.5906 410.571 75.6009 409.497 78.435L409.158 79.2968L409.112 79.4102L409.158 79.5236C411.052 83.8857 412.931 88.1722 414.705 92.3227L415.022 91.9598L403.702 87.6128L403.566 87.5599L403.452 87.6657C400.458 90.5724 396.792 92.6917 392.781 93.8347C389.355 94.7798 385.767 94.9861 382.254 94.4401C378.742 93.8941 375.385 92.6081 372.406 90.667C369.965 89.0637 367.814 87.057 366.044 84.7324C363.478 81.3394 361.816 77.3487 361.214 73.1354C361.123 72.3794 361.048 71.7444 360.98 71.1698C360.912 70.5952 360.98 70.1265 360.942 69.7258C360.904 69.3252 360.942 69.0606 360.942 68.8413C360.98 68.8356 361.014 68.8159 361.038 68.786C361.061 68.7562 361.073 68.7185 361.07 68.6805C361.067 68.6424 361.05 68.6069 361.022 68.581C360.994 68.555 360.958 68.5406 360.919 68.5406C360.881 68.5406 360.845 68.555 360.817 68.581C360.789 68.6069 360.772 68.6424 360.769 68.6805C360.766 68.7185 360.778 68.7562 360.801 68.786C360.825 68.8159 360.859 68.8356 360.897 68.8413C360.897 69.0606 360.897 69.3554 360.897 69.7258C360.897 70.0963 360.897 70.6104 360.897 71.1849C360.897 71.7595 361.025 72.4172 361.101 73.1656C361.349 74.984 361.781 76.7724 362.391 78.503C363.255 80.7885 364.417 82.9493 365.847 84.929C367.625 87.295 369.791 89.3403 372.255 90.977C375.271 92.9665 378.675 94.2907 382.242 94.8616C385.808 95.4325 389.455 95.2371 392.94 94.2883C396.999 93.1335 400.711 90.9938 403.747 88.0588L403.498 88.1118L414.818 92.4814L415.384 92.7007L415.135 92.1186C413.339 87.9681 411.482 83.6892 409.595 79.3195V79.5387L409.943 78.6542C411.044 75.7583 411.592 72.6809 411.558 69.5822C411.581 66.5774 411.07 63.5924 410.048 60.7672C408.131 55.5071 404.551 51.0183 399.853 47.9833C397.733 46.5985 395.411 45.5527 392.97 44.8837C392.393 44.7006 391.803 44.5616 391.204 44.4679C390.616 44.362 390.035 44.2108 389.446 44.1579C388.292 44.0144 387.13 43.9487 385.967 43.9614C383.754 43.9708 381.552 44.2707 379.416 44.8534C377.44 45.4158 375.537 46.2127 373.749 47.2273C370.62 48.9907 367.901 51.4001 365.772 54.2959C364.151 56.5211 362.895 58.9916 362.051 61.614C361.893 62.1583 361.742 62.6799 361.606 63.126C361.486 63.5817 361.391 64.0435 361.319 64.5094C361.158 65.231 361.052 65.964 361.002 66.7018C360.957 67.284 360.927 67.73 360.904 68.0626C360.873 68.2269 360.863 68.3947 360.874 68.5616Z" fill="#263238"/>
</svg>
