<svg width="662" height="404" viewBox="0 0 662 404" fill="none" xmlns="http://www.w3.org/2000/svg">
<path d="M153.354 191.647L121.544 275.502L257.449 318.704L289.259 234.849L153.354 191.647Z" fill="#EBEBEB"/>
<path d="M289.25 234.829C288.714 235.117 288.149 235.357 287.564 235.548L282.63 237.374L264.376 243.911L203.843 265.121L203.34 265.291L203.057 264.879L202.36 263.877L167.477 212.924L157.026 197.411L154.246 193.16C153.902 192.677 153.606 192.166 153.363 191.633C153.78 192.065 154.15 192.533 154.467 193.031L157.459 197.16L168.254 212.504L203.472 263.271C203.702 263.618 203.94 263.957 204.161 264.273L203.375 264.03L264.05 243.159L282.453 236.946L287.476 235.33C288.048 235.11 288.642 234.943 289.25 234.829Z" fill="#E0E0E0"/>
<path d="M121.543 275.528C121.358 275.245 135.94 267.004 154.105 257.114C172.27 247.224 187.152 239.443 187.337 239.725C187.523 240.008 172.941 248.25 154.767 258.14C136.593 268.03 121.729 275.77 121.543 275.528Z" fill="#E0E0E0"/>
<path d="M232.909 252.993C233.245 252.888 239.017 267.537 245.796 285.644C252.575 303.751 257.792 318.578 257.447 318.683C257.103 318.788 251.339 304.139 244.56 286.032C237.782 267.925 232.565 253.098 232.909 252.993Z" fill="#E0E0E0"/>
<path d="M554.407 169.821L419.926 190.687L435.29 273.665L569.771 252.799L554.407 169.821Z" fill="#E0E0E0"/>
<path d="M554.394 169.858C554.092 170.32 553.743 170.756 553.352 171.159L550.166 174.738L538.25 187.795C528.02 198.841 514.021 213.958 498.53 230.7L498.203 231.056L497.762 230.829L496.685 230.288L442.295 202.509L425.887 193.977L421.473 191.609C420.941 191.358 420.438 191.058 419.973 190.712C420.535 190.901 421.078 191.133 421.597 191.407L426.143 193.597L442.745 201.806L497.312 229.278L498.389 229.819L497.621 229.949L537.641 187.262L549.848 174.439C551.252 173.009 552.364 171.862 553.211 170.989C553.572 170.584 553.968 170.205 554.394 169.858Z" fill="#EBEBEB"/>
<path d="M435.278 273.694C434.987 273.532 442.993 260.588 453.161 244.784C463.329 228.979 471.821 216.294 472.112 216.455C472.403 216.617 464.397 229.553 454.229 245.365C444.061 261.178 435.569 273.847 435.278 273.694Z" fill="#EBEBEB"/>
<path d="M516.625 208.464C516.854 208.238 528.982 217.974 543.608 230.223C558.234 242.473 569.991 252.589 569.753 252.847C569.514 253.106 557.448 243.321 542.77 231.088C528.091 218.855 516.36 208.714 516.625 208.464Z" fill="#EBEBEB"/>
<path d="M419.984 37.9252L395.757 94.3126L487.148 127.217L511.375 70.8292L419.984 37.9252Z" fill="#EBEBEB"/>
<path d="M511.347 71.5807C510.976 71.7701 510.582 71.9192 510.173 72.0251L506.757 73.1563L494.108 77.1559L452.173 90.0839L451.829 90.1889L451.652 89.8981L451.211 89.2032L428.976 53.5623C426.196 49.0456 423.936 45.3611 422.321 42.7189L420.556 39.7536C420.331 39.415 420.142 39.0579 419.991 38.687C420.264 38.9918 420.507 39.3191 420.715 39.6647C421.191 40.4 421.827 41.3615 422.63 42.5573L429.532 53.2795C435.323 62.4341 443.258 74.9581 452.014 88.8315L452.455 89.5345L451.934 89.3486L493.941 76.6469L506.651 72.8573L510.12 71.912C510.519 71.7719 510.929 71.6611 511.347 71.5807Z" fill="#E0E0E0"/>
<path d="M395.735 95.0773C395.611 94.8834 405.806 89.6233 418.499 83.3371C431.192 77.0508 441.572 72.122 441.687 72.316C441.801 72.5099 431.624 77.77 418.923 84.032C406.221 90.294 395.85 95.2793 395.735 95.0773Z" fill="#E0E0E0"/>
<path d="M472.368 82.5454C472.606 82.4807 476.101 92.605 480.171 105.169C484.24 117.734 487.364 127.939 487.126 128.003C486.888 128.068 483.392 117.952 479.323 105.379C475.254 92.8069 472.129 82.61 472.368 82.5454Z" fill="#E0E0E0"/>
<path d="M583.955 369.321C583.955 369.434 470.691 369.531 331.009 369.531C191.327 369.531 78.0454 369.434 78.0454 369.321C78.0454 369.208 191.283 369.111 331.009 369.111C470.735 369.111 583.955 369.199 583.955 369.321Z" fill="#263238"/>
<path d="M103.007 149.044L115.63 144.947L110.201 138.313C109.932 136.848 109.802 135.364 109.813 133.878C109.816 133.112 109.959 132.353 110.236 131.631C110.543 130.723 110.985 129.859 111.552 129.062C111.692 128.926 111.782 128.754 111.808 128.568C111.834 128.383 111.795 128.195 111.697 128.032C111.599 127.868 111.446 127.737 111.261 127.658C111.077 127.579 110.869 127.555 110.669 127.591C109.786 127.793 108.127 129.636 107.377 132.367C106.626 135.098 104.579 131.074 103.846 129.627C103.113 128.181 100.448 123.786 99.768 123.648C98.7794 123.446 98.3646 124.384 99.1766 125.814C99.9887 127.244 102.081 131.704 101.216 132.043C100.351 132.383 96.5463 124.933 96.5463 124.933C96.5463 124.933 96.0167 123.22 95.0104 123.584C93.1922 124.23 97.8968 131.866 98.3646 132.577C98.6912 133.078 97.7732 133.474 97.4819 132.924C97.1906 132.375 93.8542 125.418 92.0006 126.064C90.5795 126.557 95.8048 132.375 95.6195 134.144C95.4341 135.914 92.1506 129.369 90.8089 129.886C90.3147 130.08 89.9263 130.29 92.4507 133.813C93.6871 135.461 95.0158 137.05 96.4315 138.572L103.025 149.028" fill="#FFBE9D"/>
<path d="M216.615 163.168C216.615 163.168 210.384 149.852 206.085 143.38C202.034 137.287 196.667 136.301 193.807 136.108C192.621 135.774 191.404 135.544 190.171 135.421L166.824 135.251C161.721 135.294 156.791 136.949 152.869 139.938C151.783 140.746 143.707 149.326 132.983 161.543L114.226 142.959L103.042 149.019C103.042 149.019 115.188 187.407 130.405 184.773C139.461 183.23 146.523 177.477 146.523 177.477L158.395 168.718L158.668 170.173C158.906 171.942 159.507 174.803 159.966 176.532C161.396 182.018 162.199 189.242 159.083 194.025C159.083 194.025 154.855 196.99 158.2 200.247H202.201C202.201 200.247 208.433 196.376 202.74 192.078L199.209 183.909L201.513 173.938L202.395 169.947L206.27 176.023C206.27 176.023 213.932 184.846 221.902 183.763C231.479 182.454 237.031 166.48 228.39 145.359L217.974 148.26L216.615 163.168Z" fill="#2B5FB5"/>
<g opacity="0.4">
<path d="M103.007 149.044L104.111 152.243L116.539 145.303L114.191 142.984L103.007 149.044Z" fill="black"/>
</g>
<g opacity="0.2">
<path d="M159.074 194.025C160.924 193.772 162.698 193.179 164.291 192.282C165.883 191.385 167.261 190.202 168.342 188.805C169.475 187.398 170.292 185.8 170.746 184.103C171.201 182.405 171.284 180.642 170.99 178.915C170.942 178.302 170.754 177.704 170.438 177.161C170.121 176.619 169.684 176.143 169.154 175.764C167.769 174.956 165.871 175.376 164.432 174.673C163.249 174.1 162.623 172.92 161.784 171.95C160.946 170.981 159.825 169.478 158.606 169.963C158.606 169.963 160.08 177.073 160.725 180.241C161.369 183.408 161.608 187.957 160.363 191.278C160.044 192.234 159.612 193.155 159.074 194.025Z" fill="black"/>
</g>
<path d="M131.182 168.064C131.195 166.926 131.416 165.798 131.835 164.727C132.105 163.623 132.477 162.541 132.947 161.495C132.946 162.634 132.724 163.763 132.294 164.832C132.024 165.936 131.652 167.017 131.182 168.064Z" fill="#263238"/>
<path d="M133.971 166.327C133.303 164.802 132.944 163.178 132.912 161.535C133.316 162.272 133.573 163.068 133.671 163.887C133.922 164.678 134.023 165.504 133.971 166.327Z" fill="#263238"/>
<path d="M217.878 119.293L201.901 142.984L214.471 146.191L228.417 126.5L217.878 119.293Z" fill="#455A64"/>
<path d="M216.88 139.477L217.419 142.943L219.652 145.569L219.873 147.719L227.887 145.488L224.648 134.984C224.907 133.57 225.014 132.136 224.966 130.702L222.759 133.377L222.15 129.013L217.64 125.692C217.523 125.614 217.39 125.557 217.249 125.525C217.108 125.494 216.961 125.488 216.818 125.508C216.674 125.528 216.536 125.574 216.412 125.643C216.288 125.712 216.18 125.803 216.095 125.911C215.943 126.105 215.871 126.342 215.892 126.58C215.913 126.819 216.025 127.042 216.21 127.212L219.837 130.136L220.076 133.748L217.428 131.518C217.169 131.297 216.848 131.146 216.501 131.082L212.855 130.411C212.726 130.388 212.592 130.39 212.463 130.417C212.334 130.444 212.212 130.495 212.106 130.567C212 130.639 211.911 130.731 211.845 130.836C211.78 130.942 211.739 131.058 211.726 131.179C211.703 131.379 211.757 131.579 211.878 131.747C211.998 131.915 212.178 132.04 212.388 132.1L215.706 133.029L219.061 136.132L215.777 134.984L211.32 135.558C211.111 135.589 210.921 135.688 210.785 135.836C210.649 135.984 210.575 136.172 210.578 136.366C210.578 136.58 210.671 136.786 210.837 136.938C211.002 137.089 211.227 137.174 211.461 137.174L214.294 137.029L215.962 137.505L212.132 138.435C211.959 138.474 211.807 138.568 211.702 138.699C211.598 138.83 211.546 138.991 211.558 139.154C211.562 139.248 211.588 139.341 211.632 139.426C211.677 139.512 211.739 139.588 211.817 139.651C211.894 139.713 211.985 139.761 212.083 139.791C212.181 139.821 212.285 139.832 212.388 139.824L216.88 139.477Z" fill="#FFBE9D"/>
<g opacity="0.4">
<path d="M217.931 148.26L217.586 152.138L229.741 149.076L228.346 145.359L217.931 148.26Z" fill="black"/>
</g>
<path d="M201.901 143.016C201.901 143.016 200.825 141.683 200.913 141.457C201.001 141.23 216.112 118.453 216.112 118.453L217.878 119.325L201.901 143.016Z" fill="#263238"/>
<path d="M221.876 125.24C221.944 125.177 222.029 125.132 222.122 125.109C222.216 125.085 222.314 125.084 222.407 125.106C222.501 125.128 222.587 125.172 222.656 125.233C222.726 125.295 222.776 125.372 222.804 125.456C222.831 125.541 222.833 125.631 222.811 125.717C222.788 125.803 222.742 125.883 222.676 125.947C222.61 126.012 222.527 126.059 222.435 126.086C222.342 126.112 222.244 126.115 222.15 126.096C222.063 126.072 221.984 126.029 221.918 125.971C221.853 125.913 221.803 125.842 221.773 125.763C221.743 125.685 221.734 125.601 221.746 125.519C221.757 125.436 221.79 125.357 221.841 125.288" fill="#263238"/>
<path d="M211.84 154.481C211.728 154.697 211.572 154.892 211.381 155.055C210.831 155.526 210.15 155.85 209.413 155.992C208.248 156.21 207.047 156.21 205.882 155.992C204.399 155.67 202.863 155.607 201.354 155.807C199.585 156.279 197.953 157.107 196.579 158.231C194.999 159.338 193.331 160.711 191.089 161.358C189.942 161.656 188.742 161.741 187.558 161.608C186.347 161.438 185.162 161.137 184.028 160.711C181.715 159.903 179.499 158.707 177.063 157.899C174.716 157.061 172.145 156.898 169.693 157.431C167.301 157.883 165.059 158.643 162.826 159.047C158.835 159.834 154.669 159.308 151.06 157.56C148.616 156.406 146.5 154.746 144.881 152.712C144.292 151.978 143.797 151.183 143.407 150.344C143.469 150.344 143.893 151.217 145.031 152.615C146.685 154.569 148.797 156.159 151.21 157.269C154.768 158.948 158.856 159.434 162.764 158.643C164.962 158.206 167.177 157.439 169.631 156.97C172.167 156.414 174.828 156.58 177.257 157.447C179.747 158.255 181.971 159.451 184.239 160.275C185.34 160.689 186.489 160.985 187.664 161.156C188.788 161.281 189.927 161.204 191.018 160.929C193.137 160.331 194.796 159.006 196.385 157.899C197.815 156.76 199.508 155.932 201.337 155.475C202.887 155.282 204.463 155.364 205.979 155.718C207.104 155.951 208.268 155.979 209.404 155.798C210.117 155.687 210.786 155.409 211.346 154.99C211.521 154.829 211.686 154.659 211.84 154.481Z" fill="#FAFAFA"/>
<path d="M216.872 169.874C216.595 168.698 216.473 167.497 216.51 166.294C216.387 165.096 216.426 163.889 216.624 162.699C216.901 163.874 217.023 165.076 216.986 166.278C217.108 167.477 217.07 168.684 216.872 169.874Z" fill="#263238"/>
<path d="M189.341 318.441C189.72 319.847 198.724 366.056 198.724 366.056L212.52 365.111L209.995 317.924L189.341 318.441Z" fill="#FFBE9D"/>
<path d="M212.935 365.846L212.891 364.513L198.194 364.796L198.283 369.175H199.165C203.208 369.296 219.731 369.547 222.406 368.812C225.425 368.012 212.935 365.846 212.935 365.846Z" fill="#2B5FB5"/>
<g opacity="0.3">
<path d="M203.587 368.981C203.326 367.917 202.636 366.982 201.654 366.363C200.651 365.72 199.433 365.42 198.212 365.515L198.291 368.997L203.587 368.981Z" fill="black"/>
</g>
<g opacity="0.3">
<path d="M219.043 367.091C219.043 367.091 223.456 368.084 222.9 368.707C222.344 369.329 205.661 369.612 198.282 369.183V368.9L217.772 368.723C217.772 368.723 218.195 367.131 219.043 367.091Z" fill="black"/>
</g>
<path d="M198.071 368.892H198.318H199.042L201.69 368.949C203.941 368.949 207.039 368.989 210.472 368.949C213.906 368.909 217.004 368.787 219.255 368.682L221.903 368.545L222.618 368.496H221.894L219.246 368.585C217.004 368.658 213.897 368.755 210.472 368.804C207.048 368.852 203.941 368.868 201.69 368.868H198.071V368.892Z" fill="#263238"/>
<path d="M217.79 368.909C217.893 368.528 218.051 368.161 218.257 367.818C218.511 367.492 218.807 367.196 219.14 366.937C218.694 367.077 218.322 367.365 218.098 367.745C217.837 368.082 217.726 368.499 217.79 368.909Z" fill="#263238"/>
<path d="M213.429 367.115C213.429 367.115 213.667 366.921 213.879 366.63C214.091 366.339 214.215 366.089 214.17 366.064C214.126 366.04 213.932 366.258 213.729 366.549C213.526 366.84 213.385 367.091 213.429 367.115Z" fill="#263238"/>
<path d="M212.229 366.598C212.229 366.598 212.493 366.493 212.741 366.299C212.988 366.105 213.155 365.919 213.129 365.887C213.102 365.854 212.864 365.992 212.617 366.186C212.37 366.379 212.193 366.573 212.229 366.598Z" fill="#263238"/>
<path d="M211.452 365.434C211.699 365.51 211.961 365.535 212.22 365.507C212.476 365.531 212.735 365.503 212.979 365.426C212.731 365.355 212.469 365.33 212.211 365.353C211.954 365.335 211.697 365.363 211.452 365.434Z" fill="#263238"/>
<path d="M211.178 364.61C211.442 364.76 211.751 364.83 212.061 364.812C212.362 364.853 212.669 364.811 212.944 364.691C212.65 364.67 212.355 364.67 212.061 364.691C211.77 364.64 211.474 364.613 211.178 364.61Z" fill="#263238"/>
<path d="M213.897 366.024C214.21 366.069 214.529 366.069 214.841 366.024C215.178 365.985 215.509 365.914 215.83 365.814C216.031 365.767 216.223 365.697 216.404 365.604C216.457 365.578 216.505 365.543 216.542 365.499C216.58 365.456 216.608 365.407 216.624 365.353C216.641 365.293 216.635 365.229 216.608 365.172C216.581 365.115 216.534 365.068 216.474 365.038C216.116 364.887 215.712 364.85 215.328 364.934C214.944 365.017 214.602 365.216 214.356 365.499C214.218 365.658 214.119 365.843 214.065 366.04C214.065 366.177 214.065 366.258 214.065 366.258C214.149 366.007 214.287 365.773 214.471 365.571C214.683 365.352 214.958 365.193 215.265 365.111C215.632 364.997 216.032 365.014 216.386 365.159C216.536 365.248 216.483 365.402 216.324 365.483C216.156 365.566 215.978 365.634 215.795 365.685C215.481 365.785 215.159 365.863 214.833 365.919C214.259 366.024 213.897 366.024 213.897 366.024Z" fill="#263238"/>
<path d="M214.144 366.024C214.246 365.854 214.277 365.656 214.232 365.466C214.199 365.255 214.108 365.055 213.968 364.885C213.881 364.764 213.764 364.664 213.625 364.595C213.486 364.526 213.331 364.489 213.173 364.489C213.128 364.496 213.084 364.511 213.045 364.533C213.006 364.556 212.972 364.585 212.946 364.62C212.92 364.655 212.901 364.694 212.892 364.735C212.882 364.776 212.882 364.819 212.891 364.86C212.914 364.99 212.972 365.112 213.058 365.216C213.189 365.392 213.343 365.552 213.517 365.693C213.669 365.837 213.857 365.945 214.065 366.008C214.065 366.008 213.87 365.87 213.606 365.62C213.451 365.475 213.315 365.315 213.2 365.143C213.067 364.982 212.97 364.675 213.2 364.634C213.324 364.646 213.444 364.681 213.552 364.738C213.66 364.795 213.753 364.873 213.826 364.965C213.961 365.115 214.055 365.293 214.1 365.483C214.135 365.661 214.149 365.843 214.144 366.024Z" fill="#263238"/>
<path d="M198.282 365.483C198.282 365.483 198.706 365.442 199.368 365.483C200.222 365.561 201.04 365.839 201.742 366.291C202.417 366.73 202.943 367.335 203.26 368.036C203.499 368.569 203.525 368.925 203.561 368.925C203.58 368.842 203.58 368.757 203.561 368.674C203.53 368.446 203.473 368.221 203.393 368.004C203.095 367.264 202.56 366.624 201.857 366.169C201.132 365.694 200.276 365.415 199.386 365.361C199.118 365.338 198.849 365.338 198.582 365.361C198.379 365.442 198.282 365.466 198.282 365.483Z" fill="#263238"/>
<path d="M205.396 367.737C206.102 367.868 206.823 367.917 207.541 367.882C208.259 367.901 208.976 367.842 209.677 367.705C209.677 367.656 208.715 367.705 207.533 367.705C206.35 367.705 205.405 367.697 205.396 367.737Z" fill="#263238"/>
<path d="M202.528 367.785C202.528 367.785 202.607 367.955 202.713 368.141C202.819 368.327 202.872 368.488 202.925 368.488C202.978 368.488 202.996 368.286 202.872 368.076C202.748 367.866 202.563 367.753 202.528 367.785Z" fill="#263238"/>
<path d="M201.425 366.654C201.425 366.654 201.487 366.816 201.637 366.945C201.787 367.074 201.946 367.155 201.981 367.123C202.016 367.09 201.919 366.961 201.76 366.832C201.601 366.703 201.451 366.63 201.425 366.654Z" fill="#263238"/>
<path d="M199.862 366.161C199.862 366.202 200.065 366.202 200.286 366.258C200.507 366.315 200.657 366.412 200.692 366.387C200.727 366.363 200.604 366.185 200.339 366.113C200.074 366.04 199.845 366.121 199.862 366.161Z" fill="#263238"/>
<path d="M198.75 365.935C198.75 365.935 198.821 366.032 198.945 366.072C199.068 366.113 199.183 366.113 199.201 366.072C199.218 366.032 199.13 365.967 199.006 365.927C198.883 365.887 198.768 365.895 198.75 365.935Z" fill="#263238"/>
<path d="M154.246 314.587C154.176 316.033 148.447 361.031 148.447 361.031L161.943 363.77L174.398 317.924L154.246 314.587Z" fill="#FFBE9D"/>
<path d="M162.552 364.965L162.861 363.673L148.509 360.74L147.458 365.014L148.341 365.24C152.234 366.242 168.219 370.088 171.017 369.951C174.124 369.797 162.552 364.965 162.552 364.965Z" fill="#2B5FB5"/>
<g opacity="0.3">
<path d="M152.702 366.024C152.729 364.933 152.303 363.873 151.51 363.059C150.703 362.214 149.597 361.656 148.385 361.483L147.556 364.885L152.702 366.024Z" fill="black"/>
</g>
<g opacity="0.3">
<path d="M168.166 367.511C168.166 367.511 172.164 369.434 171.494 369.935C170.823 370.436 154.52 367.05 147.458 365.03L147.547 364.763L166.524 368.803C166.524 368.803 167.327 367.365 168.166 367.511Z" fill="black"/>
</g>
<path d="M147.326 364.691L147.564 364.764L148.262 364.949L150.83 365.58C153.011 366.097 156.02 366.784 159.366 367.478C162.711 368.173 165.756 368.747 167.963 369.135L170.611 369.579L171.326 369.684H171.582L171.335 369.628L170.629 369.49L167.981 368.997C165.774 368.577 162.738 367.996 159.392 367.301C156.047 366.606 153.037 365.935 150.848 365.442L148.288 364.893L147.582 364.739C147.5 364.712 147.414 364.695 147.326 364.691Z" fill="#263238"/>
<path d="M166.471 369.005C166.675 368.659 166.924 368.336 167.213 368.044C167.549 367.786 167.916 367.564 168.307 367.381C167.842 367.429 167.41 367.626 167.089 367.939C166.74 368.208 166.519 368.59 166.471 369.005Z" fill="#263238"/>
<path d="M162.702 366.315C162.702 366.315 162.994 366.177 163.267 365.935C163.541 365.693 163.735 365.483 163.7 365.458C163.664 365.434 163.417 365.596 163.144 365.83C162.87 366.064 162.667 366.282 162.702 366.315Z" fill="#263238"/>
<path d="M161.669 365.555C161.875 365.538 162.072 365.474 162.243 365.369C162.534 365.232 162.755 365.087 162.729 365.054C162.702 365.022 162.446 365.095 162.155 365.232C161.864 365.369 161.652 365.515 161.669 365.555Z" fill="#263238"/>
<path d="M161.219 364.254C160.296 364.239 159.4 364.548 158.718 365.119C158.036 365.689 157.619 366.477 157.552 367.321C157.486 368.164 157.775 368.999 158.361 369.653C158.946 370.307 159.784 370.731 160.7 370.837C161.617 370.943 162.543 370.724 163.288 370.223C164.033 369.723 164.54 368.981 164.705 368.148C164.87 367.316 164.68 366.458 164.175 365.75C163.669 365.042 162.886 364.539 161.987 364.343C161.741 364.265 161.479 364.235 161.219 364.254Z" fill="#263238"/>
<path d="M161.167 363.39C161.379 363.584 161.649 363.716 161.943 363.77C162.223 363.871 162.529 363.899 162.826 363.85C162.558 363.751 162.28 363.675 161.996 363.624C161.726 363.528 161.449 363.45 161.167 363.39Z" fill="#263238"/>
<path d="M163.443 365.353C163.726 365.454 164.023 365.514 164.326 365.531C164.667 365.561 165.009 365.561 165.35 365.531C165.552 365.523 165.754 365.496 165.95 365.45C166.07 365.421 166.174 365.352 166.241 365.256C166.269 365.199 166.278 365.136 166.267 365.074C166.256 365.013 166.226 364.955 166.18 364.909C165.869 364.685 165.485 364.564 165.09 364.564C164.694 364.564 164.31 364.685 163.999 364.909C163.819 365.031 163.672 365.188 163.567 365.369C163.496 365.491 163.487 365.571 163.496 365.571C163.646 365.348 163.841 365.154 164.07 364.998C164.33 364.832 164.636 364.736 164.953 364.723C165.339 364.691 165.724 364.795 166.03 365.014C166.153 365.135 166.03 365.264 165.88 365.313C165.698 365.359 165.511 365.389 165.323 365.402C164.991 365.422 164.658 365.422 164.326 365.402C163.796 365.394 163.452 365.329 163.443 365.353Z" fill="#263238"/>
<path d="M163.673 365.434C163.673 365.434 163.867 365.281 163.911 364.917C163.93 364.704 163.891 364.49 163.797 364.295C163.744 364.159 163.655 364.037 163.538 363.939C163.421 363.842 163.279 363.773 163.126 363.737C163.08 363.735 163.034 363.741 162.991 363.756C162.948 363.77 162.908 363.792 162.874 363.821C162.84 363.85 162.813 363.884 162.794 363.922C162.775 363.961 162.765 364.002 162.764 364.044C162.754 364.174 162.778 364.305 162.835 364.424C162.914 364.622 163.02 364.809 163.152 364.982C163.265 365.154 163.419 365.301 163.603 365.41C163.603 365.41 163.453 365.232 163.258 364.933C163.148 364.758 163.057 364.574 162.985 364.384C162.896 364.19 162.888 363.875 163.126 363.891C163.364 363.907 163.55 364.158 163.647 364.343C163.739 364.52 163.787 364.713 163.788 364.909C163.771 365.087 163.732 365.263 163.673 365.434Z" fill="#263238"/>
<path d="M148.42 361.426C148.42 361.426 148.835 361.475 149.471 361.677C150.28 361.928 151.004 362.368 151.572 362.954C152.113 363.532 152.468 364.237 152.595 364.99C152.632 365.296 152.649 365.603 152.648 365.911C152.648 365.911 152.693 365.822 152.71 365.668C152.738 365.438 152.738 365.205 152.71 364.974C152.613 364.194 152.263 363.459 151.704 362.865C151.113 362.256 150.349 361.808 149.497 361.572C149.238 361.5 148.972 361.451 148.703 361.426C148.609 361.412 148.514 361.412 148.42 361.426Z" fill="#263238"/>
<path d="M154.741 365.168C155.389 365.449 156.074 365.653 156.78 365.774C157.473 365.949 158.188 366.047 158.907 366.064C158.907 366.024 157.962 365.879 156.824 365.628C155.685 365.378 154.758 365.127 154.741 365.168Z" fill="#263238"/>
<path d="M151.942 364.586C151.942 364.586 151.942 364.772 152.031 364.974C152.119 365.176 152.092 365.345 152.145 365.353C152.198 365.361 152.269 365.176 152.207 364.949C152.145 364.723 151.978 364.561 151.942 364.586Z" fill="#263238"/>
<path d="M151.157 363.253C151.157 363.253 151.157 363.422 151.298 363.576C151.439 363.729 151.545 363.842 151.58 363.826C151.616 363.81 151.58 363.657 151.448 363.503C151.316 363.35 151.201 363.228 151.157 363.253Z" fill="#263238"/>
<path d="M149.771 362.428C149.771 362.477 149.965 362.509 150.159 362.614C150.354 362.719 150.486 362.849 150.53 362.832C150.574 362.816 150.53 362.614 150.248 362.485C149.965 362.356 149.771 362.388 149.771 362.428Z" fill="#263238"/>
<path d="M148.756 361.984C148.756 361.984 148.8 362.097 148.906 362.162C149.012 362.226 149.127 362.251 149.153 362.21C149.18 362.17 149.153 362.097 149.003 362.032C148.853 361.968 148.782 361.935 148.756 361.984Z" fill="#263238"/>
<path d="M204.911 114.187C204.549 113.225 203.658 112.506 203.225 111.569C202.581 110.163 203.058 108.571 203.225 107.06C203.393 105.549 203.049 103.707 201.539 103.085C200.879 102.927 200.23 102.73 199.598 102.495C198.415 101.816 198.477 100.281 198.371 99.0123C198.299 98.1734 198.066 97.3528 197.682 96.5883L197.929 96.5156C198.824 96.3174 199.766 96.4136 200.59 96.7873C201.415 97.1611 202.07 97.7886 202.44 98.5598C202.603 98.8825 202.674 99.2379 202.646 99.5926C202.618 99.9473 202.493 100.29 202.281 100.588C202.099 100.836 201.831 101.021 201.521 101.114C201.21 101.206 200.875 101.2 200.569 101.097C200.331 100.984 200.141 100.802 200.028 100.58C199.915 100.358 199.884 100.108 199.942 99.8688C200.016 99.6958 200.153 99.5515 200.33 99.4603C200.507 99.369 200.713 99.3364 200.913 99.3678C201.047 99.3782 201.176 99.4145 201.294 99.4745C201.411 99.5344 201.513 99.6165 201.592 99.7153C201.698 99.8607 201.707 99.9657 201.725 99.9577C201.742 99.9496 201.725 99.8526 201.725 99.6749C201.65 99.545 201.543 99.4329 201.413 99.3474C201.283 99.2618 201.133 99.2052 200.975 99.182C200.747 99.1432 200.513 99.1599 200.295 99.2305C200.158 99.277 200.035 99.3503 199.933 99.4452C199.831 99.5401 199.752 99.6544 199.703 99.7799C199.601 100.085 199.619 100.414 199.752 100.708C199.886 101.003 200.128 101.246 200.436 101.396C200.821 101.55 201.253 101.578 201.658 101.475C202.063 101.372 202.417 101.145 202.66 100.83C202.929 100.481 203.094 100.075 203.14 99.6501C203.187 99.2255 203.113 98.7971 202.925 98.4063C202.555 97.5879 201.898 96.9056 201.057 96.4668C200.217 96.0279 199.24 95.8575 198.282 95.9823C198.49 95.6616 198.622 95.3046 198.669 94.9343C198.716 94.564 198.678 94.1888 198.556 93.833C198.394 93.3995 198.126 93.0054 197.773 92.6807C197.419 92.3559 196.99 92.1089 196.517 91.9585C195.689 91.6796 194.788 91.6345 193.931 91.8292C193.206 91.9904 192.516 92.2637 191.892 92.6372C191.318 92.9765 190.877 93.3482 190.453 93.5987C190.102 93.8306 189.692 93.9753 189.262 94.0189C188.892 94.0501 188.52 93.9798 188.194 93.8169C188.194 93.8169 188.467 94.2047 189.27 94.2047C189.744 94.1927 190.206 94.0613 190.603 93.8249C191.071 93.5825 191.539 93.2189 192.086 92.92C192.699 92.5311 193.402 92.277 194.14 92.1775C194.878 92.078 195.631 92.1357 196.341 92.3463C196.75 92.4749 197.121 92.6873 197.427 92.9674C197.733 93.2474 197.965 93.5877 198.106 93.9623C198.237 94.3379 198.249 94.7397 198.141 95.1214C198.033 95.503 197.81 95.8491 197.497 96.1197C197.05 95.3753 196.391 94.7555 195.59 94.3259C193.825 93.4129 191.177 93.8573 190.294 95.5217L175.81 90.9646C174.902 90.2659 173.816 89.7878 172.653 89.5746C171.49 89.3613 170.286 89.4198 169.154 89.7445L168.854 89.6961C168.018 89.6242 167.175 89.7523 166.409 90.0677C165.448 90.5614 164.609 91.2328 163.947 92.0393C163.55 92.4577 163.082 92.8151 162.561 93.0977C162.469 93.1349 162.375 93.1673 162.278 93.1947C161.637 93.261 160.991 93.2826 160.345 93.2593C159.127 93.0008 157.865 92.3625 156.365 92.2251C155.526 92.1212 154.672 92.1762 153.858 92.3867C152.992 92.6201 152.216 93.0707 151.616 93.6876C150.985 94.3342 150.639 95.1721 150.645 96.0389C150.656 96.6609 150.763 97.2783 150.963 97.873C150.637 98.673 150.493 99.5252 150.539 100.378C150.601 101.501 150.954 102.681 150.971 103.78C150.617 104.033 150.212 104.222 149.78 104.337C149.021 104.555 148.2 104.66 147.423 104.935C146.696 105.206 146.041 105.617 145.502 106.14C144.963 106.662 144.552 107.285 144.299 107.965C144.056 108.508 143.964 109.098 144.032 109.682C144.1 110.266 144.325 110.825 144.687 111.31C144.502 112.047 144.497 112.813 144.674 113.553C144.851 114.292 145.205 114.986 145.711 115.584C146.514 116.283 147.272 117.025 147.979 117.806C148.933 119.156 148.791 120.893 149.038 122.485C149.286 124.076 150.283 125.886 152.039 125.991C153.452 126.072 154.687 124.99 156.135 125.095C158.112 125.24 158.924 127.414 160.072 128.9C160.813 129.834 161.813 130.57 162.97 131.03C164.126 131.491 165.396 131.659 166.648 131.518C168.413 131.3 170.231 130.427 171.988 130.831C174.203 131.348 175.518 133.724 177.805 134.023C179.482 134.241 181.044 133.215 182.297 132.165C183.551 131.114 184.813 129.902 186.49 129.627C188.502 129.296 190.444 130.435 192.474 130.662C193.792 130.806 195.127 130.593 196.314 130.048C197.5 129.504 198.485 128.652 199.147 127.599C200.26 125.749 200.251 123.479 201.301 121.596C202.105 120.397 202.989 119.244 203.949 118.146C204.779 117.006 205.423 115.544 204.911 114.187ZM146.832 108.224C146.669 108.192 146.5 108.192 146.337 108.224C146.337 108.224 146.488 108.224 146.735 108.312L146.461 108.498C145.635 109.128 145.037 109.974 144.749 110.922C144.53 110.493 144.409 110.027 144.394 109.553C144.379 109.079 144.47 108.608 144.66 108.167C144.903 107.547 145.286 106.982 145.786 106.509C146.285 106.035 146.888 105.664 147.556 105.42C148.262 105.177 149.065 105.072 149.886 104.846C150.241 104.754 150.58 104.616 150.892 104.434C150.855 104.874 150.713 105.301 150.477 105.686C149.718 106.89 148.112 107.399 146.832 108.224ZM156.718 93.3563C155.544 93.5592 154.439 94.0115 153.492 94.6767C152.545 95.3419 151.781 96.2015 151.263 97.1862C151.173 96.8229 151.125 96.4518 151.122 96.0793C151.117 95.3243 151.416 94.5941 151.96 94.0269C152.506 93.5009 153.183 93.1045 153.933 92.8722C154.684 92.6399 155.485 92.5786 156.267 92.6937C157.081 92.7915 157.878 92.9787 158.642 93.2513C157.998 93.2417 157.355 93.2768 156.718 93.3563ZM163.982 92.7988C163.805 92.8715 163.62 92.92 163.444 92.9765C163.701 92.7626 163.946 92.536 164.176 92.2978C164.801 91.5149 165.587 90.8507 166.489 90.3425C167.155 90.043 167.892 89.8987 168.634 89.9223C168.251 90.0505 167.884 90.2157 167.539 90.4152C166.303 91.1424 165.324 92.2332 163.982 92.7988Z" fill="#263238"/>
<path d="M195.379 120.554C196.067 116.578 195.855 110.05 195.485 104.709C195.407 103.57 195.078 102.458 194.519 101.439C193.959 100.42 193.18 99.5156 192.228 98.7796C191.277 98.0435 190.172 97.4914 188.981 97.1565C187.79 96.8215 186.538 96.7107 185.299 96.8307L170.126 98.3013C169.36 98.3742 168.653 98.708 168.144 99.2365C167.636 99.765 167.363 100.449 167.38 101.154L168.943 135.275H165.412V141.457C165.412 144.851 166.885 148.106 169.507 150.507C172.129 152.907 175.685 154.255 179.394 154.255C183.102 154.255 186.658 152.907 189.28 150.507C191.902 148.106 193.375 144.851 193.375 141.457V136.108C193.375 136.108 189.738 135.017 187.532 135.13H186.993C186.993 132.003 187.276 129.555 187.276 129.555C187.276 129.555 193.993 128.561 195.379 120.554Z" fill="#FFBE9D"/>
<path d="M193.216 109.888C193.216 110.155 193.103 110.412 192.901 110.605C192.698 110.798 192.422 110.912 192.13 110.922C191.987 110.933 191.843 110.918 191.707 110.876C191.57 110.835 191.444 110.769 191.336 110.683C191.228 110.596 191.141 110.49 191.078 110.372C191.016 110.253 190.981 110.124 190.974 109.993C190.974 109.726 191.087 109.468 191.289 109.276C191.492 109.083 191.768 108.969 192.06 108.959C192.203 108.949 192.346 108.965 192.482 109.007C192.618 109.048 192.744 109.114 192.851 109.201C192.959 109.287 193.047 109.393 193.109 109.511C193.172 109.629 193.208 109.757 193.216 109.888Z" fill="#263238"/>
<path d="M193.94 108.11C193.798 108.24 192.951 107.666 191.742 107.666C190.533 107.666 189.65 108.223 189.518 108.086C189.385 107.949 189.597 107.787 189.985 107.529C190.505 107.203 191.121 107.028 191.751 107.028C192.384 107.024 193.003 107.205 193.516 107.545C193.878 107.803 194.01 108.046 193.94 108.11Z" fill="#263238"/>
<path d="M181.414 109.888C181.417 110.155 181.306 110.412 181.105 110.605C180.904 110.798 180.629 110.912 180.338 110.922C180.194 110.933 180.05 110.918 179.914 110.876C179.778 110.835 179.652 110.769 179.544 110.683C179.436 110.596 179.348 110.49 179.286 110.372C179.223 110.253 179.188 110.124 179.181 109.993C179.177 109.726 179.287 109.467 179.488 109.274C179.69 109.08 179.966 108.967 180.258 108.959C180.401 108.949 180.545 108.965 180.681 109.007C180.816 109.048 180.942 109.114 181.05 109.201C181.157 109.287 181.245 109.393 181.308 109.511C181.37 109.629 181.407 109.757 181.414 109.888Z" fill="#263238"/>
<path d="M182.077 108.312C181.936 108.45 181.088 107.876 179.879 107.876C178.67 107.876 177.787 108.434 177.655 108.296C177.522 108.159 177.734 107.997 178.123 107.739C178.639 107.406 179.256 107.231 179.888 107.238C180.522 107.23 181.142 107.411 181.653 107.755C182.015 108.013 182.147 108.272 182.077 108.312Z" fill="#263238"/>
<path d="M186.455 116.506C187.09 116.324 187.749 116.215 188.414 116.182C188.723 116.182 189.014 116.102 189.067 115.908C189.086 115.626 189.016 115.345 188.864 115.1C188.573 114.421 188.273 113.702 187.982 112.95C186.719 109.896 185.801 107.383 185.943 107.335C186.94 109.09 187.787 110.913 188.476 112.789C188.776 113.548 189.067 114.259 189.358 114.954C189.553 115.294 189.61 115.687 189.517 116.061C189.471 116.161 189.401 116.249 189.313 116.321C189.224 116.392 189.119 116.444 189.005 116.473C188.836 116.516 188.661 116.538 188.485 116.538C187.809 116.607 187.127 116.596 186.455 116.506Z" fill="#263238"/>
<path d="M187.293 129.579C183.175 129.637 179.12 128.646 175.58 126.719C175.58 126.719 178.422 132.221 187.169 131.47L187.293 129.579Z" fill="#EB996E"/>
<path d="M185.943 119.172C185.713 118.907 185.413 118.699 185.072 118.569C184.731 118.439 184.359 118.391 183.992 118.429C183.726 118.452 183.467 118.523 183.232 118.64C182.997 118.757 182.79 118.916 182.624 119.107C182.461 119.291 182.365 119.516 182.348 119.752C182.33 119.987 182.393 120.222 182.527 120.424C182.722 120.619 182.976 120.758 183.257 120.822C183.538 120.887 183.833 120.875 184.107 120.788C184.673 120.612 185.198 120.338 185.651 119.98C185.788 119.89 185.904 119.778 185.996 119.649C186.041 119.588 186.065 119.516 186.065 119.443C186.065 119.369 186.041 119.297 185.996 119.237" fill="#EB996E"/>
<path d="M182.906 117.273C183.1 117.273 183.1 118.461 184.221 119.309C185.342 120.158 186.737 120.028 186.746 120.198C186.755 120.368 186.437 120.432 185.863 120.449C185.097 120.457 184.353 120.217 183.762 119.77C183.189 119.347 182.822 118.734 182.739 118.065C182.712 117.564 182.818 117.265 182.906 117.273Z" fill="#263238"/>
<path d="M182.615 106.381C182.501 106.68 181.291 106.535 179.879 106.696C178.467 106.858 177.319 107.205 177.134 106.931C177.046 106.809 177.249 106.527 177.708 106.236C178.319 105.869 179.019 105.644 179.747 105.581C180.471 105.502 181.206 105.579 181.892 105.808C182.412 106.001 182.712 106.236 182.615 106.381Z" fill="#263238"/>
<path d="M193.498 105.848C193.286 106.098 192.448 105.848 191.45 105.848C190.453 105.848 189.606 106.018 189.411 105.751C189.323 105.622 189.411 105.371 189.826 105.137C190.321 104.848 190.9 104.704 191.486 104.725C192.074 104.733 192.644 104.908 193.119 105.226C193.472 105.468 193.586 105.727 193.498 105.848Z" fill="#263238"/>
<path d="M198.741 97.566C198.141 95.4328 196.376 93.4613 194.01 93.0573C192.466 92.7988 190.886 93.2108 189.323 93.122C188.026 93.0492 187.558 92.1039 186.331 91.7322C184.283 91.1181 182.712 89.0335 178.29 89.4698C177.107 89.591 175.589 90.8434 174.503 92.2655C172.809 91.5949 170.576 92.314 169.357 92.8068C166.824 93.8168 165.244 96.4267 164.741 99.0769C164.238 101.727 164.653 104.45 165.059 107.117C165.244 108.329 165.43 109.541 165.624 110.769C165.696 111.577 165.932 112.367 166.321 113.096L164.309 130.225C165.316 130.52 166.378 130.624 167.431 130.531C168.484 130.437 169.505 130.149 170.431 129.682C171.358 129.216 172.171 128.581 172.821 127.817C173.471 127.054 173.945 126.177 174.212 125.24C174.989 121.871 172.941 118.445 173.268 115.011C173.462 112.966 174.724 111.068 174.715 109.015C174.701 108.341 174.594 107.67 174.397 107.02C177.928 104.377 178.864 102.252 178.714 99.7476C179.803 100.445 181.092 100.835 182.421 100.871C184.292 100.871 186.243 100.224 187.991 100.871C189.193 101.434 190.255 102.221 191.106 103.182C192.068 104.054 193.313 104.854 194.637 104.684C195.27 104.547 195.885 104.35 196.473 104.095C196.768 103.967 197.091 103.9 197.417 103.9C197.744 103.9 198.067 103.967 198.362 104.095C199.077 101.981 199.207 99.7374 198.741 97.566Z" fill="#263238"/>
<path d="M146.452 115.108C147.357 115.709 148.331 116.218 149.356 116.627C150.559 117.09 151.847 117.34 153.152 117.362C154.881 117.404 156.58 116.937 157.997 116.029C158.848 115.491 159.565 114.797 160.103 113.989C160.642 113.182 160.989 112.28 161.122 111.342C161.259 110.301 161.027 109.248 160.46 108.337C160.167 107.87 159.751 107.477 159.25 107.195C158.749 106.913 158.179 106.75 157.591 106.721C156.992 106.706 156.405 106.883 155.932 107.222C155.452 107.589 155.097 108.074 154.908 108.619C154.7 109.182 154.652 109.784 154.77 110.368C154.887 110.952 155.166 111.499 155.579 111.956C156.478 112.913 157.692 113.577 159.039 113.847C160.43 114.148 161.875 114.17 163.276 113.912C164.682 113.656 166.002 113.102 167.133 112.296C168.227 111.52 169.057 110.474 169.525 109.282C169.984 108.135 170.094 106.895 169.843 105.694C169.723 105.127 169.502 104.581 169.19 104.078C168.904 103.575 168.496 103.139 167.998 102.802C167.536 102.467 166.971 102.272 166.383 102.244C166.11 102.236 165.839 102.296 165.601 102.419C165.363 102.541 165.166 102.721 165.032 102.939C164.775 103.384 164.715 103.902 164.865 104.385C165.035 104.866 165.339 105.298 165.747 105.638C167.2 106.763 169.06 107.35 170.961 107.282C172.863 107.215 174.668 106.499 176.021 105.274C176.93 104.417 177.594 103.368 177.955 102.22C178.252 101.237 178.345 100.212 178.228 99.1981C178.31 99.4615 178.357 99.7326 178.369 100.006C178.432 100.775 178.355 101.547 178.14 102.293C177.79 103.479 177.13 104.569 176.216 105.468C174.972 106.657 173.308 107.404 171.52 107.577C170.442 107.705 169.346 107.623 168.304 107.338C167.263 107.052 166.298 106.57 165.474 105.921C165.016 105.538 164.681 105.05 164.503 104.507C164.323 103.925 164.396 103.303 164.706 102.769C164.876 102.492 165.125 102.263 165.427 102.105C165.728 101.947 166.071 101.867 166.418 101.873C167.101 101.898 167.758 102.119 168.298 102.503C168.847 102.871 169.297 103.349 169.613 103.901C169.954 104.452 170.195 105.049 170.328 105.67C170.603 106.945 170.49 108.264 170.002 109.484C169.507 110.759 168.629 111.879 167.468 112.716C166.276 113.557 164.886 114.132 163.408 114.397C161.948 114.663 160.443 114.638 158.995 114.324C157.549 114.029 156.246 113.315 155.279 112.288C154.823 111.765 154.519 111.145 154.396 110.486C154.287 109.836 154.345 109.172 154.564 108.547C154.777 107.916 155.185 107.355 155.738 106.931C156.298 106.536 156.99 106.331 157.697 106.349C158.36 106.381 159.002 106.567 159.564 106.89C160.126 107.212 160.589 107.66 160.91 108.191C161.511 109.174 161.755 110.305 161.608 111.423C161.46 112.408 161.088 113.353 160.515 114.197C159.941 115.04 159.18 115.764 158.28 116.32C156.805 117.252 155.039 117.717 153.249 117.645C151.915 117.61 150.601 117.336 149.383 116.837C148.61 116.534 147.881 116.146 147.211 115.681C146.982 115.528 146.823 115.39 146.708 115.31L146.452 115.108Z" fill="#455A64"/>
<path d="M199.254 101.186C199.128 101.294 198.985 101.384 198.83 101.452C198.397 101.673 197.93 101.831 197.444 101.921C196.669 102.065 195.871 102.065 195.096 101.921C194.072 101.699 193.123 101.25 192.333 100.612C191.382 99.8374 190.639 98.8725 190.162 97.7922C190.003 97.4812 189.915 97.144 189.903 96.8009C189.891 96.4579 189.955 96.1162 190.091 95.7964C190.26 95.4516 190.549 95.1675 190.912 94.9884C191.109 94.8949 191.327 94.8461 191.548 94.8461C191.769 94.8461 191.987 94.8949 192.183 94.9884C192.561 95.1896 192.854 95.5016 193.015 95.8741C193.175 96.2466 193.193 96.6576 193.066 97.0407C192.912 97.4162 192.677 97.759 192.373 98.048C192.07 98.337 191.705 98.5662 191.301 98.7214C189.675 99.3638 187.837 99.3899 186.19 98.7941C185.367 98.5222 184.577 98.1729 183.833 97.7518C183.09 97.3578 182.415 96.8649 181.83 96.2893C181.516 95.9848 181.325 95.5916 181.288 95.1745C181.252 94.7575 181.371 94.3413 181.627 93.9946C181.778 93.8266 181.976 93.6994 182.2 93.6268C182.424 93.5542 182.665 93.5389 182.898 93.5825C183.325 93.6689 183.706 93.8889 183.975 94.2047C184.243 94.5151 184.367 94.91 184.319 95.3035C184.263 95.6718 184.092 96.0173 183.825 96.2974C183.334 96.816 182.639 97.1356 181.892 97.1862C181.219 97.2302 180.544 97.1506 179.906 96.9519C179.331 96.7847 178.768 96.585 178.22 96.3539C177.249 95.9829 176.4 95.387 175.757 94.6248C175.288 94.0245 175.063 93.2926 175.121 92.5563C175.152 92.0966 175.33 91.6554 175.633 91.2878C175.739 91.1605 175.871 91.0534 176.022 90.9727C175.577 91.414 175.323 91.9884 175.307 92.5887C175.284 93.2747 175.517 93.9475 175.969 94.4955C176.599 95.2156 177.423 95.7726 178.361 96.1115C179.455 96.6177 180.665 96.878 181.892 96.8711C182.213 96.8432 182.525 96.7575 182.809 96.6189C183.094 96.4802 183.346 96.2913 183.551 96.0631C183.779 95.8516 183.917 95.5724 183.939 95.276C183.962 94.9796 183.868 94.6856 183.674 94.4471C183.277 93.9703 182.43 93.7603 182.033 94.2531C181.931 94.3766 181.858 94.5175 181.817 94.6674C181.776 94.8172 181.768 94.9731 181.794 95.1258C181.846 95.4544 181.999 95.7628 182.236 96.0146C182.791 96.5474 183.427 97.0046 184.125 97.372C184.839 97.7773 185.6 98.1105 186.393 98.3659C187.146 98.6526 187.952 98.8002 188.767 98.8002C189.582 98.8002 190.389 98.6526 191.142 98.3659C191.482 98.2352 191.79 98.0425 192.047 97.7994C192.303 97.5563 192.503 97.2679 192.634 96.9519C192.742 96.6521 192.733 96.3273 192.609 96.0326C192.485 95.738 192.254 95.4918 191.954 95.3359C191.813 95.2777 191.661 95.2471 191.507 95.2461C191.353 95.245 191.2 95.2736 191.059 95.33C190.917 95.3863 190.79 95.4691 190.686 95.5731C190.582 95.6772 190.503 95.8 190.453 95.9338C190.341 96.2064 190.289 96.4966 190.3 96.7878C190.31 97.079 190.383 97.3654 190.515 97.6306C190.959 98.6646 191.653 99.5929 192.545 100.345C193.282 100.968 194.172 101.417 195.14 101.654C195.876 101.826 196.641 101.861 197.391 101.759C198.037 101.645 198.663 101.452 199.254 101.186Z" fill="#455A64"/>
<path d="M173.762 119.98C173.657 120.091 173.532 120.184 173.391 120.255C173 120.487 172.562 120.647 172.103 120.723C171.376 120.86 170.623 120.816 169.922 120.594C169.439 120.466 168.992 120.244 168.61 119.945C168.227 119.645 167.92 119.274 167.707 118.857C167.563 118.591 167.519 118.289 167.579 117.997C167.64 117.706 167.802 117.44 168.042 117.241C168.314 117.049 168.648 116.945 168.991 116.945C169.335 116.945 169.668 117.049 169.94 117.241C170.487 117.649 170.903 118.186 171.142 118.793C171.381 119.401 171.436 120.057 171.299 120.691C171.209 121.393 170.929 122.063 170.483 122.64C170.038 123.218 169.441 123.684 168.749 123.996C167.986 124.291 167.157 124.415 166.332 124.359C165.506 124.303 164.707 124.067 164 123.672C163.269 123.297 162.646 122.768 162.182 122.129C161.946 121.809 161.785 121.448 161.711 121.068C161.636 120.688 161.649 120.298 161.749 119.923C161.855 119.548 162.072 119.207 162.376 118.938C162.53 118.799 162.714 118.692 162.916 118.621C163.118 118.55 163.334 118.517 163.55 118.526C163.946 118.553 164.329 118.674 164.66 118.876C164.991 119.079 165.259 119.356 165.439 119.681C165.766 120.267 165.944 120.914 165.959 121.572C165.985 122.178 165.92 122.784 165.765 123.374C165.488 124.446 164.874 125.42 164 126.177C163.374 126.731 162.584 127.103 161.728 127.247C160.872 127.391 159.989 127.3 159.189 126.985C158.762 126.815 158.373 126.574 158.042 126.274C157.922 126.177 157.821 126.062 157.742 125.935C158.194 126.301 158.707 126.601 159.26 126.824C159.917 127.056 160.626 127.137 161.325 127.058C162.245 126.956 163.101 126.578 163.761 125.983C164.559 125.255 165.111 124.332 165.35 123.325C165.493 122.767 165.546 122.192 165.509 121.62C165.49 121.026 165.324 120.443 165.024 119.915C164.881 119.651 164.667 119.425 164.401 119.259C164.135 119.094 163.826 118.994 163.506 118.97C163.181 118.988 162.874 119.107 162.633 119.307C162.392 119.506 162.233 119.775 162.182 120.069C162.098 120.386 162.089 120.715 162.154 121.035C162.22 121.355 162.358 121.659 162.561 121.927C162.985 122.506 163.55 122.988 164.212 123.333C164.864 123.696 165.601 123.912 166.362 123.962C167.124 124.013 167.887 123.897 168.59 123.624C169.214 123.341 169.752 122.92 170.156 122.4C170.559 121.879 170.816 121.276 170.902 120.642C171.027 120.081 170.986 119.499 170.785 118.957C170.583 118.415 170.228 117.931 169.755 117.556C169.55 117.408 169.296 117.328 169.035 117.328C168.775 117.328 168.521 117.408 168.316 117.556C168.138 117.707 168.017 117.905 167.971 118.123C167.925 118.342 167.956 118.567 168.06 118.768C168.246 119.147 168.516 119.487 168.853 119.766C169.191 120.044 169.588 120.255 170.02 120.384C170.679 120.607 171.39 120.674 172.085 120.578C172.677 120.468 173.244 120.265 173.762 119.98Z" fill="#455A64"/>
<path d="M137.299 316.397C137.299 316.397 143.204 326.901 158.598 321.794C158.598 321.794 173.674 329.292 188.096 320.897C188.096 320.897 206.765 323.184 216.924 318.683L203.896 215.55L202.237 199.713H161.007C161.007 199.713 148.773 204.812 146.805 229.706C144.837 254.601 140.626 288.795 140.626 288.795L137.299 316.397Z" fill="#263238"/>
<path d="M187.214 321.212C187.214 321.212 187.214 321.107 187.214 320.897C187.214 320.687 187.161 320.372 187.126 319.984C187.055 319.176 186.958 317.972 186.826 316.461C186.578 313.407 186.252 308.979 185.899 303.533C185.184 292.593 184.425 277.451 184.027 260.709C183.63 243.968 183.674 228.818 183.869 217.885C183.966 212.399 184.072 207.963 184.186 204.901C184.239 203.382 184.283 202.202 184.319 201.37C184.319 200.982 184.319 200.675 184.319 200.449C184.307 200.347 184.307 200.244 184.319 200.142C184.332 200.244 184.332 200.347 184.319 200.449V201.37C184.319 202.178 184.319 203.39 184.275 204.901C184.275 207.987 184.178 212.423 184.107 217.885C184.001 228.85 184.001 244 184.398 260.709C184.795 277.419 185.51 292.569 186.164 303.533C186.49 308.995 186.755 313.415 186.949 316.461C187.037 317.972 187.108 319.16 187.161 319.984C187.161 320.372 187.161 320.679 187.205 320.905C187.217 321.007 187.22 321.11 187.214 321.212Z" fill="#455A64"/>
<path d="M190.833 291.688C190.833 291.688 190.921 291.575 191.15 291.518C191.49 291.451 191.845 291.491 192.157 291.631C192.393 291.737 192.6 291.89 192.764 292.079C192.927 292.268 193.042 292.487 193.101 292.722C193.135 293.024 193.072 293.329 192.921 293.599C192.769 293.868 192.535 294.092 192.247 294.243C191.959 294.394 191.63 294.464 191.299 294.447C190.968 294.429 190.65 294.324 190.383 294.144C190.191 293.977 190.044 293.772 189.951 293.546C189.857 293.319 189.821 293.077 189.844 292.835C189.87 292.518 190.013 292.219 190.25 291.987C190.418 291.833 190.559 291.801 190.568 291.817C190.332 292.121 190.195 292.48 190.171 292.852C190.171 293.039 190.215 293.224 190.298 293.396C190.382 293.567 190.504 293.72 190.656 293.845C190.859 293.963 191.093 294.027 191.333 294.032C191.573 294.037 191.81 293.982 192.018 293.874C192.227 293.765 192.399 293.606 192.517 293.415C192.634 293.224 192.693 293.006 192.686 292.787C192.649 292.602 192.568 292.426 192.449 292.273C192.33 292.119 192.176 291.991 191.998 291.898C191.642 291.721 191.235 291.648 190.833 291.688Z" fill="#455A64"/>
<path d="M189.915 261.065C189.915 261.065 190.003 260.96 190.233 260.903C190.572 260.831 190.929 260.871 191.239 261.016C191.479 261.117 191.69 261.268 191.854 261.458C192.018 261.648 192.131 261.87 192.183 262.107C192.214 262.407 192.149 262.709 191.997 262.976C191.845 263.243 191.612 263.464 191.326 263.614C191.04 263.763 190.714 263.833 190.385 263.817C190.056 263.8 189.74 263.698 189.474 263.521C189.279 263.358 189.129 263.155 189.035 262.929C188.942 262.703 188.907 262.46 188.935 262.22C188.964 261.917 189.104 261.633 189.332 261.412C189.509 261.251 189.641 261.226 189.65 261.242C189.416 261.544 189.278 261.899 189.253 262.269C189.253 262.456 189.296 262.642 189.38 262.813C189.463 262.984 189.586 263.137 189.738 263.262C189.94 263.382 190.174 263.449 190.414 263.456C190.654 263.462 190.892 263.409 191.101 263.301C191.31 263.192 191.483 263.034 191.601 262.842C191.719 262.65 191.777 262.432 191.768 262.212C191.73 262.027 191.65 261.852 191.533 261.697C191.416 261.543 191.264 261.413 191.089 261.315C190.731 261.133 190.324 261.046 189.915 261.065Z" fill="#455A64"/>
<path d="M189.377 233.981C189.377 233.981 189.465 233.876 189.703 233.819C190.04 233.747 190.393 233.787 190.701 233.932C190.941 234.034 191.153 234.185 191.318 234.374C191.484 234.564 191.599 234.786 191.654 235.023C191.686 235.324 191.622 235.627 191.469 235.896C191.317 236.165 191.083 236.387 190.795 236.537C190.508 236.686 190.179 236.756 189.849 236.739C189.519 236.721 189.202 236.616 188.935 236.437C188.742 236.273 188.593 236.07 188.5 235.844C188.406 235.619 188.371 235.376 188.397 235.136C188.421 234.82 188.561 234.521 188.794 234.288C188.971 234.134 189.103 234.102 189.121 234.118C188.881 234.417 188.74 234.774 188.715 235.144C188.713 235.333 188.757 235.519 188.842 235.691C188.928 235.862 189.053 236.015 189.209 236.138C189.41 236.256 189.643 236.321 189.882 236.326C190.121 236.332 190.357 236.278 190.565 236.17C190.773 236.062 190.944 235.904 191.062 235.713C191.179 235.522 191.237 235.306 191.23 235.088C191.192 234.903 191.112 234.727 190.995 234.573C190.877 234.418 190.726 234.288 190.551 234.191C190.188 234.022 189.782 233.949 189.377 233.981Z" fill="#455A64"/>
<path d="M188.326 205.006C188.326 205.006 188.414 204.893 188.644 204.836C188.984 204.768 189.34 204.81 189.65 204.957C189.889 205.06 190.099 205.212 190.263 205.401C190.426 205.59 190.54 205.812 190.594 206.048C190.64 206.353 190.579 206.663 190.42 206.934C190.262 207.205 190.014 207.424 189.712 207.559C189.428 207.72 189.097 207.797 188.764 207.78C188.431 207.762 188.111 207.651 187.849 207.462C187.658 207.295 187.511 207.09 187.417 206.864C187.324 206.637 187.288 206.394 187.311 206.153C187.346 205.85 187.489 205.566 187.717 205.345C187.893 205.192 188.026 205.159 188.035 205.175C187.799 205.479 187.661 205.838 187.638 206.21C187.638 206.397 187.682 206.582 187.765 206.754C187.849 206.925 187.971 207.078 188.123 207.203C188.326 207.321 188.56 207.385 188.8 207.39C189.04 207.395 189.276 207.34 189.485 207.232C189.693 207.123 189.866 206.964 189.983 206.773C190.101 206.582 190.16 206.365 190.153 206.145C190.116 205.96 190.035 205.784 189.916 205.631C189.797 205.477 189.643 205.35 189.465 205.256C189.121 205.07 188.724 204.983 188.326 205.006Z" fill="#455A64"/>
<path d="M242.062 173.639L450.257 172.258L456.056 301.828L240.474 300.002L242.062 173.639Z" fill="#2B5FB5"/>
<path d="M242.054 173.639L340.595 100.653C342.619 99.1547 345.146 98.3417 347.749 98.3505C350.352 98.3594 352.873 99.1895 354.885 100.701L450.257 172.258" fill="#2B5FB5"/>
<g opacity="0.3">
<path d="M242.054 173.639L340.595 100.653C342.619 99.1547 345.146 98.3417 347.749 98.3505C350.352 98.3594 352.873 99.1895 354.885 100.701L450.257 172.258" fill="black"/>
</g>
<path d="M240.474 300.002C240.218 299.776 256.882 283.115 277.704 262.794C298.527 242.473 315.606 226.175 315.871 226.394C316.136 226.612 299.462 243.273 278.64 263.602C257.818 283.931 240.738 300.22 240.474 300.002Z" fill="#263238"/>
<path d="M456.056 301.828C455.791 302.047 439.559 285.725 419.805 265.379C400.051 245.034 384.251 228.357 384.498 228.139C384.746 227.921 400.996 244.242 420.75 264.596C440.504 284.949 456.339 301.61 456.056 301.828Z" fill="#263238"/>
<g opacity="0.5">
<path d="M450.257 172.258L345.705 248.711L242.062 173.639" fill="black"/>
</g>
<path d="M252.539 180.717L252.222 121.2L434.519 119.22L436.575 181.848L345.696 247.708L252.539 180.717Z" fill="#FAFAFA"/>
<path d="M252.54 180.717C252.54 180.717 253.131 181.121 254.252 181.921L259.195 185.444L278.04 198.913L345.838 247.571H345.608L436.461 181.687L436.373 181.857C435.984 169.914 435.57 157.374 435.146 144.624C434.872 136.035 434.59 127.551 434.316 119.229L434.546 119.431L252.248 121.329L252.39 121.2C252.46 139.921 252.522 154.797 252.557 164.994C252.557 170.092 252.557 174.019 252.557 176.677V179.691C252.557 180.37 252.557 180.717 252.557 180.717C252.557 180.717 252.557 180.378 252.557 179.707C252.557 179.037 252.557 178.027 252.557 176.71C252.557 174.051 252.496 170.133 252.452 165.042C252.381 154.829 252.275 139.946 252.143 121.2V121.063H252.284L434.59 119.018H434.81V119.229C435.084 127.543 435.358 136.027 435.64 144.616C436.064 157.374 436.47 169.906 436.867 181.857V181.962L436.779 182.026L345.864 247.854L345.749 247.935L345.635 247.854L277.881 199.035L259.151 185.501L254.208 181.945C253.096 181.137 252.54 180.717 252.54 180.717Z" fill="#263238"/>
<path d="M405.709 149.197C405.709 149.31 377.825 149.561 343.445 149.747C309.066 149.933 281.173 150.005 281.173 149.884C281.173 149.763 309.048 149.52 343.445 149.327C377.843 149.133 405.709 149.076 405.709 149.197Z" fill="#263238"/>
<path d="M405.709 166.004C405.709 166.125 377.825 166.375 343.445 166.561C309.066 166.747 281.173 166.812 281.173 166.698C281.173 166.585 309.048 166.335 343.445 166.141C377.843 165.947 405.709 165.89 405.709 166.004Z" fill="#263238"/>
<path d="M405.709 185.388C405.709 185.501 377.825 185.751 343.445 185.945C309.066 186.139 281.173 186.196 281.173 186.074C281.173 185.953 309.048 185.711 343.445 185.525C377.843 185.339 405.709 185.266 405.709 185.388Z" fill="#263238"/>
<path d="M405.709 204.763C405.709 204.885 379.114 205.119 346.305 205.305C313.497 205.491 286.902 205.539 286.893 205.426C286.884 205.313 313.488 205.07 346.305 204.885C379.123 204.699 405.709 204.65 405.709 204.763Z" fill="#263238"/>
<path d="M382.389 221.772C382.15 221.809 381.907 221.825 381.665 221.82L379.564 221.877L371.867 221.99L346.455 222.321C336.534 222.475 327.54 222.523 321.035 222.531H313.338H311.237C310.995 222.535 310.753 222.522 310.513 222.491C310.752 222.454 310.995 222.438 311.237 222.442L313.338 222.394L321.035 222.273L346.447 221.941C356.368 221.788 365.362 221.739 371.859 221.731H379.564H381.665C381.907 221.731 382.149 221.744 382.389 221.772Z" fill="#263238"/>
<path d="M358.918 238.126C358.918 238.239 352.978 238.336 345.678 238.336C338.379 238.336 332.438 238.239 332.438 238.126C332.438 238.013 338.388 237.916 345.678 237.916C352.969 237.916 358.918 238.005 358.918 238.126Z" fill="#263238"/>
<path d="M420.282 224.923C432.445 224.923 442.304 215.897 442.304 204.763C442.304 193.63 432.445 184.604 420.282 184.604C408.119 184.604 398.259 193.63 398.259 204.763C398.259 215.897 408.119 224.923 420.282 224.923Z" fill="#263238"/>
<path d="M414.553 224.923C426.716 224.923 436.576 215.897 436.576 204.763C436.576 193.63 426.716 184.604 414.553 184.604C402.391 184.604 392.531 193.63 392.531 204.763C392.531 215.897 402.391 224.923 414.553 224.923Z" fill="#455A64"/>
<path d="M417.351 195.382V212.14H413.971V197.96H410.096V195.35L417.351 195.382Z" fill="#EBEBEB"/>
<path d="M253.97 94.0108H274.112L271.385 91.1505V84.2906C271.385 82.5076 270.611 80.7977 269.234 79.537C267.857 78.2763 265.989 77.568 264.041 77.568C263.077 77.568 262.122 77.7419 261.232 78.0799C260.341 78.4178 259.532 78.9131 258.851 79.5375C258.17 80.1618 257.63 80.903 257.262 81.7186C256.894 82.5341 256.705 83.4081 256.706 84.2906V90.8111L253.97 94.0108Z" fill="#2B5FB5"/>
<path d="M261.27 93.1059C261.292 93.5074 261.407 93.8999 261.607 94.2577C261.807 94.6155 262.088 94.9305 262.43 95.1817C262.773 95.433 263.17 95.6149 263.595 95.7154C264.021 95.8159 264.464 95.8329 264.897 95.765C265.33 95.6971 265.742 95.5461 266.106 95.3218C266.471 95.0974 266.779 94.805 267.011 94.4636C267.243 94.1223 267.393 93.7398 267.452 93.3414C267.51 92.943 267.476 92.5378 267.351 92.1525" fill="#2B5FB5"/>
<path d="M265.162 74.7723H263.185V78.6184H265.162V74.7723Z" fill="#2B5FB5"/>
<path d="M293.407 81.398C293.347 81.2397 293.3 81.0777 293.266 80.9132C293.178 80.5657 293.063 80.1052 292.913 79.4911C292.729 78.7182 292.49 77.9571 292.198 77.2125C292.021 76.7762 291.898 76.2833 291.66 75.7904L290.909 74.2229C289.551 71.5749 287.75 69.1376 285.569 66.9994C282.705 64.2358 279.238 62.0553 275.392 60.6C273.202 59.7561 270.908 59.1592 268.56 58.8224C266.028 58.4846 263.459 58.4466 260.916 58.7093C259.578 58.8381 258.251 59.0487 256.944 59.3396C256.282 59.4688 255.638 59.7032 254.967 59.889C254.293 60.0601 253.635 60.2789 252.999 60.5435C250.294 61.5446 247.778 62.9268 245.54 64.64C240.574 68.3883 237.074 73.5126 235.566 79.2406C234.772 82.3094 234.578 85.4826 234.992 88.6134C235.356 91.852 236.383 94.9989 238.02 97.8892L238.532 98.77L238.594 98.8831V99.0043C236.961 103.852 235.372 108.7 233.818 113.33L233.404 112.983L246.017 106.963L246.167 106.89L246.308 106.987C251.581 110.71 258.081 112.68 264.739 112.574C271.397 112.469 277.818 110.293 282.948 106.406C285.577 104.393 287.818 101.989 289.576 99.2952C290.982 97.0455 292.065 94.6394 292.798 92.1363C293.293 90.2353 293.589 88.2953 293.681 86.3429C293.681 85.5349 293.681 84.84 293.681 84.2179C293.681 83.5957 293.575 83.1028 293.54 82.6746C293.504 82.2464 293.469 81.9636 293.451 81.7292C293.438 81.6219 293.438 81.5134 293.451 81.406C293.483 81.5091 293.503 81.6146 293.513 81.7212C293.513 81.9582 293.557 82.2733 293.646 82.6665C293.698 83.0948 293.76 83.6038 293.84 84.2179C293.919 84.832 293.84 85.5511 293.84 86.351C293.79 88.3205 293.524 90.2804 293.045 92.2009C292.341 94.7425 291.272 97.1876 289.868 99.4729C288.109 102.225 285.853 104.684 283.195 106.745C279.94 109.232 276.144 111.056 272.059 112.095C267.974 113.135 263.694 113.366 259.504 112.773C254.572 112.056 249.911 110.232 245.937 107.464H246.238L233.642 113.5L233.006 113.807L233.218 113.152L237.985 98.8265V99.0608L237.464 98.164C235.794 95.2099 234.746 91.9948 234.374 88.6861C233.942 85.4821 234.146 82.233 234.975 79.0952C236.519 73.2551 240.097 68.0337 245.169 64.2199C247.459 62.4858 250.029 61.0875 252.787 60.0748C253.435 59.8063 254.105 59.5847 254.791 59.4123C255.47 59.2345 256.123 59.0002 256.803 58.8709C258.129 58.5722 259.477 58.3615 260.837 58.2407C263.422 57.9801 266.033 58.029 268.604 58.3861C270.983 58.7471 273.306 59.3655 275.524 60.2284C279.412 61.7266 282.908 63.9629 285.781 66.7893C287.962 68.967 289.75 71.4491 291.077 74.1421C291.333 74.7077 291.58 75.2329 291.801 75.7581C292.021 76.2833 292.154 76.76 292.322 77.2044C292.608 77.955 292.829 78.7249 292.984 79.5072C293.107 80.1132 293.213 80.59 293.284 80.9455C293.336 81.0936 293.377 81.2448 293.407 81.398Z" fill="#263238"/>
<path d="M536.935 273.274C539.821 282.202 537.632 293.684 534.137 302.426C530.585 311.255 524.048 318.816 515.478 324.008C514.524 324.582 513.297 325.139 512.291 324.646C511.919 324.376 511.616 324.034 511.404 323.644C511.192 323.255 511.076 322.827 511.064 322.392C509 312.738 510.408 302.732 515.079 293.872C519.749 285.013 527.43 277.777 536.97 273.25" fill="#2B5FB5"/>
<g opacity="0.2">
<path d="M536.935 273.274C539.821 282.202 537.632 293.684 534.137 302.426C530.585 311.255 524.048 318.816 515.478 324.008C514.524 324.582 513.297 325.139 512.291 324.646C511.919 324.376 511.616 324.034 511.404 323.644C511.192 323.255 511.076 322.827 511.064 322.392C509 312.738 510.408 302.732 515.079 293.872C519.749 285.013 527.43 277.777 536.97 273.25" fill="black"/>
</g>
<path d="M493.579 230.894C499.651 230.741 503.659 236.922 504.268 242.465C504.877 248.008 503.535 253.777 505.309 259.077C507.533 265.832 514.471 270.68 516.554 277.491C519.026 285.515 514.215 293.845 513.986 302.176C513.871 306.216 514.868 310.329 514.03 314.296C513.332 317.689 511.369 320.756 508.477 322.974C505.585 325.191 501.943 326.422 498.171 326.456C494.399 326.49 490.73 325.326 487.791 323.162C484.851 320.997 482.823 317.967 482.051 314.587C480.63 308.349 483.64 301.715 481.839 295.55C480.506 291.001 476.64 287.131 476.322 282.428C475.952 276.829 480.683 271.989 481.565 266.438C482.448 260.887 479.376 255.465 478.917 249.866C478.097 239.831 482.633 231.953 493.57 230.878" fill="#2B5FB5"/>
<path d="M506.889 345.186C506.972 345.006 507.034 344.819 507.074 344.628C507.18 344.208 507.313 343.667 507.472 343.012C507.798 341.614 508.354 339.586 508.972 337.09C512.421 324.082 517.341 311.439 523.651 299.364C524.86 297.045 525.866 295.187 526.581 293.902L527.385 292.423C527.488 292.254 527.57 292.075 527.632 291.89C527.497 292.036 527.381 292.196 527.288 292.367L526.405 293.805C525.628 295.057 524.56 296.9 523.307 299.202C516.777 311.221 511.837 323.91 508.593 337.001C507.984 339.514 507.534 341.558 507.269 342.98C507.154 343.634 507.057 344.176 506.977 344.596C506.925 344.789 506.895 344.987 506.889 345.186Z" fill="#263238"/>
<path d="M493.826 258.269C493.829 258.567 493.859 258.864 493.914 259.158C493.993 259.78 494.108 260.629 494.249 261.695L495.6 271.027C496.738 278.905 498.31 289.781 499.96 301.812C501.611 313.843 503.032 324.743 504.047 332.637C504.559 336.54 504.974 339.724 505.274 341.978C505.424 343.045 505.539 343.893 505.627 344.515C505.658 344.812 505.711 345.106 505.786 345.396C505.813 345.1 505.813 344.803 505.786 344.507C505.724 343.877 505.645 343.028 505.539 341.954C505.283 339.691 504.93 336.508 504.497 332.589C503.614 324.687 502.229 313.779 500.578 301.748C498.928 289.717 497.295 278.841 496.041 270.971C495.406 267.084 494.885 263.917 494.523 261.671C494.329 260.604 494.179 259.764 494.073 259.142C494.021 258.844 493.938 258.552 493.826 258.269Z" fill="#263238"/>
<path d="M528.091 334.27H481.963V339.198H528.091V334.27Z" fill="#263238"/>
<path d="M486.244 339.198L491.654 369.111H520.27L524.013 339.198H486.244Z" fill="#263238"/>
<path d="M524.163 338.996C524.163 339.118 515.645 339.303 505.133 339.425C494.62 339.546 486.103 339.546 486.103 339.425C486.103 339.303 494.62 339.118 505.133 338.996C515.645 338.875 524.163 338.883 524.163 338.996Z" fill="#455A64"/>
<path d="M522.592 353.969H522.336H521.568C520.584 354.001 519.598 353.966 518.62 353.864C517.047 353.722 515.544 353.203 514.259 352.361C513.454 351.828 512.803 351.124 512.362 350.308C511.85 349.376 511.752 348.299 512.088 347.303C512.281 346.744 512.665 346.258 513.183 345.914C513.701 345.571 514.326 345.389 514.966 345.396C515.646 345.447 516.278 345.736 516.731 346.204C517.173 346.694 517.476 347.277 517.614 347.901C518.17 350.454 516.21 353.298 513.2 354.187C510.19 355.076 506.518 353.54 505.018 350.753C504.626 350.049 504.398 349.279 504.347 348.49C504.287 347.669 504.523 346.851 505.018 346.163C505.279 345.815 505.619 345.522 506.015 345.304C506.411 345.087 506.854 344.95 507.313 344.903C507.787 344.879 508.259 344.968 508.684 345.16C509.109 345.353 509.473 345.643 509.74 346.002C510.274 346.693 510.55 347.523 510.526 348.369C510.508 349.187 510.281 349.989 509.864 350.712C509.051 352.111 507.762 353.229 506.192 353.896C504.707 354.537 503.118 354.949 501.487 355.116C499.917 355.324 498.316 355.196 496.809 354.744C495.353 354.297 494.107 353.408 493.278 352.223C492.894 351.66 492.653 351.025 492.573 350.365C492.494 349.704 492.578 349.036 492.819 348.41C493.024 347.811 493.402 347.275 493.913 346.858C494.425 346.441 495.05 346.159 495.723 346.042C496.346 345.955 496.982 346.015 497.572 346.215C498.162 346.416 498.686 346.751 499.095 347.19C499.432 347.615 499.638 348.115 499.691 348.639C499.744 349.162 499.642 349.688 499.395 350.163C498.985 351 498.308 351.704 497.453 352.183C496.737 352.602 495.97 352.943 495.167 353.201C494.435 353.46 493.755 353.662 493.137 353.823C492.195 354.075 491.237 354.275 490.269 354.421L489.509 354.526H489.253C489.253 354.526 489.333 354.526 489.501 354.462L490.251 354.324C490.904 354.195 491.875 353.993 493.093 353.646C493.693 353.476 494.364 353.258 495.088 352.999C495.87 352.736 496.616 352.391 497.312 351.973C498.094 351.501 498.708 350.83 499.078 350.042C499.301 349.613 499.392 349.137 499.342 348.665C499.293 348.192 499.103 347.741 498.795 347.359C498.421 346.966 497.943 346.666 497.407 346.488C496.872 346.31 496.295 346.259 495.732 346.341C495.127 346.455 494.566 346.716 494.109 347.097C493.653 347.478 493.317 347.965 493.137 348.507C492.916 349.084 492.841 349.699 492.917 350.306C492.994 350.914 493.22 351.498 493.579 352.013C494.361 353.116 495.527 353.945 496.889 354.365C498.336 354.787 499.869 354.903 501.372 354.704C502.951 354.535 504.489 354.134 505.927 353.516C507.41 352.882 508.627 351.825 509.396 350.502C509.809 349.852 510.019 349.11 510.003 348.358C509.988 347.606 509.747 346.872 509.308 346.236C509.089 345.933 508.787 345.688 508.433 345.524C508.078 345.361 507.683 345.286 507.286 345.307C506.896 345.349 506.519 345.468 506.183 345.655C505.846 345.841 505.557 346.092 505.336 346.39C504.894 347 504.686 347.728 504.744 348.458C504.791 349.189 504.998 349.903 505.353 350.559C506.757 353.169 510.208 354.672 513.006 353.791C515.804 352.91 517.658 350.292 517.146 347.949C517.033 347.38 516.759 346.848 516.351 346.406C516.163 346.2 515.932 346.03 515.671 345.907C515.41 345.783 515.126 345.709 514.833 345.687C514.269 345.68 513.717 345.839 513.258 346.14C512.799 346.441 512.457 346.868 512.282 347.359C511.96 348.283 512.042 349.286 512.512 350.155C512.918 350.935 513.523 351.614 514.277 352.135C515.521 352.966 516.976 353.492 518.505 353.662C519.474 353.777 520.45 353.836 521.427 353.839H522.195L522.592 353.969Z" fill="#455A64"/>
</svg>
