<svg width="356" height="248" viewBox="0 0 356 248" fill="none" xmlns="http://www.w3.org/2000/svg">
<path opacity="0.88" fill-rule="evenodd" clip-rule="evenodd" d="M-24.4918 245.587L-23.1206 -3.95647L330.766 -2.01195C330.766 -2.01195 402.421 -13.2799 300.685 42.3265C198.949 97.933 284.578 160.458 238.751 192.397C192.924 224.337 20.1286 121.252 -12.7534 157.541C-45.6353 193.831 -24.4918 245.587 -24.4918 245.587Z" fill="#154087"/>
<path fill-rule="evenodd" clip-rule="evenodd" d="M-25.1221 216.456L-23.9392 1.16614L312.274 3.00978C312.274 3.00978 379.746 -14.1526 276.816 37.4354C173.885 89.0235 238.277 142.994 199.221 170.552C160.164 198.11 11.8945 110.309 -16.1302 141.619C-44.1548 172.929 -25.1221 216.456 -25.1221 216.456Z" fill="url(#paint0_linear_494_309)"/>
<path d="M132.369 104.529C147.116 107.902 164.366 106.605 178 88.4442C154.628 81.1799 144.612 86.3687 138.49 90.779C112.614 121.652 78.3912 94.93 77 87.1469C94.5289 82.996 114.006 88.4442 124.022 98.0434C82.0083 101.935 79.1332 72.2726 77.8347 65.0948C75.3306 64.3165 101.763 66.1325 104.824 69.5052M125.97 93.8924C106.159 75.4204 102.041 56.2739 126.804 35C128.752 36.0378 147.116 52.1229 144.333 67.4297M96.4766 65.0948C96.4766 63.2787 94.8072 58.3494 96.4766 51.604C100.094 51.604 106.493 56.5333 110.202 59.1277M146.838 55.755C148.507 54.7173 149.898 52.4048 155.741 51.1076C158.245 56.5558 159.08 61.7446 157.411 66.9333M132.369 96.933C130.7 87.1469 140.438 64.3165 176.609 64.3165C173.826 96.933 139.603 102.194 132.369 96.933Z" stroke="#CCE0FF" stroke-width="2"/>
<defs>
<linearGradient id="paint0_linear_494_309" x1="-31.0171" y1="107.357" x2="333.401" y2="107.372" gradientUnits="userSpaceOnUse">
<stop offset="0.0885417" stop-color="#CCE0FF"/>
<stop offset="0.333333" stop-color="#99C0FF"/>
<stop offset="0.666667" stop-color="#2B5FB5"/>
<stop offset="1" stop-color="#154087"/>
</linearGradient>
</defs>
</svg>
