<svg width="119" height="105" viewBox="0 0 119 105" fill="none" xmlns="http://www.w3.org/2000/svg">
<path opacity="0.88" fill-rule="evenodd" clip-rule="evenodd" d="M58.4403 93.1554C37.6663 71.73 39.9319 99.6943 26.7505 87.7823C13.5692 75.8703 44.9583 60.5691 17.4231 59.9468C-13.1324 59.0433 38.6881 35.9951 39.1712 22.3194C39.6543 8.64368 42.7903 13.3598 52.0605 21.6526C61.3307 29.9453 66.3933 21.0781 66.3933 21.0781C71.4954 11.7551 97.2016 5.72634 95.0763 30.3018C88.408 53.4846 120.169 44.9796 109.905 55.856C99.6419 66.7323 89.4585 55.39 90.9997 71.405C92.5408 87.4199 65.4346 96.6819 58.4403 93.1554Z" fill="#154087"/>
<path fill-rule="evenodd" clip-rule="evenodd" d="M70.605 34.5812C69.7628 33.7962 68.3933 33.7882 67.544 34.5632L49.543 50.9848C49.1401 51.3467 48.8184 51.7833 48.5975 52.268C48.3766 52.7527 48.261 53.2753 48.2579 53.8042C48.2548 54.333 48.3642 54.8569 48.5794 55.3442C48.7946 55.8314 49.1111 56.2718 49.5098 56.6384L67.4453 73.3933C67.8524 73.7678 68.3932 73.9801 68.9578 73.9872C69.5224 73.9942 70.0686 73.7954 70.4853 73.4312C70.6917 73.2513 70.8574 73.0328 70.9719 72.7892C71.0864 72.5456 71.1475 72.2821 71.1512 72.0149C71.1549 71.7478 71.1013 71.4827 70.9936 71.2362C70.8859 70.9896 70.7264 70.7668 70.5251 70.5815L54.1096 55.2515C53.9101 55.0682 53.7517 54.8479 53.644 54.6042C53.5363 54.3605 53.4815 54.0984 53.4831 53.8339C53.4846 53.5693 53.5425 53.3079 53.653 53.0655C53.7636 52.823 53.9246 52.6047 54.1262 52.4237L70.5884 37.407C70.7899 37.2262 70.9509 37.008 71.0614 36.7657C71.1719 36.5235 71.2297 36.2622 71.2313 35.9978C71.2329 35.7334 71.1781 35.4715 71.0704 35.2279C70.9628 34.9844 70.8044 34.7643 70.605 34.5812Z" fill="white"/>
</svg>
