<svg width="1154" height="1117" viewBox="0 0 1154 1117" fill="none" xmlns="http://www.w3.org/2000/svg">
<path opacity="0.4" fill-rule="evenodd" clip-rule="evenodd" d="M0 -10.4708H1282.42V1043.92C1282.42 1043.92 1342.35 1257.22 1053.72 955.019C765.092 652.821 446.201 908.965 280.773 772.952C115.345 636.94 640.211 120.434 452.792 23.0608C265.374 -74.312 0 -10.4708 0 -10.4708Z" fill="#239987"/>
<path fill-rule="evenodd" clip-rule="evenodd" d="M93.1548 -12.6507H1199.54L1199.56 989.079C1199.56 989.079 1289.66 1189.82 1021.65 883.999C753.639 578.177 478.107 770.908 335.387 654.996C192.666 539.084 639.682 95.8972 477.99 12.9144C316.298 -70.0684 93.1548 -12.6507 93.1548 -12.6507Z" fill="url(#paint0_linear_51_2)"/>
<path d="M783.693 530.39C844.042 544.277 914.638 538.936 970.433 464.159C874.785 434.248 833.794 455.613 808.744 473.773C702.848 600.893 562.794 490.864 557.1 458.817C628.835 441.726 708.541 464.159 749.533 503.684C577.596 519.707 565.83 397.572 560.516 368.018C550.268 364.813 658.441 372.291 670.966 386.178M757.504 486.592C676.431 410.533 659.579 331.698 760.92 244.102C768.89 248.375 844.042 314.606 832.655 377.632M636.806 368.018C636.806 360.54 629.974 340.243 636.806 312.469C651.609 312.469 677.798 332.766 692.976 343.448M842.903 329.561C849.735 325.288 855.428 315.767 879.34 310.425C889.588 332.858 893.004 354.223 886.172 375.588M783.693 499.112C776.861 458.817 816.714 364.813 964.739 364.813C953.353 499.112 813.298 520.776 783.693 499.112Z" stroke="#CCE0FF" stroke-width="4"/>
<path d="M645.718 624.745C646.929 624.745 647.949 624.607 648.777 624.331C649.62 624.04 650.303 623.649 650.824 623.158C651.361 622.667 651.744 622.092 651.974 621.433C652.219 620.758 652.342 620.038 652.342 619.271C652.342 617.707 651.805 616.48 650.732 615.591C649.674 614.686 647.995 614.234 645.695 614.234L639.048 614.234L639.048 624.745L645.718 624.745ZM639.048 600.089L639.048 610.439L644.43 610.439C646.73 610.439 648.447 609.994 649.582 609.105C650.717 608.216 651.284 606.935 651.284 605.264C651.284 603.439 650.747 602.121 649.674 601.308C648.616 600.495 646.952 600.089 644.683 600.089L639.048 600.089ZM644.683 595.88C646.799 595.88 648.608 596.087 650.111 596.501C651.614 596.9 652.848 597.475 653.814 598.226C654.78 598.977 655.485 599.897 655.93 600.986C656.39 602.059 656.62 603.271 656.62 604.62C656.62 605.402 656.497 606.161 656.252 606.897C656.022 607.618 655.654 608.3 655.148 608.944C654.657 609.573 654.036 610.14 653.285 610.646C652.534 611.152 651.644 611.574 650.617 611.911C655.309 612.908 657.655 615.399 657.655 619.386C657.655 620.797 657.387 622.092 656.85 623.273C656.329 624.438 655.562 625.45 654.55 626.309C653.553 627.152 652.319 627.812 650.847 628.287C649.375 628.762 647.696 629 645.81 629L633.666 629L633.666 595.88L644.683 595.88ZM682.855 624.492L682.855 629L663.719 629L663.719 595.88L669.101 595.88L669.101 624.492L682.855 624.492ZM699.468 624.653C700.741 624.653 701.876 624.438 702.872 624.009C703.884 623.58 704.735 622.982 705.425 622.215C706.131 621.448 706.667 620.528 707.035 619.455C707.403 618.366 707.587 617.163 707.587 615.844L707.587 595.88L712.946 595.88L712.946 615.844C712.946 617.791 712.632 619.593 712.003 621.249C711.39 622.905 710.501 624.339 709.335 625.55C708.17 626.746 706.752 627.689 705.08 628.379C703.424 629.054 701.554 629.391 699.468 629.391C697.383 629.391 695.505 629.054 693.833 628.379C692.177 627.689 690.767 626.746 689.601 625.55C688.436 624.339 687.539 622.905 686.91 621.249C686.297 619.593 685.99 617.791 685.99 615.844L685.99 595.88L691.372 595.88L691.372 615.821C691.372 617.14 691.556 618.343 691.924 619.432C692.292 620.505 692.821 621.433 693.511 622.215C694.201 622.982 695.045 623.58 696.041 624.009C697.053 624.438 698.196 624.653 699.468 624.653ZM741.087 624.653L741.064 629L720.41 629L720.41 595.88L741.064 595.88L741.064 600.227L725.815 600.227L725.815 610.209L738.005 610.209L738.005 614.418L725.815 614.418L725.815 624.653L741.087 624.653ZM777.505 624.492L777.505 629L758.369 629L758.369 595.88L763.751 595.88L763.751 624.492L777.505 624.492ZM811.904 612.44C811.904 614.893 811.506 617.155 810.708 619.225C809.911 621.295 808.784 623.081 807.327 624.584C805.886 626.071 804.146 627.237 802.106 628.08C800.082 628.923 797.828 629.345 795.344 629.345C792.876 629.345 790.622 628.923 788.582 628.08C786.558 627.237 784.818 626.071 783.361 624.584C781.905 623.081 780.778 621.295 779.98 619.225C779.183 617.155 778.784 614.893 778.784 612.44C778.784 609.987 779.183 607.725 779.98 605.655C780.778 603.585 781.905 601.799 783.361 600.296C784.818 598.793 786.558 597.62 788.582 596.777C790.622 595.934 792.876 595.512 795.344 595.512C797.828 595.512 800.082 595.934 802.106 596.777C804.146 597.62 805.886 598.793 807.327 600.296C808.784 601.799 809.911 603.585 810.708 605.655C811.506 607.725 811.904 609.987 811.904 612.44ZM806.407 612.44C806.407 610.539 806.147 608.829 805.625 607.311C805.119 605.793 804.383 604.505 803.417 603.447C802.467 602.389 801.309 601.576 799.944 601.009C798.58 600.442 797.046 600.158 795.344 600.158C793.658 600.158 792.132 600.442 790.767 601.009C789.403 601.576 788.237 602.389 787.271 603.447C786.305 604.505 785.562 605.793 785.04 607.311C784.519 608.829 784.258 610.539 784.258 612.44C784.258 614.357 784.519 616.074 785.04 617.592C785.562 619.11 786.305 620.398 787.271 621.456C788.237 622.499 789.403 623.304 790.767 623.871C792.132 624.423 793.658 624.699 795.344 624.699C797.046 624.699 798.58 624.423 799.944 623.871C801.309 623.304 802.467 622.499 803.417 621.456C804.383 620.398 805.119 619.11 805.625 617.592C806.147 616.074 806.407 614.357 806.407 612.44ZM839.291 600.365L828.964 600.365L828.964 629L823.605 629L823.605 600.365L813.255 600.365L813.255 595.88L839.291 595.88L839.291 600.365ZM856.964 624.653C858.237 624.653 859.372 624.438 860.368 624.009C861.381 623.58 862.232 622.982 862.921 622.215C863.627 621.448 864.163 620.528 864.532 619.455C864.899 618.366 865.083 617.163 865.083 615.844L865.083 595.88L870.442 595.88L870.442 615.844C870.442 617.791 870.128 619.593 869.499 621.249C868.886 622.905 867.997 624.339 866.832 625.55C865.666 626.746 864.248 627.689 862.576 628.379C860.921 629.054 859.05 629.391 856.964 629.391C854.879 629.391 853.001 629.054 851.329 628.379C849.673 627.689 848.263 626.746 847.097 625.55C845.932 624.339 845.035 622.905 844.406 621.249C843.793 619.593 843.486 617.791 843.486 615.844L843.486 595.88L848.868 595.88L848.868 615.821C848.868 617.14 849.052 618.343 849.42 619.432C849.788 620.505 850.317 621.433 851.007 622.215C851.697 622.982 852.541 623.58 853.537 624.009C854.549 624.438 855.692 624.653 856.964 624.653ZM895.225 601.538C895.057 601.814 894.88 602.021 894.696 602.159C894.512 602.282 894.282 602.343 894.006 602.343C893.715 602.343 893.385 602.22 893.017 601.975C892.665 601.73 892.22 601.461 891.683 601.17C891.162 600.863 890.541 600.587 889.82 600.342C889.1 600.081 888.241 599.951 887.244 599.951C886.324 599.951 885.512 600.066 884.806 600.296C884.116 600.526 883.534 600.848 883.058 601.262C882.583 601.676 882.223 602.167 881.977 602.734C881.747 603.286 881.632 603.892 881.632 604.551C881.632 605.394 881.855 606.1 882.299 606.667C882.744 607.219 883.327 607.694 884.047 608.093C884.783 608.492 885.619 608.844 886.554 609.151C887.49 609.442 888.44 609.757 889.406 610.094C890.388 610.431 891.346 610.815 892.281 611.244C893.217 611.673 894.045 612.218 894.765 612.877C895.501 613.536 896.092 614.341 896.536 615.292C896.981 616.243 897.203 617.4 897.203 618.765C897.203 620.237 896.95 621.617 896.444 622.905C895.938 624.193 895.202 625.32 894.236 626.286C893.286 627.237 892.105 627.988 890.694 628.54C889.299 629.092 887.704 629.368 885.91 629.368C884.852 629.368 883.817 629.261 882.805 629.046C881.809 628.847 880.85 628.563 879.93 628.195C879.026 627.812 878.175 627.352 877.377 626.815C876.58 626.278 875.867 625.68 875.238 625.021L876.802 622.445C876.94 622.23 877.117 622.062 877.331 621.939C877.546 621.816 877.784 621.755 878.044 621.755C878.397 621.755 878.788 621.924 879.217 622.261C879.647 622.583 880.16 622.943 880.758 623.342C881.372 623.725 882.108 624.086 882.966 624.423C883.825 624.745 884.852 624.906 886.048 624.906C887.996 624.906 889.498 624.431 890.556 623.48C891.63 622.529 892.166 621.218 892.166 619.547C892.166 618.612 891.944 617.853 891.499 617.27C891.055 616.672 890.464 616.174 889.728 615.775C889.008 615.376 888.18 615.039 887.244 614.763C886.309 614.487 885.358 614.196 884.392 613.889C883.426 613.567 882.476 613.199 881.54 612.785C880.605 612.356 879.769 611.804 879.033 611.129C878.313 610.439 877.73 609.596 877.285 608.599C876.841 607.587 876.618 606.33 876.618 604.827C876.618 603.631 876.848 602.473 877.308 601.354C877.784 600.235 878.466 599.246 879.355 598.387C880.26 597.513 881.372 596.815 882.69 596.294C884.009 595.773 885.512 595.512 887.198 595.512C889.1 595.512 890.84 595.811 892.419 596.409C894.014 597.007 895.386 597.858 896.536 598.962L895.225 601.538Z" fill="white"/>
<defs>
<linearGradient id="paint0_linear_51_2" x1="653.641" y1="-32" x2="653.641" y2="1053.76" gradientUnits="userSpaceOnUse">
<stop stop-color="#29B29D"/>
<stop offset="0.632488" stop-color="#154087"/>
</linearGradient>
</defs>
</svg>
