<svg width="236" height="236" viewBox="0 0 236 236" fill="none" xmlns="http://www.w3.org/2000/svg">
<g clip-path="url(#clip0_247_16)">
<circle cx="118" cy="118" r="118" fill="url(#paint0_linear_247_16)"/>
<path d="M128.606 191.789C160.727 199.152 198.303 196.32 228 156.674C177.091 140.815 155.273 152.143 141.94 161.771C85.5759 229.17 11.0303 170.833 8 153.842C46.1817 144.78 88.606 156.674 110.424 177.63C18.9092 186.126 12.6465 121.37 9.81818 105.7C4.36364 104.001 61.9394 107.965 68.6061 115.328M114.667 168.568C71.5152 128.242 62.5455 86.443 116.485 40C120.727 42.2655 160.727 77.381 154.667 110.797M50.4243 105.7C50.4243 101.735 46.7879 90.974 50.4243 76.2482C58.303 76.2482 72.2424 87.0094 80.321 92.6732M160.121 85.3102C163.758 83.0447 166.788 77.9964 179.515 75.1645C184.97 87.0585 186.788 98.386 183.152 109.714M128.606 175.206C124.97 153.842 146.182 104.001 224.97 104.001C218.909 175.206 144.364 186.692 128.606 175.206Z" stroke="white" stroke-width="4"/>
</g>
<defs>
<linearGradient id="paint0_linear_247_16" x1="118" y1="0" x2="118" y2="236" gradientUnits="userSpaceOnUse">
<stop stop-color="#29B29D"/>
<stop offset="0.632488" stop-color="#154087"/>
</linearGradient>
<clipPath id="clip0_247_16">
<rect width="236" height="236" fill="white"/>
</clipPath>
</defs>
</svg>
