<svg width="84" height="93" viewBox="0 0 84 93" fill="none" xmlns="http://www.w3.org/2000/svg">
<g clip-path="url(#clip0_500_62)">
<circle cx="36.8432" cy="56.1569" r="36.8432" fill="url(#paint0_linear_500_62)"/>
<path d="M40.1547 79.1962C50.1839 81.4952 61.9162 80.611 71.1885 68.2322C55.2931 63.2806 48.4808 66.8174 44.3178 69.8236C26.7193 90.8676 3.44393 72.6531 2.49777 67.3479C14.4193 64.5185 27.6654 68.2322 34.4777 74.7752C5.90395 77.4278 3.94854 57.2091 3.06546 52.3165C1.36239 51.786 19.3393 53.0239 21.4208 55.3228M35.8024 71.9458C22.3291 59.3547 19.5285 46.3039 36.3701 31.803C37.6947 32.5103 50.1839 43.4745 48.2916 53.908M15.7439 52.3165C15.7439 51.0786 14.6085 47.7186 15.7439 43.1208C18.2039 43.1208 22.5562 46.4807 25.0786 48.2491M49.9947 45.9502C51.1301 45.2429 52.0762 43.6666 56.0501 42.7824C57.7531 46.4961 58.3208 50.0329 57.1854 53.5697M40.1547 74.0184C39.0193 67.3479 45.6424 51.786 70.2423 51.786C68.35 74.0184 45.0747 77.6047 40.1547 74.0184Z" stroke="white"/>
</g>
<defs>
<linearGradient id="paint0_linear_500_62" x1="36.8432" y1="19.3137" x2="36.8432" y2="93.0001" gradientUnits="userSpaceOnUse">
<stop stop-color="#29B29D"/>
<stop offset="0.632488" stop-color="#154087"/>
</linearGradient>
<clipPath id="clip0_500_62">
<rect width="84" height="93" fill="white"/>
</clipPath>
</defs>
</svg>
