<svg width="704" height="1024" viewBox="0 0 704 1024" fill="none" xmlns="http://www.w3.org/2000/svg">
<path opacity="0.4" fill-rule="evenodd" clip-rule="evenodd" d="M704 -158.785H-100.762V1032.43C-100.762 1032.43 -138.369 1273.41 42.7551 931.999C223.879 590.584 273.688 839.663 377.5 686C481.312 532.337 348.889 -48.7755 466.5 -158.785C584.111 -268.794 704 -158.785 704 -158.785Z" fill="#239987"/>
<path fill-rule="evenodd" clip-rule="evenodd" d="M473.927 -3.83594H-61.4025L-61.4119 988.305C-61.4119 988.305 -105.008 1187.12 24.6712 884.229C154.35 581.336 287.666 772.221 356.722 657.419C425.778 542.616 337.765 -97.3116 416 -179.5C494.235 -261.688 473.927 -3.83594 473.927 -3.83594Z" fill="url(#paint0_linear_31_278)"/>
<defs>
<linearGradient id="paint0_linear_31_278" x1="202.734" y1="-22.9999" x2="202.734" y2="1052.36" gradientUnits="userSpaceOnUse">
<stop stop-color="#29B29D"/>
<stop offset="0.632488" stop-color="#154087"/>
</linearGradient>
</defs>
</svg>
