<svg width="224" height="207" viewBox="0 0 224 207" fill="none" xmlns="http://www.w3.org/2000/svg">
<path d="M121.962 153.81C153.645 161.125 190.708 158.312 220 118.921C169.785 103.165 148.265 114.419 135.113 123.985C79.518 190.95 5.98898 132.989 3 116.107C40.661 107.104 82.5068 118.921 104.028 139.742C13.7604 148.183 7.58311 83.8447 4.79339 68.276C-0.586778 66.5878 56.2039 70.5269 62.7797 77.8423M108.212 130.738C65.6491 90.6724 56.8017 49.1434 110.006 3C114.19 5.2509 153.645 40.1398 147.667 73.3405M44.8457 68.276C44.8457 64.3369 41.259 53.6452 44.8457 39.0143C52.6171 39.0143 66.3664 49.7061 74.3348 55.3333M153.047 48.0179C156.634 45.767 159.623 40.7513 172.176 37.9376C177.557 49.7549 179.35 61.0093 175.763 72.2638M121.962 137.334C118.375 116.107 139.298 66.5879 217.011 66.5879C211.033 137.334 137.504 148.746 121.962 137.334Z" stroke="#CCE0FF" stroke-width="4"/>
<path d="M36.8697 203.549C37.6527 203.549 38.3197 203.458 38.8707 203.274C39.4314 203.09 39.8857 202.839 40.2337 202.52C40.5914 202.201 40.8524 201.824 41.0167 201.389C41.1811 200.944 41.2632 200.461 41.2632 199.939C41.2632 198.905 40.9056 198.093 40.1902 197.503C39.4749 196.904 38.3681 196.604 36.8697 196.604L32.5197 196.604L32.5197 203.549L36.8697 203.549ZM32.5197 187.599L32.5197 194.414L36.0722 194.414C37.5899 194.414 38.7161 194.11 39.4507 193.501C40.1951 192.882 40.5672 192.051 40.5672 191.007C40.5672 189.818 40.2144 188.953 39.5087 188.411C38.8031 187.87 37.7059 187.599 36.2172 187.599L32.5197 187.599ZM36.2172 185.178C37.5222 185.178 38.6387 185.304 39.5667 185.555C40.5044 185.806 41.2729 186.169 41.8722 186.642C42.4716 187.116 42.9114 187.691 43.1917 188.368C43.4817 189.035 43.6267 189.794 43.6267 190.644C43.6267 191.147 43.5494 191.63 43.3947 192.094C43.2401 192.558 43.0032 192.993 42.6842 193.399C42.3652 193.796 41.9641 194.153 41.4807 194.472C40.9974 194.791 40.4271 195.057 39.7697 195.27C42.7954 195.869 44.3082 197.45 44.3082 200.011C44.3082 200.901 44.1439 201.713 43.8152 202.447C43.4866 203.172 43.0081 203.801 42.3797 204.332C41.7514 204.864 40.9781 205.275 40.0597 205.565C39.1414 205.855 38.0974 206 36.9277 206L29.4312 206L29.4312 185.178L36.2172 185.178ZM60.1833 203.404L60.1833 206L48.2643 206L48.2643 185.178L51.3528 185.178L51.3528 203.404L60.1833 203.404ZM70.6011 203.52C71.4324 203.52 72.1767 203.38 72.8341 203.1C73.4914 202.82 74.0472 202.428 74.5016 201.925C74.9559 201.413 75.3039 200.809 75.5456 200.113C75.7872 199.407 75.9081 198.629 75.9081 197.778L75.9081 185.178L78.9821 185.178L78.9821 197.778C78.9821 198.996 78.7887 200.123 78.4021 201.157C78.0154 202.191 77.4596 203.085 76.7346 203.839C76.0096 204.593 75.1299 205.183 74.0956 205.608C73.0612 206.034 71.8964 206.246 70.6011 206.246C69.3057 206.246 68.1409 206.034 67.1066 205.608C66.0722 205.183 65.1926 204.593 64.4676 203.839C63.7426 203.085 63.1867 202.191 62.8001 201.157C62.4134 200.123 62.2201 198.996 62.2201 197.778L62.2201 185.178L65.3086 185.178L65.3086 197.764C65.3086 198.615 65.4246 199.393 65.6566 200.098C65.8982 200.804 66.2462 201.413 66.7006 201.925C67.1549 202.428 67.7107 202.82 68.3681 203.1C69.0254 203.38 69.7697 203.52 70.6011 203.52ZM96.7824 203.491L96.7679 206L83.8629 206L83.8629 185.178L96.7679 185.178L96.7679 187.686L86.9659 187.686L86.9659 194.284L94.8539 194.284L94.8539 196.705L86.9659 196.705L86.9659 203.491L96.7824 203.491ZM119.854 203.404L119.854 206L107.935 206L107.935 185.178L111.024 185.178L111.024 203.404L119.854 203.404ZM141.355 195.589C141.355 197.145 141.103 198.576 140.601 199.881C140.108 201.176 139.407 202.298 138.498 203.245C137.59 204.183 136.502 204.912 135.236 205.434C133.969 205.956 132.563 206.217 131.016 206.217C129.479 206.217 128.073 205.956 126.797 205.434C125.53 204.912 124.443 204.183 123.534 203.245C122.635 202.298 121.934 201.176 121.432 199.881C120.929 198.576 120.678 197.145 120.678 195.589C120.678 194.042 120.929 192.616 121.432 191.311C121.934 190.006 122.635 188.885 123.534 187.947C124.443 187 125.53 186.265 126.797 185.743C128.073 185.212 129.479 184.946 131.016 184.946C132.563 184.946 133.969 185.212 135.236 185.743C136.502 186.265 137.59 187 138.498 187.947C139.407 188.885 140.108 190.006 140.601 191.311C141.103 192.616 141.355 194.042 141.355 195.589ZM138.194 195.589C138.194 194.352 138.025 193.24 137.686 192.254C137.348 191.268 136.865 190.432 136.236 189.745C135.618 189.059 134.864 188.532 133.974 188.165C133.095 187.798 132.109 187.614 131.016 187.614C129.924 187.614 128.933 187.798 128.044 188.165C127.164 188.532 126.41 189.059 125.782 189.745C125.153 190.432 124.67 191.268 124.332 192.254C123.993 193.24 123.824 194.352 123.824 195.589C123.824 196.836 123.993 197.952 124.332 198.938C124.67 199.915 125.153 200.746 125.782 201.432C126.41 202.119 127.164 202.646 128.044 203.013C128.933 203.371 129.924 203.549 131.016 203.549C132.109 203.549 133.095 203.371 133.974 203.013C134.864 202.646 135.618 202.119 136.236 201.432C136.865 200.746 137.348 199.915 137.686 198.938C138.025 197.952 138.194 196.836 138.194 195.589ZM158.551 187.759L151.939 187.759L151.939 206L148.865 206L148.865 187.759L142.224 187.759L142.224 185.178L158.551 185.178L158.551 187.759ZM169.666 203.52C170.497 203.52 171.241 203.38 171.899 203.1C172.556 202.82 173.112 202.428 173.566 201.925C174.02 201.413 174.368 200.809 174.61 200.113C174.852 199.407 174.973 198.629 174.973 197.778L174.973 185.178L178.047 185.178L178.047 197.778C178.047 198.996 177.853 200.123 177.467 201.157C177.08 202.191 176.524 203.085 175.799 203.839C175.074 204.593 174.194 205.183 173.16 205.608C172.126 206.034 170.961 206.246 169.666 206.246C168.37 206.246 167.205 206.034 166.171 205.608C165.137 205.183 164.257 204.593 163.532 203.839C162.807 203.085 162.251 202.191 161.865 201.157C161.478 200.123 161.285 198.996 161.285 197.778L161.285 185.178L164.373 185.178L164.373 197.764C164.373 198.615 164.489 199.393 164.721 200.098C164.963 200.804 165.311 201.413 165.765 201.925C166.219 202.428 166.775 202.82 167.433 203.1C168.09 203.38 168.834 203.52 169.666 203.52ZM193.701 188.571C193.604 188.735 193.503 188.856 193.396 188.933C193.29 189.011 193.155 189.049 192.99 189.049C192.816 189.049 192.618 188.972 192.396 188.817C192.174 188.653 191.893 188.474 191.555 188.281C191.226 188.078 190.83 187.899 190.366 187.744C189.902 187.58 189.346 187.498 188.698 187.498C188.089 187.498 187.553 187.58 187.089 187.744C186.635 187.899 186.253 188.117 185.943 188.397C185.634 188.668 185.397 188.991 185.233 189.368C185.078 189.736 185.001 190.137 185.001 190.572C185.001 191.133 185.141 191.597 185.421 191.964C185.711 192.331 186.088 192.645 186.552 192.906C187.016 193.167 187.543 193.395 188.133 193.588C188.723 193.781 189.327 193.984 189.945 194.197C190.564 194.4 191.168 194.637 191.758 194.907C192.348 195.178 192.874 195.521 193.338 195.937C193.802 196.343 194.175 196.846 194.455 197.445C194.745 198.035 194.89 198.76 194.89 199.62C194.89 200.538 194.73 201.399 194.411 202.201C194.102 203.003 193.648 203.704 193.048 204.303C192.449 204.903 191.71 205.376 190.83 205.724C189.96 206.063 188.969 206.232 187.857 206.232C187.19 206.232 186.543 206.164 185.914 206.029C185.286 205.903 184.692 205.724 184.131 205.492C183.57 205.251 183.043 204.966 182.55 204.637C182.067 204.299 181.632 203.922 181.245 203.506L182.13 202.027C182.217 201.911 182.318 201.814 182.434 201.737C182.56 201.66 182.7 201.621 182.855 201.621C183.058 201.621 183.29 201.727 183.551 201.94C183.822 202.153 184.15 202.389 184.537 202.65C184.933 202.902 185.402 203.134 185.943 203.346C186.494 203.559 187.161 203.665 187.944 203.665C188.582 203.665 189.153 203.583 189.655 203.419C190.158 203.245 190.579 203.003 190.917 202.694C191.265 202.375 191.531 201.993 191.714 201.548C191.898 201.104 191.99 200.611 191.99 200.069C191.99 199.46 191.85 198.963 191.569 198.576C191.289 198.189 190.917 197.865 190.453 197.604C189.989 197.343 189.462 197.121 188.872 196.937C188.283 196.754 187.679 196.565 187.06 196.372C186.441 196.169 185.837 195.937 185.247 195.676C184.658 195.415 184.131 195.077 183.667 194.661C183.203 194.236 182.831 193.709 182.55 193.08C182.27 192.442 182.13 191.659 182.13 190.731C182.13 189.987 182.275 189.267 182.565 188.571C182.855 187.875 183.275 187.261 183.826 186.729C184.387 186.188 185.073 185.758 185.885 185.439C186.697 185.11 187.625 184.946 188.669 184.946C189.839 184.946 190.912 185.134 191.888 185.511C192.874 185.879 193.73 186.41 194.455 187.106L193.701 188.571Z" fill="white"/>
</svg>
