<svg width="430" height="72" viewBox="0 0 430 72" fill="none" xmlns="http://www.w3.org/2000/svg">
<rect width="430" height="72" fill="url(#paint0_linear_558_16)"/>
<path d="M218.517 61.8814C229.167 64.4466 241.626 63.46 251.473 49.6477C234.593 44.1228 227.359 48.0691 222.938 51.4235C204.249 74.9044 179.532 54.5806 178.527 48.661C191.187 45.504 205.254 49.6477 212.488 56.9485C182.144 59.9083 180.067 37.3481 179.13 31.889C177.321 31.297 196.412 32.6783 198.622 35.2434M213.895 53.7914C199.587 39.7423 196.613 25.1801 214.498 9C215.904 9.78928 229.167 22.023 227.158 33.6648M192.594 31.889C192.594 30.5077 191.388 26.7587 192.594 21.6284C195.206 21.6284 199.828 25.3775 202.507 27.3507M228.966 24.7855C230.172 23.9962 231.177 22.2375 235.397 21.2509C237.205 25.3946 237.808 29.3409 236.603 33.2873M218.517 56.104C217.311 48.661 224.344 31.297 250.468 31.297C248.459 56.104 223.742 60.1056 218.517 56.104Z" stroke="#CCE0FF"/>
<defs>
<linearGradient id="paint0_linear_558_16" x1="215" y1="0" x2="215" y2="72" gradientUnits="userSpaceOnUse">
<stop stop-color="#29B29D"/>
<stop offset="0.632488" stop-color="#154087"/>
</linearGradient>
</defs>
</svg>
